<?xml version="1.0" encoding="utf-8"?>
<!-- Generator: Adobe Illustrator 16.0.0, SVG Export Plug-In . SVG Version: 6.00 Build 0)  -->
<!DOCTYPE svg PUBLIC "-//W3C//DTD SVG 1.1//EN" "http://www.w3.org/Graphics/SVG/1.1/DTD/svg11.dtd">
<svg version="1.1" id="Layer_1" xmlns="http://www.w3.org/2000/svg" xmlns:xlink="http://www.w3.org/1999/xlink" x="0px" y="0px"
	 width="184px" height="219px" viewBox="0 0 184 219" enable-background="new 0 0 184 219" xml:space="preserve">
<rect x="33.164" y="26.134" fill="#991D32" width="136.656" height="178.361"/>
<polygon fill="#E9E0C2" points="161.631,17.427 167.233,29.472 166.253,200.313 160.791,186.589 "/>
<polygon fill="#991D32" points="27.449,192.867 33.164,204.495 33.164,14.505 27.449,14.505 "/>
<polygon fill="#B8AAA1" points="30.307,188.619 34.77,200.313 166.253,200.313 160.791,186.589 30.307,186.589 "/>
<rect x="27.449" y="14.505" fill="#BB202C" width="136.656" height="178.362"/>
<g enable-background="new    ">
	<path fill="#D3BBA7" d="M59.868,105.687h-1.774l-2.594-5.436h-7.121l-2.582,5.436h-1.842l7.805-16.52h0.404L59.868,105.687z
		 M54.77,98.646l-2.808-5.986l-2.841,5.986H54.77L54.77,98.646z"/>
	<path fill="#D3BBA7" d="M63.518,105.687h-1.583V88.751h1.583V105.687z"/>
	<path fill="#D3BBA7" d="M78.881,103.204c0,1.7-0.148,2.954-0.449,3.764c-0.44,1.189-1.213,2.089-2.313,2.695
		c-0.981,0.539-2.149,0.809-3.504,0.809c-2.098,0-3.719-0.543-4.863-1.629c-0.523-0.502-1.007-1.231-1.449-2.189h1.696
		c0.913,1.58,2.422,2.37,4.526,2.37c2.133,0,3.563-0.703,4.289-2.106c0.313-0.605,0.473-1.58,0.473-2.927v-0.627
		c-1.227,1.55-2.854,2.324-4.881,2.324c-1.114,0-2.166-0.274-3.152-0.825s-1.752-1.301-2.295-2.252
		c-0.542-0.951-0.813-1.99-0.813-3.122c0-1.138,0.278-2.192,0.841-3.167c0.562-0.974,1.337-1.744,2.328-2.313
		c0.991-0.569,2.036-0.854,3.136-0.854c1.854,0,3.467,0.813,4.836,2.438V93.47h1.594V103.204L78.881,103.204z M77.365,99.476
		c0-1.904-0.773-3.294-2.319-4.167c-0.739-0.419-1.535-0.628-2.386-0.628c-0.891,0-1.715,0.213-2.478,0.639
		c-0.762,0.426-1.358,1.02-1.793,1.781c-0.434,0.761-0.649,1.584-0.649,2.465c0,1.382,0.463,2.502,1.391,3.361
		c0.902,0.844,2.049,1.266,3.439,1.266c1.434,0,2.592-0.429,3.473-1.288C76.924,102.046,77.365,100.902,77.365,99.476z"/>
	<path fill="#D3BBA7" d="M94.391,99.61c0,1.797-0.609,3.313-1.83,4.543s-2.729,1.848-4.525,1.848s-3.309-0.613-4.532-1.842
		c-1.223-1.228-1.836-2.744-1.836-4.549c0-1.691,0.563-3.158,1.686-4.402c1.234-1.369,2.797-2.055,4.684-2.055
		c1.88,0,3.437,0.682,4.672,2.044C93.829,96.44,94.391,97.911,94.391,99.61z M92.785,99.645c0-1.345-0.458-2.504-1.373-3.479
		c-0.915-0.975-2.041-1.461-3.378-1.461s-2.464,0.486-3.378,1.461c-0.915,0.977-1.373,2.135-1.373,3.479
		c0,0.866,0.205,1.677,0.617,2.432c0.426,0.776,1.004,1.374,1.735,1.792c0.732,0.42,1.531,0.629,2.397,0.629
		c1.853,0,3.224-0.797,4.111-2.388C92.572,101.348,92.785,100.526,92.785,99.645z"/>
	<path fill="#D3BBA7" d="M102.893,93.569l-0.819,1.336c-0.328-0.143-0.604-0.213-0.828-0.213c-1.254,0-2.128,0.882-2.621,2.646
		c-0.193,0.695-0.291,2.103-0.291,4.219v4.129h-1.617V93.468h1.617v1.796c0.949-1.406,2.006-2.11,3.171-2.11
		C101.936,93.153,102.398,93.292,102.893,93.569z"/>
	<path fill="#D3BBA7" d="M106.07,89.733c0,0.357-0.127,0.662-0.381,0.912c-0.254,0.249-0.56,0.374-0.916,0.374
		c-0.352,0-0.652-0.127-0.906-0.38c-0.254-0.254-0.38-0.557-0.38-0.906c0-0.357,0.125-0.663,0.374-0.917
		c0.25-0.253,0.554-0.38,0.912-0.38c0.356,0,0.662,0.127,0.916,0.38C105.943,89.07,106.07,89.376,106.07,89.733z M105.588,105.687
		h-1.596V93.468h1.596V105.687z"/>
	<path fill="#D3BBA7" d="M114.291,94.827h-2.493v10.859h-1.595V94.827h-2.146v-1.359h2.146v-4.536h1.595v4.536h2.493V94.827z"/>
	<path fill="#D3BBA7" d="M127.285,105.687h-1.584v-5.822c0-1.406-0.058-2.345-0.168-2.816c-0.39-1.623-1.41-2.435-3.068-2.435
		c-0.947,0-1.797,0.313-2.547,0.937c-0.75,0.625-1.244,1.404-1.483,2.341c-0.148,0.583-0.224,1.69-0.224,3.319v4.478h-1.584V88.751
		h1.584v6.906c1.264-1.669,2.789-2.504,4.576-2.504c0.89,0,1.69,0.227,2.406,0.68c0.713,0.453,1.239,1.076,1.581,1.869
		c0.34,0.795,0.511,2.025,0.511,3.695V105.687z"/>
	<path fill="#D3BBA7" d="M148.948,105.687h-1.617v-6.664c0-1.023-0.045-1.739-0.135-2.143c-0.165-0.778-0.532-1.357-1.102-1.739
		c-0.457-0.3-1-0.448-1.629-0.448c-0.778,0-1.481,0.227-2.111,0.68c-0.629,0.451-1.087,1.051-1.375,1.795s-0.433,1.99-0.433,3.74
		v4.779h-1.572v-6.249c0-1.146-0.038-1.922-0.111-2.334c-0.157-0.882-0.531-1.529-1.123-1.94c-0.457-0.313-1-0.471-1.629-0.471
		c-0.757,0-1.452,0.229-2.089,0.684c-0.606,0.441-1.057,1.021-1.348,1.739c-0.308,0.74-0.461,1.874-0.461,3.399v5.172h-1.572V93.468
		h1.572v2.111c1.139-1.617,2.537-2.427,4.193-2.427c1.252,0,2.249,0.423,2.99,1.271c0.337,0.389,0.631,0.942,0.878,1.662
		c1.071-1.955,2.574-2.933,4.511-2.933c1.791,0,3.021,0.81,3.688,2.427c0.314,0.764,0.473,1.908,0.473,3.437L148.948,105.687
		L148.948,105.687z"/>
</g>
</svg>
