<?xml version="1.0" encoding="utf-8"?>
<!-- Generator: Adobe Illustrator 16.0.0, SVG Export Plug-In . SVG Version: 6.00 Build 0)  -->
<!DOCTYPE svg PUBLIC "-//W3C//DTD SVG 1.1//EN" "http://www.w3.org/Graphics/SVG/1.1/DTD/svg11.dtd">
<svg version="1.1" xmlns="http://www.w3.org/2000/svg" xmlns:xlink="http://www.w3.org/1999/xlink" x="0px" y="0px"
	 width="329.943px" height="275.707px" viewBox="0 0 329.943 275.707" enable-background="new 0 0 329.943 275.707"
	 xml:space="preserve">
<symbol  id="cake" viewBox="-74.766 -59.022 149.532 118.045">
	<g>
		<g>
			<g>
			</g>
			<g>
			</g>
			<g>
			</g>
			<g>
			</g>
		</g>
		<g>
			<path fill="#E9E0C2" d="M47.545-6.783c0-1.391-1.129-2.52-2.521-2.52h-93.081c-1.393,0-2.52,1.129-2.52,2.52l-10.078,54.692
				c0,1.392,1.128,2.519,2.52,2.519H55.103c1.393,0,2.52-1.127,2.52-2.519L47.545-6.783z"/>
			<path fill="#E9E0C2" d="M58.167-56.12c0-1.604-1.3-2.902-2.903-2.902H-58.295c-1.604,0-2.904,1.3-2.904,2.902L-72.816,3.419
				c0,1.604,1.299,2.904,2.903,2.904H66.88c1.604,0,2.904-1.301,2.904-2.904L58.167-56.12z"/>
			<g>
			</g>
			<path fill="#F5978E" d="M32.02,2.57c0,0-0.914-4.784-0.382-6.721c0.533-1.937-0.608-3.188-1.827-3.188h0.076
				c-1.218,0-2.36,1.253-1.828,3.188c0.532,1.937-0.38,6.721-0.38,6.721"/>
			<g>
				<g>
					<defs>
						<path id="SVGID_1_" d="M58.167-56.12c0-1.604-1.3-2.902-2.903-2.902H-58.295c-1.604,0-2.904,1.3-2.904,2.902L-72.816,3.419
							c0,1.604,1.299,2.904,2.903,2.904H66.88c1.604,0,2.904-1.301,2.904-2.904L58.167-56.12z"/>
					</defs>
					<clipPath id="SVGID_2_">
						<use xlink:href="#SVGID_1_"  overflow="visible"/>
					</clipPath>
					<path clip-path="url(#SVGID_2_)" fill="#613436" d="M-74.766,4.077c0,0,131.966-15.616,149.532,3.486
						C74.766,7.563-56.912,35.648-74.766,4.077z"/>
				</g>
			</g>
			<g opacity="0.25">
				<path fill="#E8585E" d="M-49.817,6.005c0-1.459-1.184-2.641-2.642-2.641c-1.459,0-2.642,1.182-2.642,2.641
					s1.183,2.643,2.642,2.643C-51,8.646-49.817,7.464-49.817,6.005z"/>
				<path fill="#E8585E" d="M-52.458,7.921c0,0,2.091-0.103,2.005-1.916"/>
				<path fill="#E8585E" d="M-38.201,6.005c0-1.459-1.182-2.641-2.642-2.641c-1.457,0-2.642,1.182-2.642,2.641
					s1.185,2.643,2.642,2.643C-39.382,8.646-38.201,7.464-38.201,6.005z"/>
				<path fill="#E8585E" d="M-40.842,7.921c0,0,2.092-0.103,2.006-1.916"/>
				<path fill="#E8585E" d="M-26.582,6.005c0-1.459-1.184-2.641-2.643-2.641s-2.641,1.182-2.641,2.641s1.182,2.643,2.641,2.643
					S-26.582,7.464-26.582,6.005z"/>
				<path fill="#E8585E" d="M-29.225,7.921c0,0,2.093-0.103,2.006-1.916"/>
				<path fill="#E8585E" d="M-14.966,6.005c0-1.459-1.183-2.641-2.641-2.641c-1.459,0-2.642,1.182-2.642,2.641
					s1.183,2.643,2.642,2.643C-16.149,8.646-14.966,7.464-14.966,6.005z"/>
				<path fill="#E8585E" d="M-17.607,7.921c0,0,2.091-0.103,2.005-1.916"/>
				<path fill="#E8585E" d="M-3.347,6.005c0-1.459-1.184-2.641-2.643-2.641s-2.643,1.182-2.643,2.641s1.184,2.643,2.643,2.643
					S-3.347,7.464-3.347,6.005z"/>
				<path fill="#E8585E" d="M-5.99,7.921c0,0,2.091-0.103,2.004-1.916"/>
				<path fill="#E8585E" d="M8.268,6.005c0-1.459-1.182-2.641-2.641-2.641c-1.46,0-2.643,1.182-2.643,2.641s1.183,2.643,2.643,2.643
					C7.087,8.646,8.268,7.464,8.268,6.005z"/>
				<path fill="#E8585E" d="M5.628,7.921c0,0,2.09-0.103,2.005-1.916"/>
				<path fill="#E8585E" d="M19.886,6.005c0-1.459-1.184-2.641-2.642-2.641c-1.459,0-2.643,1.182-2.643,2.641
					s1.184,2.643,2.643,2.643C18.703,8.646,19.886,7.464,19.886,6.005z"/>
				<path fill="#E8585E" d="M17.245,7.921c0,0,2.091-0.103,2.005-1.916"/>
				<path fill="#E8585E" d="M31.503,6.005c0-1.459-1.182-2.641-2.642-2.641c-1.459,0-2.642,1.182-2.642,2.641
					s1.183,2.643,2.642,2.643C30.321,8.646,31.503,7.464,31.503,6.005z"/>
				<path fill="#E8585E" d="M28.861,7.921c0,0,2.092-0.103,2.006-1.916"/>
				<path fill="#E8585E" d="M43.12,6.005c0-1.459-1.182-2.641-2.641-2.641c-1.46,0-2.643,1.182-2.643,2.641s1.183,2.643,2.643,2.643
					C41.938,8.646,43.12,7.464,43.12,6.005z"/>
				<path fill="#E8585E" d="M40.479,7.921c0,0,2.092-0.103,2.005-1.916"/>
			</g>
			<g>
				<path fill="#613436" d="M66.548,5.476c0,0-1.262-6.604-0.525-9.276c0.737-2.673-0.842-4.402-2.523-4.402h0.104
					c-1.682,0-3.259,1.729-2.522,4.402c0.737,2.673-0.525,9.276-0.525,9.276"/>
				<path fill="#613436" d="M26.212,5.476c0,0-0.913-4.783-0.381-6.721c0.532-1.937-0.609-3.188-1.829-3.188h0.077
					c-1.218,0-2.36,1.253-1.827,3.188c0.532,1.938-0.381,6.721-0.381,6.721"/>
				<path fill="#613436" d="M17.422,2.57c0,0-1.363-4.784-0.567-6.721c0.795-1.937-0.908-3.188-2.728-3.188h0.113
					c-1.817,0-3.522,1.253-2.726,3.188c0.794,1.937-0.567,6.721-0.567,6.721"/>
				<path fill="#613436" d="M49.662,6.056c0,0-1.364-4.783-0.569-6.72s-0.909-3.188-2.727-3.188h0.112
					c-1.817,0-3.521,1.252-2.727,3.188c0.796,1.937-0.566,6.72-0.566,6.72"/>
				<path fill="#613436" d="M8.711,5.765c0,0-1.364-4.782-0.568-6.719c0.795-1.937-0.908-3.189-2.728-3.189h0.113
					c-1.817,0-3.521,1.254-2.727,3.189c0.795,1.936-0.567,6.719-0.567,6.719"/>
				<path fill="#613436" d="M-2.907,2.861c0,0-1.364-4.784-0.568-6.722c0.797-1.937-0.909-3.188-2.728-3.188h0.114
					c-1.819,0-3.522,1.251-2.728,3.188c0.796,1.938-0.567,6.722-0.567,6.722"/>
				<path fill="#613436" d="M-11.62,2.861c0,0-1.13-5.862-0.47-8.236c0.658-2.373-0.754-3.908-2.26-3.908h0.094
					c-1.506,0-2.918,1.535-2.26,3.908c0.659,2.374-0.47,8.236-0.47,8.236"/>
				<path fill="#613436" d="M-20.333,5.476c0,0-1.13-5.178-0.47-7.272c0.659-2.096-0.754-3.45-2.26-3.45h0.094
					c-1.507,0-2.918,1.354-2.26,3.45C-24.57,0.299-25.7,5.476-25.7,5.476"/>
				<path fill="#613436" d="M-62.318,3.442c0,0-0.851-5.18-0.354-7.273c0.497-2.094-0.567-3.45-1.702-3.45h0.071
					c-1.135,0-2.197,1.355-1.7,3.45c0.495,2.095-0.354,7.273-0.354,7.273"/>
				<path fill="#613436" d="M-57.379,5.765c0,0-0.852-5.176-0.355-7.271c0.496-2.097-0.568-3.452-1.702-3.452h0.07
					c-1.134,0-2.197,1.355-1.7,3.452c0.496,2.096-0.354,7.271-0.354,7.271"/>
				<path fill="#613436" d="M32.02,2.57c0,0-0.914-4.784-0.382-6.721c0.533-1.937-0.608-3.188-1.827-3.188h0.076
					c-1.218,0-2.36,1.253-1.828,3.188c0.532,1.937-0.38,6.721-0.38,6.721"/>
				<path fill="#613436" d="M-44.602,5.338c0,0-0.85-3.008-0.354-4.225c0.497-1.219-0.566-2.006-1.701-2.006h0.071
					c-1.136,0-2.199,0.787-1.702,2.006c0.496,1.217-0.354,4.225-0.354,4.225"/>
				<path fill="#613436" d="M-39.374,3.595c0,0-0.85-3.007-0.354-4.225c0.495-1.218-0.568-2.006-1.702-2.006h0.071
					c-1.135,0-2.198,0.788-1.701,2.006c0.495,1.218-0.354,4.225-0.354,4.225"/>
				<path fill="#613436" d="M-33.566,4.467c0,0-0.851-3.008-0.354-4.225c0.496-1.219-0.567-2.006-1.702-2.006h0.071
					c-1.135,0-2.198,0.787-1.702,2.006c0.497,1.217-0.354,4.225-0.354,4.225"/>
			</g>
			<g>
				<path fill="#BB202C" d="M-49.817,7.167c0-1.459-1.184-2.642-2.642-2.642c-1.459,0-2.642,1.183-2.642,2.642
					c0,1.458,1.183,2.642,2.642,2.642S-49.817,8.625-49.817,7.167z"/>
				<g>
					<path fill="#FFFFFF" d="M-52.457,9.098c0,0,0.197,0.005,0.489-0.044c0.291-0.049,0.683-0.168,1.017-0.417
						c0.347-0.233,0.567-0.649,0.572-0.965c0.025-0.313-0.074-0.506-0.06-0.506l-0.029,0.002c0,0-0.014,0.048-0.039,0.132
						c-0.026,0.082-0.044,0.198-0.098,0.326c-0.092,0.258-0.234,0.572-0.495,0.832c-0.265,0.253-0.623,0.403-0.893,0.497
						c-0.273,0.089-0.467,0.113-0.467,0.113L-52.457,9.098z"/>
				</g>
				<path fill="#BB202C" d="M-38.201,7.167c0-1.459-1.182-2.642-2.642-2.642c-1.457,0-2.642,1.183-2.642,2.642
					c0,1.458,1.185,2.642,2.642,2.642C-39.382,9.809-38.201,8.625-38.201,7.167z"/>
				<g>
					<path fill="#FFFFFF" d="M-40.841,9.098c0,0,0.197,0.005,0.489-0.044c0.291-0.049,0.684-0.168,1.018-0.417
						c0.346-0.233,0.567-0.649,0.572-0.965c0.026-0.313-0.074-0.506-0.06-0.506l-0.029,0.002c0,0-0.014,0.048-0.039,0.132
						c-0.026,0.082-0.044,0.198-0.099,0.326c-0.091,0.258-0.233,0.572-0.494,0.832c-0.266,0.253-0.624,0.403-0.894,0.497
						c-0.273,0.089-0.467,0.113-0.467,0.113L-40.841,9.098z"/>
				</g>
				<path fill="#BB202C" d="M-26.582,7.167c0-1.459-1.184-2.642-2.643-2.642s-2.641,1.183-2.641,2.642
					c0,1.458,1.182,2.642,2.641,2.642S-26.582,8.625-26.582,7.167z"/>
				<g>
					<path fill="#FFFFFF" d="M-29.224,9.098c0,0,0.197,0.005,0.489-0.044c0.291-0.049,0.684-0.168,1.018-0.417
						c0.347-0.233,0.567-0.649,0.572-0.965c0.026-0.313-0.074-0.506-0.06-0.506l-0.029,0.002c0,0-0.014,0.048-0.039,0.132
						c-0.025,0.082-0.043,0.198-0.098,0.327c-0.092,0.257-0.234,0.572-0.495,0.831c-0.266,0.253-0.624,0.403-0.894,0.497
						c-0.273,0.089-0.467,0.113-0.467,0.113L-29.224,9.098z"/>
				</g>
				<path fill="#BB202C" d="M-14.966,7.167c0-1.459-1.183-2.642-2.641-2.642c-1.459,0-2.642,1.183-2.642,2.642
					c0,1.458,1.183,2.642,2.642,2.642C-16.149,9.809-14.966,8.625-14.966,7.167z"/>
				<g>
					<path fill="#FFFFFF" d="M-17.606,9.098c0,0,0.197,0.005,0.489-0.044c0.291-0.049,0.683-0.168,1.017-0.417
						c0.347-0.233,0.567-0.649,0.572-0.965c0.025-0.313-0.074-0.506-0.06-0.506l-0.029,0.002c0,0-0.014,0.048-0.039,0.132
						c-0.026,0.082-0.044,0.198-0.098,0.326c-0.092,0.258-0.234,0.572-0.495,0.832c-0.265,0.253-0.623,0.403-0.893,0.497
						c-0.273,0.089-0.467,0.113-0.467,0.113L-17.606,9.098z"/>
				</g>
				<path fill="#BB202C" d="M-3.347,7.167c0-1.459-1.184-2.642-2.643-2.642s-2.643,1.183-2.643,2.642
					c0,1.458,1.184,2.642,2.643,2.642S-3.347,8.625-3.347,7.167z"/>
				<g>
					<path fill="#FFFFFF" d="M-5.989,9.098c0,0,0.197,0.005,0.489-0.044c0.291-0.049,0.683-0.168,1.017-0.417
						c0.346-0.234,0.566-0.649,0.571-0.965c0.026-0.313-0.074-0.506-0.06-0.506l-0.029,0.002c0,0-0.014,0.048-0.039,0.132
						c-0.025,0.082-0.043,0.198-0.098,0.326C-4.23,7.884-4.371,8.198-4.632,8.458c-0.266,0.253-0.623,0.403-0.893,0.497
						c-0.273,0.089-0.467,0.113-0.467,0.113L-5.989,9.098z"/>
				</g>
				<path fill="#BB202C" d="M8.268,7.167c0-1.459-1.182-2.642-2.641-2.642c-1.46,0-2.643,1.183-2.643,2.642
					c0,1.458,1.183,2.642,2.643,2.642S8.268,8.625,8.268,7.167z"/>
				<g>
					<path fill="#FFFFFF" d="M5.629,9.098c0,0,0.197,0.005,0.489-0.044C6.409,9.005,6.8,8.886,7.134,8.637
						C7.48,8.402,7.7,7.987,7.706,7.672c0.025-0.313-0.074-0.506-0.06-0.506L7.618,7.168c0,0-0.014,0.048-0.039,0.132
						C7.552,7.382,7.535,7.498,7.48,7.626C7.389,7.884,7.247,8.198,6.986,8.458C6.72,8.711,6.363,8.861,6.093,8.955
						C5.82,9.044,5.627,9.068,5.627,9.068L5.629,9.098z"/>
				</g>
				<path fill="#BB202C" d="M19.886,7.167c0-1.459-1.184-2.642-2.642-2.642c-1.459,0-2.643,1.183-2.643,2.642
					c0,1.458,1.184,2.642,2.643,2.642C18.703,9.809,19.886,8.625,19.886,7.167z"/>
				<g>
					<path fill="#FFFFFF" d="M17.246,9.098c0,0,0.197,0.005,0.489-0.044c0.291-0.049,0.683-0.168,1.017-0.417
						c0.347-0.233,0.567-0.649,0.572-0.965c0.025-0.313-0.074-0.506-0.06-0.506l-0.029,0.002c0,0-0.014,0.048-0.039,0.132
						c-0.026,0.082-0.044,0.198-0.098,0.326c-0.092,0.258-0.234,0.572-0.495,0.832c-0.265,0.253-0.623,0.403-0.893,0.497
						c-0.273,0.089-0.467,0.113-0.467,0.113L17.246,9.098z"/>
				</g>
				<path fill="#BB202C" d="M31.503,7.167c0-1.459-1.182-2.642-2.642-2.642c-1.459,0-2.642,1.183-2.642,2.642
					c0,1.458,1.183,2.642,2.642,2.642C30.321,9.809,31.503,8.625,31.503,7.167z"/>
				<g>
					<path fill="#FFFFFF" d="M28.862,9.098c0,0,0.197,0.005,0.489-0.044c0.291-0.049,0.684-0.168,1.018-0.417
						c0.346-0.233,0.567-0.649,0.572-0.965c0.026-0.313-0.074-0.506-0.06-0.506l-0.029,0.002c0,0-0.014,0.048-0.039,0.132
						c-0.026,0.082-0.044,0.198-0.099,0.326c-0.091,0.258-0.233,0.572-0.494,0.832c-0.266,0.253-0.624,0.403-0.894,0.497
						c-0.273,0.089-0.467,0.113-0.467,0.113L28.862,9.098z"/>
				</g>
				<path fill="#BB202C" d="M43.12,7.167c0-1.459-1.182-2.642-2.641-2.642c-1.46,0-2.643,1.183-2.643,2.642
					c0,1.458,1.183,2.642,2.643,2.642C41.938,9.809,43.12,8.625,43.12,7.167z"/>
				<g>
					<path fill="#FFFFFF" d="M40.48,9.098c0,0,0.197,0.005,0.489-0.044c0.291-0.049,0.683-0.168,1.017-0.417
						c0.347-0.233,0.567-0.649,0.572-0.965c0.026-0.313-0.074-0.506-0.06-0.506l-0.029,0.002c0,0-0.014,0.048-0.039,0.132
						c-0.025,0.082-0.043,0.198-0.098,0.326c-0.092,0.258-0.233,0.572-0.495,0.832c-0.265,0.253-0.623,0.403-0.893,0.497
						c-0.273,0.089-0.467,0.113-0.467,0.113L40.48,9.098z"/>
				</g>
			</g>
			<g>
				<path fill="#FFFFFF" d="M65.297-4.144c0,0,0.04-0.257,0.054-0.646c0.013-0.389-0.004-0.916-0.161-1.43
					c-0.07-0.258-0.188-0.515-0.359-0.716c-0.086-0.1-0.187-0.188-0.286-0.257c-0.114-0.048-0.217-0.104-0.318-0.132
					C63.805-7.42,63.55-7.27,63.552-7.298l0.002,0.029c0,0,0.064,0.013,0.176,0.035c0.111,0.014,0.258,0.059,0.42,0.127
					c0.16,0.076,0.315,0.198,0.463,0.358c0.132,0.171,0.271,0.37,0.358,0.604c0.188,0.461,0.243,0.976,0.278,1.354
					c0.031,0.383,0.02,0.641,0.02,0.641L65.297-4.144z"/>
			</g>
			<g>
				<path fill="#FFFFFF" d="M47.002-3.196c0-0.001,0.195,0.028,0.448,0.164c0.134,0.052,0.259,0.167,0.399,0.265
					c0.108,0.136,0.259,0.248,0.314,0.427L48.27-2.1c0.007,0.091,0.024,0.175,0.039,0.258c0.037,0.164,0.069,0.318,0.057,0.462
					c0.013,0.278,0.058,0.483,0.058,0.483l0.029,0.007c0,0,0.079-0.182,0.144-0.483c0.014-0.075,0.027-0.157,0.043-0.244
					c-0.004-0.09-0.03-0.183-0.046-0.279c-0.02-0.096-0.036-0.195-0.065-0.294c-0.049-0.092-0.109-0.181-0.164-0.27
					c-0.09-0.193-0.274-0.31-0.411-0.44c-0.166-0.094-0.316-0.19-0.464-0.226c-0.283-0.101-0.483-0.1-0.483-0.1L47.002-3.196z"/>
			</g>
			<g>
				<path fill="#FFFFFF" d="M31.517-5.041c0,0,0.007-0.172-0.043-0.426c-0.013-0.13-0.064-0.272-0.109-0.431
					c-0.067-0.146-0.127-0.315-0.225-0.464c-0.104-0.142-0.18-0.314-0.324-0.41c-0.13-0.106-0.248-0.218-0.384-0.25
					C30.173-7.108,30-7.124,30-7.124l-0.01,0.027c0,0,0.129,0.136,0.323,0.272c0.109,0.053,0.184,0.186,0.307,0.266
					c0.121,0.086,0.215,0.215,0.329,0.328c0.417,0.505,0.538,1.189,0.538,1.189H31.517z"/>
			</g>
			<g>
				<path fill="#FFFFFF" d="M25.618-2.385c0,0,0.002-0.162-0.048-0.403c-0.016-0.122-0.061-0.259-0.113-0.406
					c-0.052-0.146-0.14-0.292-0.226-0.438c-0.116-0.122-0.198-0.293-0.353-0.363c-0.144-0.08-0.275-0.173-0.41-0.172
					c-0.266-0.021-0.427,0.009-0.427,0.009L24.04-4.13c0,0,0.151,0.099,0.355,0.181c0.11,0.024,0.193,0.144,0.318,0.19
					c0.122,0.06,0.214,0.181,0.335,0.27c0.091,0.118,0.189,0.238,0.256,0.366c0.063,0.13,0.132,0.25,0.168,0.362
					c0.089,0.22,0.116,0.38,0.116,0.38L25.618-2.385z"/>
			</g>
			<g>
				<path fill="#FFFFFF" d="M14.185-6.949c0,0,0.257,0.003,0.627,0.086c0.359,0.095,0.858,0.255,1.182,0.616
					c0.174,0.167,0.265,0.389,0.353,0.587c0.047,0.102,0.047,0.212,0.086,0.309c0.038,0.096,0.033,0.196,0.052,0.286
					c0.043,0.183,0.027,0.34,0.046,0.45c0.012,0.113,0.019,0.18,0.019,0.18l0.029,0.004c0,0,0.019-0.063,0.052-0.171
					c0.031-0.111,0.085-0.271,0.085-0.473c0.015-0.2-0.006-0.441-0.098-0.686c-0.058-0.115-0.091-0.25-0.187-0.353
					c-0.077-0.112-0.168-0.216-0.275-0.303c-0.407-0.375-0.947-0.499-1.325-0.549c-0.388-0.042-0.645-0.016-0.645-0.016
					L14.185-6.949L14.185-6.949z"/>
			</g>
			<g>
				<path fill="#FFFFFF" d="M5.624-3.938c0,0,0.203,0.064,0.484,0.206c0.144,0.063,0.3,0.159,0.468,0.259
					C6.748-3.382,6.9-3.238,7.067-3.12c0.074,0.069,0.139,0.148,0.207,0.221c0.06,0.078,0.148,0.132,0.194,0.213
					c0.054,0.075,0.096,0.154,0.152,0.22c0.05,0.067,0.122,0.122,0.144,0.193c0.123,0.268,0.251,0.457,0.251,0.457l0.03-0.004
					c0,0-0.001-0.212-0.071-0.55C7.961-2.456,7.899-2.526,7.858-2.614C7.814-2.701,7.75-2.781,7.693-2.87
					C7.564-3.035,7.377-3.165,7.21-3.304C6.841-3.542,6.457-3.737,6.146-3.826C5.841-3.93,5.631-3.965,5.631-3.965L5.624-3.938z"/>
			</g>
			<g>
				<path fill="#FFFFFF" d="M-3.827-4.429c0,0,0.115-0.203,0.139-0.56c-0.01-0.088-0.021-0.184-0.032-0.284
					c0.002-0.106-0.068-0.195-0.11-0.301c-0.051-0.1-0.091-0.216-0.183-0.291L-4.261-6.12c-0.076-0.1-0.189-0.138-0.285-0.204
					c-0.098-0.063-0.2-0.114-0.298-0.167c-0.188-0.13-0.402-0.124-0.569-0.17c-0.344-0.061-0.573-0.062-0.573-0.063l-0.006,0.028
					c0-0.001,0.204,0.124,0.51,0.253c0.148,0.073,0.347,0.107,0.518,0.214c0.09,0.047,0.181,0.098,0.279,0.139
					c0.092,0.05,0.21,0.073,0.28,0.151l0.241,0.205c0.094,0.062,0.131,0.156,0.186,0.24c0.045,0.086,0.118,0.162,0.127,0.255
					c0.022,0.09,0.043,0.175,0.063,0.253c0.019,0.33-0.066,0.545-0.066,0.545L-3.827-4.429z"/>
			</g>
			<g>
				<path fill="#FFFFFF" d="M-12.213-6.406c0,0,0.009-0.22-0.037-0.548c-0.046-0.325-0.161-0.763-0.396-1.151
					c-0.222-0.396-0.61-0.705-0.943-0.797c-0.328-0.109-0.563-0.06-0.558-0.074l-0.004,0.024c-0.004,0.011,0.213,0.076,0.482,0.233
					c0.27,0.152,0.599,0.39,0.854,0.725c0.25,0.337,0.393,0.748,0.479,1.059c0.081,0.313,0.098,0.529,0.098,0.529H-12.213z"/>
			</g>
			<g>
				<path fill="#FFFFFF" d="M-22.791-4.771c0,0,0.214,0.02,0.494,0.155c0.074,0.022,0.137,0.084,0.212,0.128
					c0.072,0.05,0.154,0.091,0.214,0.168c0.064,0.067,0.132,0.139,0.2,0.209c0.058,0.079,0.097,0.175,0.146,0.26
					c0.039,0.093,0.109,0.167,0.117,0.271c0.019,0.098,0.047,0.189,0.072,0.28c0.061,0.177,0.094,0.35,0.11,0.504
					c0.053,0.303,0.127,0.517,0.127,0.517l0.029,0.002c0,0,0.053-0.209,0.073-0.539c0.003-0.083,0.006-0.173,0.01-0.268
					c0.001-0.095-0.047-0.19-0.07-0.291c-0.029-0.101-0.058-0.206-0.098-0.308c-0.024-0.107-0.114-0.191-0.171-0.286
					c-0.065-0.092-0.12-0.189-0.193-0.271c-0.084-0.07-0.166-0.142-0.245-0.21c-0.074-0.074-0.168-0.114-0.253-0.155
					c-0.087-0.036-0.16-0.09-0.243-0.104c-0.312-0.102-0.529-0.09-0.529-0.09L-22.791-4.771z"/>
			</g>
			<g>
				<path fill="#FFFFFF" d="M-34.176,0.119c0,0,0.082-0.131,0.118-0.361c0.019-0.111,0.026-0.258-0.011-0.401
					c-0.036-0.15-0.101-0.302-0.217-0.423c-0.088-0.148-0.232-0.226-0.363-0.304c-0.067-0.03-0.124-0.092-0.194-0.093
					c-0.067-0.01-0.131-0.021-0.189-0.028c-0.235-0.026-0.389-0.006-0.389-0.006l-0.006,0.029c0,0,0.132,0.103,0.324,0.194
					c0.098,0.045,0.213,0.09,0.316,0.156c0.101,0.073,0.25,0.103,0.33,0.207c0.11,0.083,0.178,0.194,0.227,0.313
					c0.038,0.055,0.032,0.119,0.049,0.177c0.011,0.059,0.028,0.115,0.021,0.169c0.01,0.216-0.044,0.358-0.044,0.357L-34.176,0.119z"
					/>
			</g>
			<g>
				<path fill="#FFFFFF" d="M-40.094-0.676c0,0,0.106-0.129,0.184-0.37c0.04-0.119,0.067-0.273,0.037-0.439
					c-0.022-0.166-0.113-0.339-0.243-0.464c-0.123-0.135-0.277-0.234-0.431-0.288c-0.147-0.076-0.301-0.074-0.425-0.095
					c-0.254-0.006-0.421,0.037-0.421,0.037l-0.002,0.029c0,0,0.153,0.083,0.376,0.158c0.216,0.098,0.511,0.163,0.745,0.328
					c0.243,0.163,0.299,0.482,0.264,0.71c-0.029,0.233-0.109,0.377-0.109,0.377L-40.094-0.676z"/>
			</g>
			<g>
				<path fill="#FFFFFF" d="M-45.212,0.919c0,0,0.08-0.139,0.104-0.383c0.016-0.062-0.002-0.126-0.003-0.197
					c-0.001-0.073-0.012-0.146-0.048-0.219c-0.044-0.157-0.139-0.295-0.262-0.416c-0.101-0.149-0.261-0.207-0.395-0.288
					c-0.07-0.032-0.133-0.086-0.205-0.086c-0.069-0.009-0.136-0.019-0.196-0.026c-0.244-0.024-0.404-0.002-0.404-0.002l-0.004,0.029
					c0,0,0.139,0.102,0.343,0.193c0.103,0.046,0.229,0.084,0.341,0.15c0.104,0.078,0.273,0.092,0.363,0.199
					c0.114,0.084,0.211,0.185,0.264,0.309c0.041,0.056,0.056,0.117,0.068,0.18c0.012,0.06,0.041,0.116,0.036,0.173
					c0.021,0.224-0.03,0.374-0.03,0.374L-45.212,0.919z"/>
			</g>
			<g>
				<path fill="#FFFFFF" d="M-57.881-2.099c0,0,0.083-0.823-0.247-1.606c-0.081-0.192-0.178-0.388-0.316-0.536
					c-0.073-0.069-0.126-0.156-0.212-0.201c-0.081-0.048-0.147-0.105-0.225-0.134c-0.297-0.142-0.522-0.099-0.516-0.114
					l-0.008,0.027c-0.005,0.011,0.187,0.1,0.401,0.282c0.214,0.183,0.473,0.438,0.666,0.775c0.372,0.685,0.427,1.507,0.427,1.507
					H-57.881z"/>
			</g>
			<g>
				<path fill="#FFFFFF" d="M-64.34-6.913c0,0,0.2,0.038,0.45,0.192c0.109,0.099,0.256,0.187,0.357,0.34
					c0.126,0.131,0.206,0.307,0.282,0.481c0.099,0.164,0.09,0.374,0.154,0.539c0.055,0.171,0.079,0.341,0.107,0.485
					c0.061,0.288,0.141,0.488,0.141,0.488h0.029c0,0,0.047-0.2,0.059-0.515c0.001-0.077,0.002-0.163,0.003-0.252
					c0.013-0.092-0.039-0.181-0.058-0.275C-62.875-5.616-62.911-5.826-63.041-6c-0.105-0.186-0.214-0.364-0.368-0.495
					c-0.126-0.155-0.303-0.229-0.431-0.313c-0.289-0.125-0.496-0.134-0.496-0.134L-64.34-6.913z"/>
			</g>
			<g>
			</g>
			<g>
				<g>
					<defs>
						<path id="SVGID_3_" d="M47.545-6.783c0-1.391-1.129-2.52-2.521-2.52h-93.081c-1.393,0-2.52,1.129-2.52,2.52l-10.078,54.692
							c0,1.392,1.128,2.519,2.52,2.519H55.103c1.393,0,2.52-1.127,2.52-2.519L47.545-6.783z"/>
					</defs>
					<clipPath id="SVGID_4_">
						<use xlink:href="#SVGID_3_"  overflow="visible"/>
					</clipPath>
					<path clip-path="url(#SVGID_4_)" fill="#613436" d="M-68.75,46.983c0,0,122.859-27.272,138.534,0
						c0,0-41.381,14.693-85.384,11.615C-59.603,55.523-67.879,54.561-68.75,46.983z"/>
				</g>
			</g>
			<g opacity="0.35">
				<g>
					<path fill="#E8585E" d="M5.207,50.742c0-2.65-2.147-4.799-4.799-4.799c-2.65,0-4.799,2.147-4.799,4.799
						c0,2.65,2.148,4.799,4.799,4.799C3.059,55.541,5.207,53.394,5.207,50.742z"/>
					<g>
						<path fill="#FFFFFF" d="M0.41,54.249c0,0,0.357,0.009,0.889-0.079c0.528-0.089,1.241-0.305,1.848-0.758
							c0.295-0.229,0.592-0.492,0.764-0.815c0.182-0.313,0.261-0.655,0.275-0.937c0.044-0.57-0.127-0.921-0.108-0.919l-0.054,0.002
							c0,0-0.033,0.09-0.073,0.24c-0.023,0.073-0.045,0.164-0.064,0.266c-0.017,0.103-0.082,0.208-0.111,0.328
							c-0.031,0.12-0.074,0.245-0.146,0.366c-0.064,0.123-0.105,0.262-0.197,0.382c-0.123,0.271-0.327,0.525-0.556,0.763
							c-0.483,0.459-1.133,0.732-1.622,0.903c-0.498,0.16-0.849,0.205-0.849,0.205L0.41,54.249z"/>
					</g>
				</g>
			</g>
			<path fill="#613436" d="M-14.524,43.521c0,0-1.364-4.783-0.568-6.721c0.796-1.936-0.909-3.188-2.728-3.188h0.114
				c-1.818,0-3.523,1.253-2.727,3.188c0.795,1.938-0.568,6.721-0.568,6.721"/>
			<g>
				<g>
					<path fill="#BB202C" d="M5.207,52.248c0-2.651-2.147-4.8-4.799-4.8c-2.65,0-4.799,2.147-4.799,4.8
						c0,2.649,2.148,4.799,4.799,4.799C3.059,57.047,5.207,54.897,5.207,52.248z"/>
					<g>
						<path fill="#F3F6DD" d="M0.41,55.754c0,0,0.357,0.009,0.889-0.079c0.528-0.089,1.24-0.305,1.848-0.757
							c0.294-0.229,0.592-0.492,0.764-0.815c0.182-0.314,0.261-0.655,0.275-0.937c0.045-0.57-0.127-0.921-0.108-0.919l-0.054,0.002
							c0,0-0.033,0.09-0.073,0.24c-0.023,0.074-0.045,0.164-0.064,0.266c-0.017,0.104-0.082,0.208-0.111,0.327
							c-0.031,0.121-0.074,0.246-0.146,0.367c-0.064,0.123-0.105,0.262-0.197,0.382c-0.123,0.271-0.327,0.525-0.557,0.762
							c-0.481,0.459-1.132,0.732-1.621,0.903c-0.498,0.16-0.849,0.205-0.849,0.205L0.41,55.754z"/>
					</g>
				</g>
			</g>
			<g>
				<path fill="#FFFFFF" d="M-17.611,33.818c0,0,0.203,0.063,0.484,0.206c0.144,0.063,0.3,0.158,0.468,0.258
					c0.172,0.092,0.324,0.234,0.491,0.353c0.074,0.07,0.139,0.149,0.207,0.222c0.061,0.077,0.148,0.132,0.194,0.212
					c0.054,0.075,0.096,0.154,0.152,0.22c0.049,0.068,0.121,0.123,0.144,0.194c0.123,0.267,0.251,0.457,0.251,0.457l0.029-0.005
					c0,0-0.001-0.212-0.07-0.55c-0.014-0.086-0.075-0.155-0.116-0.244c-0.044-0.087-0.108-0.167-0.165-0.256
					c-0.129-0.165-0.316-0.295-0.483-0.434c-0.368-0.237-0.753-0.435-1.063-0.521c-0.305-0.104-0.515-0.139-0.515-0.139
					L-17.611,33.818z"/>
			</g>
			<path fill="#613436" d="M23.274,42.649c0,0-1.262-6.604-0.525-9.276c0.737-2.672-0.843-4.401-2.522-4.401h0.104
				c-1.683,0-3.26,1.729-2.523,4.401c0.737,2.672-0.525,9.276-0.525,9.276"/>
			<g>
				<path fill="#FFFFFF" d="M22.022,33.033c0,0,0.04-0.256,0.054-0.646c0.013-0.389-0.004-0.916-0.161-1.43
					c-0.069-0.258-0.187-0.515-0.358-0.717c-0.086-0.1-0.187-0.188-0.287-0.256c-0.114-0.05-0.217-0.106-0.318-0.133
					c-0.421-0.097-0.677,0.053-0.675,0.024l0.002,0.029c0,0,0.064,0.013,0.176,0.036c0.111,0.014,0.258,0.058,0.421,0.127
					c0.159,0.075,0.314,0.198,0.462,0.358c0.133,0.171,0.271,0.371,0.358,0.604c0.188,0.461,0.243,0.976,0.279,1.354
					c0.03,0.384,0.019,0.643,0.019,0.643L22.022,33.033z"/>
			</g>
			<path fill="#613436" d="M13.723,38.003c0,0-0.914-4.783-0.382-6.72c0.533-1.937-0.609-3.189-1.826-3.189h0.074
				c-1.218,0-2.359,1.254-1.827,3.189c0.532,1.937-0.381,6.72-0.381,6.72"/>
			<g>
				<path fill="#FFFFFF" d="M13.221,30.392c0,0,0.007-0.172-0.043-0.426c-0.014-0.13-0.065-0.271-0.11-0.43
					c-0.066-0.147-0.127-0.316-0.224-0.464c-0.104-0.143-0.181-0.315-0.325-0.41c-0.13-0.107-0.248-0.217-0.384-0.25
					c-0.259-0.087-0.432-0.104-0.432-0.104l-0.01,0.027c0,0,0.129,0.136,0.323,0.273c0.109,0.054,0.184,0.185,0.307,0.265
					c0.121,0.086,0.215,0.215,0.329,0.329c0.417,0.504,0.539,1.188,0.539,1.188H13.221z"/>
			</g>
			<path fill="#613436" d="M54.382,40.617c0,0-0.912-4.784-0.38-6.72c0.533-1.938-0.61-3.189-1.828-3.189h0.076
				c-1.218,0-2.36,1.253-1.827,3.189c0.532,1.936-0.381,6.72-0.381,6.72"/>
			<g>
				<path fill="#FFFFFF" d="M53.789,32.756c0,0,0.002-0.162-0.047-0.402c-0.017-0.122-0.062-0.259-0.113-0.405
					c-0.053-0.146-0.141-0.292-0.225-0.438c-0.116-0.121-0.199-0.293-0.354-0.361c-0.143-0.08-0.275-0.174-0.41-0.173
					c-0.265-0.021-0.426,0.011-0.426,0.011l-0.002,0.028c0,0,0.151,0.1,0.355,0.181c0.11,0.023,0.193,0.143,0.318,0.189
					c0.121,0.061,0.213,0.181,0.334,0.27c0.09,0.118,0.188,0.237,0.256,0.364c0.063,0.131,0.131,0.25,0.168,0.363
					c0.088,0.22,0.115,0.379,0.115,0.379L53.789,32.756z"/>
			</g>
			<path fill="#613436" d="M-32.405,42.068c0,0-0.85-5.177-0.353-7.271c0.496-2.096-0.568-3.451-1.702-3.451h0.07
				c-1.135,0-2.198,1.355-1.701,3.451c0.496,2.096-0.354,7.271-0.354,7.271"/>
			<g>
				<path fill="#FFFFFF" d="M-34.426,31.715c0,0,0.2,0.038,0.45,0.191c0.11,0.099,0.257,0.187,0.357,0.34
					c0.127,0.13,0.206,0.307,0.283,0.481c0.099,0.164,0.09,0.374,0.154,0.539c0.055,0.172,0.079,0.341,0.106,0.485
					c0.063,0.288,0.142,0.488,0.142,0.488h0.029c0,0,0.047-0.2,0.059-0.515c0.001-0.077,0.002-0.162,0.003-0.253
					c0.013-0.091-0.039-0.18-0.058-0.274c-0.061-0.188-0.096-0.398-0.228-0.573c-0.104-0.185-0.213-0.363-0.368-0.494
					c-0.125-0.154-0.303-0.229-0.431-0.313c-0.289-0.124-0.496-0.133-0.496-0.133L-34.426,31.715z"/>
			</g>
			<path fill="#613436" d="M-37.631,45.845c0,0-0.852-5.178-0.355-7.271c0.497-2.097-0.566-3.452-1.702-3.452h0.072
				c-1.134,0-2.197,1.355-1.701,3.452c0.495,2.094-0.354,7.271-0.354,7.271"/>
			<g>
				<path fill="#FFFFFF" d="M-38.132,37.979c0,0,0.083-0.822-0.247-1.605c-0.081-0.192-0.178-0.387-0.316-0.536
					c-0.073-0.069-0.127-0.155-0.212-0.2c-0.081-0.048-0.147-0.105-0.226-0.134c-0.296-0.142-0.521-0.099-0.515-0.114l-0.008,0.027
					c-0.005,0.011,0.187,0.1,0.401,0.283c0.214,0.182,0.473,0.438,0.666,0.774c0.372,0.684,0.427,1.506,0.427,1.506
					S-38.132,37.979-38.132,37.979z"/>
			</g>
			<path fill="#613436" d="M-53.605,47.159c0,0-0.852-3.007-0.354-4.226c0.496-1.218-0.567-2.005-1.702-2.005h0.071
				c-1.135,0-2.197,0.787-1.701,2.005c0.496,1.219-0.354,4.226-0.354,4.226"/>
			<g>
				<path fill="#FFFFFF" d="M-54.215,42.741c0,0,0.08-0.14,0.104-0.383c0.016-0.062-0.002-0.126-0.003-0.197
					c-0.001-0.073-0.012-0.147-0.048-0.219c-0.044-0.157-0.139-0.295-0.262-0.416c-0.101-0.149-0.261-0.207-0.395-0.289
					c-0.07-0.032-0.133-0.086-0.205-0.085c-0.069-0.011-0.136-0.02-0.196-0.027c-0.244-0.024-0.404-0.002-0.404-0.002l-0.004,0.029
					c0,0,0.139,0.102,0.343,0.193c0.103,0.046,0.229,0.083,0.341,0.151c0.104,0.077,0.273,0.092,0.363,0.198
					c0.114,0.085,0.211,0.186,0.264,0.31c0.041,0.055,0.056,0.117,0.068,0.179c0.012,0.061,0.041,0.117,0.036,0.174
					c0.021,0.224-0.03,0.374-0.03,0.374L-54.215,42.741z"/>
			</g>
		</g>
		<g>
			<g>
			</g>
			<g>
			</g>
			<g>
			</g>
			<g>
			</g>
		</g>
	</g>
</symbol>
<g id="Layer_1" display="none">
	<g display="inline">
		<path fill="#EABF8C" d="M272.009,148.154c0,2.785-2.257,5.043-5.043,5.043H80.667c-2.786,0-5.043-2.259-5.043-5.043L55.453,38.691
			c0-2.785,2.257-5.042,5.043-5.042h226.643c2.784,0,5.044,2.257,5.044,5.042L272.009,148.154z"/>
		<path fill="#E9BB8B" d="M293.27,246.899c0,3.21-2.603,5.813-5.813,5.813H60.176c-3.21,0-5.813-2.604-5.813-5.813L31.112,127.736
			c0-3.21,2.603-5.813,5.813-5.813h273.784c3.211,0,5.813,2.603,5.813,5.813L293.27,246.899z"/>
		<g>
			<g>
				<defs>
					<path id="SVGID_5_" d="M293.27,246.899c0,3.21-2.603,5.813-5.813,5.813H60.176c-3.21,0-5.813-2.604-5.813-5.813L31.112,127.736
						c0-3.21,2.603-5.813,5.813-5.813h273.784c3.211,0,5.813,2.603,5.813,5.813L293.27,246.899z"/>
				</defs>
				<clipPath id="SVGID_6_">
					<use xlink:href="#SVGID_5_"  overflow="visible"/>
				</clipPath>
				<path clip-path="url(#SVGID_6_)" fill="#FFF6D8" d="M22.393,139.943c0,0,186.592,8.137,211.006,5.813
					c24.413-2.325,93.005-5.813,93.005-5.813v9.607c0,0-112.77,7.83-166.828,4.343c-11.832-0.765-132.533-8.72-137.183-6.976
					C17.742,148.662,22.393,139.943,22.393,139.943z"/>
			</g>
			<g>
				<defs>
					<path id="SVGID_7_" d="M293.27,246.899c0,3.21-2.603,5.813-5.813,5.813H60.176c-3.21,0-5.813-2.604-5.813-5.813L31.112,127.736
						c0-3.21,2.603-5.813,5.813-5.813h273.784c3.211,0,5.813,2.603,5.813,5.813L293.27,246.899z"/>
				</defs>
				<clipPath id="SVGID_8_">
					<use xlink:href="#SVGID_7_"  overflow="visible"/>
				</clipPath>
				<path clip-path="url(#SVGID_8_)" fill="#FFF6D8" d="M31.112,164.938c0,0,271.46,26.739,285.41,6.976v7.279
					c0,0-140.67,1.469-169.153,0c-28.482-1.467-116.257-11.35-116.257-11.35V164.938z"/>
			</g>
			<g>
				<defs>
					<path id="SVGID_9_" d="M293.27,246.899c0,3.21-2.603,5.813-5.813,5.813H60.176c-3.21,0-5.813-2.604-5.813-5.813L31.112,127.736
						c0-3.21,2.603-5.813,5.813-5.813h273.784c3.211,0,5.813,2.603,5.813,5.813L293.27,246.899z"/>
				</defs>
				<clipPath id="SVGID_10_">
					<use xlink:href="#SVGID_9_"  overflow="visible"/>
				</clipPath>
				<path clip-path="url(#SVGID_10_)" fill="#FFF6D8" d="M38.087,193.421c0,0,206.938,12.623,274.947,8.719l6.977,2.906
					c0,0-27.32,13.369-204.611,3.488c-50.199-2.799-74.404-8.72-77.312-8.72L38.087,193.421L38.087,193.421z"/>
			</g>
			<g>
				<defs>
					<path id="SVGID_11_" d="M293.27,246.899c0,3.21-2.603,5.813-5.813,5.813H60.176c-3.21,0-5.813-2.604-5.813-5.813
						L31.112,127.736c0-3.21,2.603-5.813,5.813-5.813h273.784c3.211,0,5.813,2.603,5.813,5.813L293.27,246.899z"/>
				</defs>
				<clipPath id="SVGID_12_">
					<use xlink:href="#SVGID_11_"  overflow="visible"/>
				</clipPath>
				<path clip-path="url(#SVGID_12_)" fill="#FFF6D8" d="M41.575,220.16c0,0,278.435,18.602,287.734,4.068v14.531
					c0,0-285.409-12.205-287.734-3.486V220.16L41.575,220.16z"/>
			</g>
		</g>
		<path fill="#F5978E" d="M240.939,129.434c0,0-1.83,9.575-0.764,13.45s-1.219,6.381-3.658,6.381h0.152
			c-2.438,0-4.726-2.508-3.657-6.381c1.065-3.875-0.763-13.45-0.763-13.45"/>
		<path fill="#F5978E" d="M310.045,123.622c0,0-2.524,13.217-1.052,18.566c1.473,5.351-1.684,8.812-5.051,8.812h0.211
			c-3.367,0-6.522-3.461-5.05-8.812c1.473-5.349-1.053-18.566-1.053-18.566"/>
		<path fill="#F5978E" d="M229.313,123.622c0,0-1.829,9.574-0.764,13.449c1.066,3.875-1.221,6.384-3.658,6.384h0.153
			c-2.438,0-4.726-2.509-3.657-6.384c1.064-3.875-0.763-13.449-0.763-13.449"/>
		<path fill="#F5978E" d="M211.723,129.434c0,0-2.729,9.575-1.138,13.45c1.593,3.875-1.818,6.381-5.459,6.381h0.229
			c-3.641,0-7.051-2.508-5.458-6.381c1.591-3.875-1.137-13.45-1.137-13.45"/>
		<path fill="#F5978E" d="M276.246,122.459c0,0-2.729,9.574-1.137,13.449c1.591,3.875-1.82,6.384-5.459,6.384h0.228
			c-3.639,0-7.05-2.51-5.458-6.384c1.594-3.875-1.136-13.449-1.136-13.449"/>
		<path fill="#F5978E" d="M194.285,123.041c0,0-2.729,9.574-1.137,13.449c1.592,3.875-1.819,6.382-5.459,6.382h0.229
			c-3.64,0-7.051-2.508-5.458-6.382c1.591-3.875-1.137-13.449-1.137-13.449"/>
		<path fill="#F5978E" d="M171.034,128.853c0,0-2.729,9.574-1.137,13.449s-1.82,6.382-5.459,6.382h0.228
			c-3.639,0-7.05-2.507-5.458-6.382s-1.137-13.449-1.137-13.449"/>
		<path fill="#F5978E" d="M153.594,128.853c0,0-2.261,11.732-0.94,16.482c1.319,4.75-1.508,7.822-4.522,7.822h0.188
			c-3.015,0-5.841-3.072-4.522-7.822c1.319-4.75-0.941-16.482-0.941-16.482"/>
		<path fill="#F5978E" d="M136.156,123.622c0,0-2.261,10.361-0.941,14.554c1.319,4.195-1.508,6.908-4.521,6.908h0.188
			c-3.015,0-5.841-2.711-4.521-6.908c1.319-4.192-0.942-14.554-0.942-14.554"/>
		<path fill="#F5978E" d="M52.125,127.691c0,0-1.702,10.361-0.709,14.555c0.994,4.193-1.135,6.906-3.404,6.906h0.141
			c-2.271,0-4.398-2.713-3.404-6.906c0.993-4.194-0.71-14.555-0.71-14.555"/>
		<path fill="#F5978E" d="M62.006,123.041c0,0-1.702,10.361-0.709,14.555s-1.136,6.907-3.405,6.907h0.142
			c-2.27,0-4.398-2.713-3.404-6.907c0.993-4.194-0.709-14.555-0.709-14.555"/>
		<g>
			<g>
				<defs>
					<path id="SVGID_13_" d="M293.27,246.899c0,3.21-2.603,5.813-5.813,5.813H60.176c-3.21,0-5.813-2.604-5.813-5.813
						L31.112,127.736c0-3.21,2.603-5.813,5.813-5.813h273.784c3.211,0,5.813,2.603,5.813,5.813L293.27,246.899z"/>
				</defs>
				<clipPath id="SVGID_14_">
					<use xlink:href="#SVGID_13_"  overflow="visible"/>
				</clipPath>
				<path clip-path="url(#SVGID_14_)" fill="#F5978E" d="M27.209,126.419c0,0,264.125,31.254,299.283-6.979
					C326.492,119.441,62.944,63.231,27.209,126.419z"/>
			</g>
		</g>
		<g opacity="0.25">
			<circle fill="#E8585E" cx="71.858" cy="122.56" r="5.287"/>
			<path fill="#E8585E" d="M71.857,118.726c0,0,4.187,0.205,4.014,3.833"/>
			<circle fill="#E8585E" cx="95.109" cy="122.56" r="5.287"/>
			<path fill="#E8585E" d="M95.108,118.726c0,0,4.187,0.205,4.014,3.833"/>
			<circle fill="#E8585E" cx="118.36" cy="122.56" r="5.288"/>
			<path fill="#E8585E" d="M118.36,118.726c0,0,4.187,0.205,4.014,3.833"/>
			<circle fill="#E8585E" cx="141.611" cy="122.56" r="5.288"/>
			<path fill="#E8585E" d="M141.611,118.726c0,0,4.187,0.205,4.013,3.833"/>
			<circle fill="#E8585E" cx="164.863" cy="122.56" r="5.288"/>
			<path fill="#E8585E" d="M164.863,118.726c0,0,4.187,0.205,4.013,3.833"/>
			<circle fill="#E8585E" cx="188.114" cy="122.56" r="5.287"/>
			<path fill="#E8585E" d="M188.115,118.726c0,0,4.185,0.205,4.013,3.833"/>
			<circle fill="#E8585E" cx="211.365" cy="122.56" r="5.288"/>
			<path fill="#E8585E" d="M211.366,118.726c0,0,4.186,0.205,4.014,3.833"/>
			<circle fill="#E8585E" cx="234.617" cy="122.56" r="5.287"/>
			<path fill="#E8585E" d="M234.616,118.726c0,0,4.188,0.205,4.015,3.833"/>
			<circle fill="#E8585E" cx="257.868" cy="122.56" r="5.287"/>
			<path fill="#E8585E" d="M257.869,118.726c0,0,4.187,0.205,4.013,3.833"/>
		</g>
		<path fill="#F5978E" d="M240.939,129.434c0,0-1.83,9.575-0.764,13.45s-1.219,6.381-3.658,6.381h0.152
			c-2.438,0-4.726-2.508-3.657-6.381c1.065-3.875-0.763-13.45-0.763-13.45"/>
		<path fill="#F5978E" d="M87.583,123.895c0,0-1.702,6.02-0.709,8.456c0.994,2.437-1.135,4.014-3.406,4.014h0.143
			c-2.271,0-4.399-1.577-3.405-4.014c0.993-2.437-0.709-8.456-0.709-8.456"/>
		<path fill="#F5978E" d="M98.046,127.383c0,0-1.703,6.019-0.709,8.456c0.993,2.438-1.136,4.014-3.405,4.014h0.142
			c-2.27,0-4.399-1.577-3.405-4.014c0.993-2.437-0.709-8.456-0.709-8.456"/>
		<path fill="#F5978E" d="M109.671,125.639c0,0-1.702,6.019-0.709,8.456c0.994,2.438-1.135,4.014-3.405,4.014h0.142
			c-2.271,0-4.399-1.577-3.405-4.014c0.993-2.437-0.709-8.456-0.709-8.456"/>
		<g>
			<circle fill="#E8585E" cx="71.858" cy="120.235" r="5.287"/>
			<g>
				<path fill="#FFFFFF" d="M71.859,116.372c0,0,0.394-0.01,0.979,0.087c0.582,0.098,1.367,0.336,2.035,0.834
					c0.325,0.251,0.653,0.542,0.842,0.898c0.2,0.347,0.287,0.723,0.304,1.032c0.049,0.628-0.142,1.014-0.12,1.013l-0.059-0.003
					c0,0-0.035-0.099-0.079-0.264c-0.026-0.082-0.051-0.181-0.072-0.293c-0.019-0.113-0.09-0.229-0.123-0.361
					c-0.034-0.133-0.082-0.271-0.16-0.404c-0.07-0.136-0.116-0.289-0.217-0.421c-0.135-0.299-0.36-0.579-0.613-0.84
					c-0.531-0.506-1.248-0.806-1.787-0.995c-0.549-0.177-0.935-0.228-0.935-0.228L71.859,116.372z"/>
			</g>
			<circle fill="#E8585E" cx="95.109" cy="120.235" r="5.287"/>
			<g>
				<path fill="#FFFFFF" d="M95.11,116.372c0,0,0.394-0.01,0.979,0.087c0.582,0.098,1.367,0.336,2.035,0.834
					c0.325,0.251,0.653,0.542,0.842,0.898c0.2,0.347,0.287,0.723,0.304,1.032c0.049,0.628-0.142,1.014-0.12,1.013l-0.059-0.003
					c0,0-0.035-0.099-0.079-0.264c-0.026-0.082-0.051-0.181-0.072-0.293c-0.019-0.113-0.09-0.229-0.123-0.361
					c-0.034-0.133-0.082-0.271-0.16-0.404c-0.07-0.136-0.116-0.289-0.217-0.421c-0.135-0.299-0.36-0.579-0.613-0.84
					c-0.531-0.506-1.248-0.806-1.787-0.995c-0.549-0.177-0.935-0.228-0.935-0.228L95.11,116.372z"/>
			</g>
			<circle fill="#E8585E" cx="118.36" cy="120.235" r="5.288"/>
			<g>
				<path fill="#FFFFFF" d="M118.362,116.372c0,0,0.394-0.01,0.979,0.087c0.582,0.098,1.367,0.336,2.035,0.834
					c0.325,0.252,0.652,0.542,0.843,0.899c0.199,0.347,0.286,0.723,0.303,1.032c0.049,0.628-0.141,1.014-0.12,1.013l-0.058-0.003
					c0,0-0.036-0.099-0.081-0.264c-0.026-0.083-0.05-0.182-0.071-0.293c-0.019-0.113-0.09-0.229-0.123-0.361
					c-0.034-0.133-0.082-0.271-0.16-0.404c-0.07-0.136-0.116-0.289-0.217-0.421c-0.136-0.299-0.361-0.579-0.613-0.84
					c-0.531-0.505-1.248-0.806-1.787-0.995c-0.549-0.177-0.935-0.227-0.935-0.227L118.362,116.372z"/>
			</g>
			<circle fill="#E8585E" cx="141.611" cy="120.235" r="5.288"/>
			<g>
				<path fill="#FFFFFF" d="M141.613,116.372c0,0,0.394-0.01,0.979,0.087c0.582,0.098,1.367,0.336,2.035,0.834
					c0.324,0.252,0.652,0.542,0.843,0.899c0.199,0.347,0.286,0.723,0.303,1.032c0.049,0.628-0.142,1.014-0.12,1.013l-0.058-0.003
					c0,0-0.036-0.099-0.08-0.264c-0.026-0.083-0.051-0.182-0.072-0.293c-0.019-0.113-0.09-0.229-0.123-0.361
					c-0.034-0.133-0.082-0.271-0.16-0.404c-0.07-0.136-0.116-0.289-0.217-0.421c-0.135-0.299-0.36-0.579-0.613-0.84
					c-0.531-0.505-1.248-0.806-1.787-0.995c-0.549-0.177-0.935-0.227-0.935-0.227L141.613,116.372z"/>
			</g>
			<circle fill="#E8585E" cx="164.863" cy="120.235" r="5.288"/>
			<g>
				<path fill="#FFFFFF" d="M164.865,116.372c0,0,0.394-0.01,0.979,0.087c0.582,0.098,1.367,0.336,2.035,0.834
					c0.325,0.252,0.652,0.542,0.843,0.899c0.199,0.347,0.286,0.723,0.303,1.032c0.049,0.628-0.141,1.014-0.119,1.013l-0.059-0.003
					c0,0-0.036-0.099-0.08-0.264c-0.025-0.083-0.05-0.182-0.071-0.293c-0.019-0.113-0.09-0.229-0.123-0.361
					c-0.033-0.133-0.081-0.271-0.16-0.404c-0.069-0.136-0.116-0.289-0.217-0.421c-0.135-0.299-0.36-0.579-0.612-0.84
					c-0.531-0.505-1.248-0.806-1.787-0.995c-0.548-0.177-0.935-0.227-0.935-0.227L164.865,116.372z"/>
			</g>
			<circle fill="#E8585E" cx="188.114" cy="120.235" r="5.287"/>
			<g>
				<path fill="#FFFFFF" d="M188.117,116.372c0,0,0.394-0.01,0.979,0.087c0.582,0.099,1.366,0.336,2.034,0.835
					c0.324,0.251,0.652,0.542,0.843,0.898c0.198,0.347,0.285,0.723,0.303,1.032c0.049,0.628-0.141,1.014-0.119,1.013l-0.059-0.003
					c0,0-0.036-0.099-0.08-0.264c-0.025-0.083-0.051-0.182-0.071-0.293c-0.02-0.113-0.09-0.229-0.123-0.361
					c-0.034-0.132-0.082-0.271-0.16-0.404c-0.07-0.136-0.116-0.289-0.217-0.421c-0.136-0.299-0.36-0.579-0.613-0.84
					c-0.529-0.506-1.247-0.807-1.786-0.995c-0.549-0.177-0.935-0.227-0.935-0.227L188.117,116.372z"/>
			</g>
			<circle fill="#E8585E" cx="211.365" cy="120.235" r="5.288"/>
			<g>
				<path fill="#FFFFFF" d="M211.368,116.372c0,0,0.395-0.01,0.979,0.087c0.582,0.099,1.366,0.336,2.034,0.834
					c0.325,0.252,0.652,0.542,0.844,0.899c0.198,0.347,0.285,0.723,0.303,1.032c0.049,0.628-0.14,1.014-0.119,1.013l-0.059-0.003
					c0,0-0.036-0.099-0.08-0.264c-0.025-0.083-0.051-0.182-0.071-0.293c-0.019-0.113-0.09-0.229-0.123-0.361
					c-0.034-0.132-0.082-0.271-0.16-0.404c-0.069-0.136-0.116-0.289-0.218-0.421c-0.135-0.299-0.36-0.58-0.612-0.84
					c-0.529-0.505-1.248-0.806-1.787-0.995c-0.548-0.177-0.935-0.227-0.935-0.227L211.368,116.372z"/>
			</g>
			<circle fill="#E8585E" cx="234.617" cy="120.235" r="5.287"/>
			<g>
				<path fill="#FFFFFF" d="M234.618,116.372c0,0,0.395-0.01,0.98,0.087c0.581,0.098,1.365,0.336,2.034,0.834
					c0.324,0.252,0.652,0.542,0.844,0.899c0.198,0.347,0.286,0.723,0.303,1.032c0.049,0.628-0.14,1.014-0.119,1.013l-0.059-0.003
					c0,0-0.036-0.099-0.08-0.264c-0.025-0.082-0.05-0.181-0.071-0.293c-0.019-0.113-0.09-0.229-0.123-0.361
					c-0.034-0.133-0.082-0.271-0.16-0.404c-0.069-0.136-0.116-0.289-0.217-0.421c-0.136-0.299-0.361-0.579-0.613-0.84
					c-0.53-0.506-1.249-0.807-1.787-0.995c-0.549-0.177-0.936-0.227-0.936-0.227L234.618,116.372z"/>
			</g>
			<circle fill="#E8585E" cx="257.868" cy="120.235" r="5.287"/>
			<g>
				<path fill="#FFFFFF" d="M257.871,116.372c0,0,0.395-0.01,0.979,0.087c0.582,0.099,1.366,0.336,2.034,0.834
					c0.324,0.252,0.652,0.542,0.843,0.899c0.198,0.347,0.287,0.723,0.303,1.032c0.049,0.628-0.14,1.014-0.119,1.013l-0.059-0.003
					c0,0-0.036-0.099-0.08-0.264c-0.025-0.083-0.05-0.182-0.071-0.293c-0.018-0.113-0.09-0.229-0.123-0.361
					c-0.034-0.132-0.082-0.271-0.16-0.404c-0.069-0.136-0.115-0.289-0.217-0.421c-0.136-0.299-0.36-0.58-0.612-0.84
					c-0.53-0.505-1.248-0.806-1.786-0.995c-0.549-0.177-0.936-0.227-0.936-0.227L257.871,116.372z"/>
			</g>
		</g>
		<g>
			<path fill="#FFFFFF" d="M307.542,142.871c0,0,0.08,0.512,0.106,1.291c0.025,0.777-0.008,1.834-0.322,2.861
				c-0.073,0.26-0.16,0.516-0.284,0.758c-0.095,0.254-0.271,0.467-0.423,0.684c-0.177,0.195-0.385,0.365-0.583,0.502
				c-0.229,0.099-0.435,0.213-0.638,0.266c-0.209,0.04-0.402,0.053-0.566,0.072c-0.166,0.002-0.311-0.032-0.427-0.051
				c-0.233-0.039-0.358-0.072-0.358-0.072l0.006-0.059c0,0,0.133-0.033,0.352-0.074c0.106-0.029,0.24-0.037,0.384-0.074
				c0.142-0.055,0.291-0.125,0.457-0.178c0.161-0.068,0.311-0.193,0.478-0.291c0.135-0.146,0.306-0.264,0.438-0.436
				c0.279-0.33,0.553-0.734,0.729-1.201c0.376-0.92,0.485-1.953,0.558-2.711c0.061-0.768,0.038-1.283,0.038-1.283L307.542,142.871z"
				/>
		</g>
		<g>
			<path fill="#FFFFFF" d="M270.924,140.977c0,0,0.39-0.063,0.901-0.321c0.512-0.25,1.129-0.723,1.45-1.375
				c0.08-0.162,0.13-0.337,0.188-0.5c0.027-0.178,0.078-0.342,0.102-0.509c0.052-0.333,0.109-0.648,0.119-0.931
				c0.016-0.14,0.037-0.271,0.032-0.388c0.002-0.117,0.009-0.22,0.021-0.307c0.015-0.173,0.033-0.276,0.033-0.276l0.057-0.012
				c0,0,0.047,0.09,0.111,0.254c0.06,0.166,0.172,0.402,0.207,0.708c0.018,0.153,0.037,0.319,0.058,0.496
				c0.002,0.179-0.027,0.367-0.041,0.563c-0.043,0.192-0.113,0.389-0.181,0.584c-0.097,0.186-0.186,0.379-0.305,0.552
				c-0.465,0.715-1.2,1.161-1.773,1.327c-0.571,0.189-0.972,0.193-0.973,0.193L270.924,140.977z"/>
		</g>
		<g>
			<path fill="#FFFFFF" d="M239.933,144.667c0,0,0.01,0.346-0.081,0.854c-0.082,0.511-0.294,1.185-0.668,1.792
				c-0.177,0.309-0.394,0.604-0.639,0.838c-0.251,0.229-0.531,0.389-0.78,0.488c-0.249,0.105-0.469,0.154-0.626,0.169
				c-0.154,0.022-0.243,0.024-0.243,0.024l-0.021-0.056c0,0,0.066-0.065,0.185-0.157c0.058-0.051,0.129-0.104,0.212-0.16
				c0.083-0.058,0.159-0.148,0.258-0.217c0.099-0.07,0.199-0.152,0.294-0.252c0.096-0.099,0.218-0.173,0.314-0.287
				c0.224-0.188,0.463-0.401,0.662-0.656c0.411-0.5,0.683-1.11,0.854-1.578c0.171-0.473,0.219-0.807,0.219-0.807L239.933,144.667z"
				/>
		</g>
		<g>
			<path fill="#FFFFFF" d="M228.124,139.354c0,0,0,0.326-0.088,0.81c-0.088,0.482-0.294,1.125-0.685,1.691
				c-0.195,0.279-0.417,0.561-0.694,0.748c-0.27,0.193-0.578,0.288-0.833,0.332c-0.52,0.092-0.857-0.049-0.854-0.033l-0.005-0.059
				c0,0,0.077-0.045,0.206-0.104c0.064-0.033,0.144-0.064,0.23-0.097c0.087-0.035,0.175-0.104,0.277-0.147
				c0.104-0.039,0.206-0.103,0.31-0.177c0.104-0.067,0.222-0.125,0.324-0.215c0.232-0.134,0.46-0.323,0.672-0.537
				c0.411-0.442,0.676-1.021,0.854-1.459c0.168-0.444,0.227-0.761,0.227-0.761L228.124,139.354z"/>
		</g>
		<g>
			<path fill="#FFFFFF" d="M205.243,148.487c0,0,0.513-0.005,1.254-0.171c0.364-0.098,0.791-0.211,1.208-0.417
				c0.218-0.083,0.409-0.229,0.618-0.344c0.179-0.159,0.394-0.28,0.54-0.472l0.234-0.268l0.181-0.3
				c0.137-0.187,0.185-0.417,0.277-0.613c0.098-0.196,0.107-0.419,0.186-0.61c0.075-0.192,0.066-0.396,0.103-0.576
				c0.023-0.182,0.073-0.35,0.065-0.502c0.004-0.152,0.013-0.287,0.025-0.398c0.019-0.225,0.04-0.355,0.04-0.355l0.057-0.01
				c0,0,0.046,0.121,0.106,0.342c0.059,0.223,0.169,0.541,0.166,0.945c-0.007,0.2,0.033,0.422-0.014,0.653
				c-0.041,0.231-0.073,0.481-0.168,0.724c-0.121,0.23-0.198,0.494-0.386,0.7l-0.25,0.325l-0.302,0.279
				c-0.188,0.201-0.438,0.32-0.65,0.476c-0.24,0.108-0.462,0.246-0.701,0.315c-0.461,0.187-0.919,0.25-1.303,0.308
				c-0.774,0.083-1.29,0.028-1.29,0.028L205.243,148.487z"/>
		</g>
		<g>
			<path fill="#FFFFFF" d="M188.108,142.458c0,0,0.402-0.131,0.972-0.406c0.563-0.28,1.299-0.69,1.919-1.229
				c0.305-0.275,0.574-0.576,0.8-0.873c0.113-0.146,0.236-0.279,0.33-0.421c0.094-0.141,0.209-0.264,0.271-0.399
				c0.067-0.133,0.15-0.248,0.216-0.356c0.054-0.114,0.102-0.213,0.141-0.295c0.08-0.167,0.14-0.264,0.14-0.264l0.057,0.009
				c-0.021-0.008,0.083,0.451-0.133,1.102c-0.043,0.164-0.14,0.32-0.217,0.5c-0.071,0.186-0.22,0.332-0.335,0.508
				c-0.272,0.324-0.624,0.604-0.982,0.857c-0.723,0.501-1.516,0.857-2.129,1.051c-0.612,0.197-1.034,0.272-1.034,0.272
				L188.108,142.458z"/>
		</g>
		<g>
			<path fill="#FFFFFF" d="M169.193,143.442c0,0,0.248,0.408,0.28,1.12c-0.009,0.176-0.006,0.371-0.056,0.57
				c-0.024,0.207-0.122,0.406-0.205,0.615c-0.209,0.397-0.51,0.789-0.881,1.09c-0.169,0.176-0.377,0.287-0.565,0.429
				c-0.188,0.147-0.4,0.228-0.598,0.333c-0.202,0.091-0.396,0.177-0.596,0.215c-0.194,0.048-0.378,0.094-0.548,0.137
				c-0.168,0.041-0.333,0.039-0.472,0.057c-0.142,0.016-0.265,0.025-0.366,0.025c-0.203,0.01-0.319,0.004-0.319,0.004l-0.012-0.058
				c0,0,0.103-0.06,0.285-0.146c0.179-0.096,0.442-0.192,0.751-0.326c0.15-0.067,0.315-0.141,0.488-0.219
				c0.176-0.074,0.36-0.143,0.538-0.242c0.185-0.082,0.392-0.146,0.57-0.254c0.182-0.105,0.392-0.187,0.555-0.322
				c0.36-0.236,0.651-0.553,0.872-0.885c0.197-0.344,0.315-0.705,0.353-1.031c0.056-0.66-0.129-1.088-0.129-1.088L169.193,143.442z"
				/>
		</g>
		<g>
			<path fill="#FFFFFF" d="M152.407,147.402c0,0,0.017,0.439-0.074,1.096c-0.093,0.651-0.323,1.525-0.795,2.305
				c-0.127,0.188-0.233,0.393-0.389,0.559c-0.141,0.18-0.292,0.344-0.463,0.479c-0.167,0.141-0.336,0.265-0.522,0.344
				c-0.176,0.094-0.345,0.171-0.513,0.215c-0.658,0.217-1.123,0.125-1.116,0.148l-0.008-0.051c0,0.002,0.101-0.054,0.274-0.129
				c0.087-0.043,0.191-0.086,0.312-0.131c0.119-0.052,0.238-0.143,0.378-0.207c0.143-0.063,0.282-0.154,0.422-0.263
				c0.146-0.099,0.3-0.197,0.438-0.332c0.158-0.108,0.298-0.248,0.441-0.39c0.156-0.133,0.271-0.309,0.407-0.465
				c0.5-0.676,0.785-1.498,0.958-2.117c0.163-0.627,0.196-1.062,0.196-1.063L152.407,147.402z"/>
		</g>
		<g>
			<path fill="#FFFFFF" d="M131.237,144.128c0,0,0.429-0.035,0.991-0.307c0.277-0.135,0.586-0.324,0.859-0.586
				c0.286-0.249,0.521-0.58,0.708-0.931c0.073-0.188,0.178-0.356,0.22-0.554c0.046-0.191,0.127-0.367,0.148-0.556
				c0.099-0.362,0.18-0.708,0.236-1.013c0.082-0.303,0.094-0.564,0.148-0.748c0.04-0.184,0.074-0.291,0.074-0.291l0.059-0.003
				c0,0,0.033,0.104,0.072,0.292c0.037,0.188,0.104,0.457,0.106,0.787c-0.003,0.166-0.006,0.345-0.009,0.533
				c-0.005,0.191-0.067,0.388-0.103,0.594c-0.042,0.205-0.142,0.404-0.227,0.607c-0.075,0.207-0.218,0.392-0.327,0.584
				c-0.25,0.373-0.552,0.713-0.895,0.957c-0.328,0.258-0.689,0.414-1,0.514c-0.625,0.203-1.063,0.177-1.063,0.176L131.237,144.128z"
				/>
		</g>
		<g>
			<path fill="#FFFFFF" d="M108.45,134.341c0,0,0.163,0.264,0.242,0.724c0.042,0.229,0.057,0.513-0.019,0.809
				c-0.059,0.3-0.218,0.601-0.426,0.856s-0.462,0.48-0.729,0.622c-0.142,0.054-0.267,0.142-0.403,0.16
				c-0.133,0.028-0.258,0.054-0.375,0.079c-0.114,0.031-0.227,0.014-0.321,0.02c-0.095,0.002-0.179,0-0.248-0.009
				c-0.137-0.009-0.215-0.025-0.215-0.025l-0.011-0.058c0,0,0.067-0.049,0.183-0.117c0.113-0.079,0.287-0.143,0.476-0.251
				c0.191-0.099,0.412-0.208,0.631-0.333c0.232-0.102,0.468-0.231,0.671-0.403c0.411-0.346,0.579-0.905,0.581-1.332
				c0.012-0.433-0.092-0.716-0.093-0.716L108.45,134.341z"/>
		</g>
		<g>
			<path fill="#FFFFFF" d="M96.604,135.933c0,0,0.214,0.258,0.368,0.741c0.079,0.238,0.134,0.546,0.073,0.878
				c-0.045,0.333-0.227,0.68-0.486,0.929c-0.245,0.271-0.558,0.464-0.855,0.588c-0.303,0.138-0.606,0.138-0.856,0.179
				c-0.125,0.018-0.244-0.008-0.347-0.008c-0.103-0.005-0.19-0.014-0.266-0.027c-0.146-0.019-0.229-0.041-0.229-0.041L94,139.115
				c0,0,0.31-0.164,0.753-0.318c0.214-0.096,0.479-0.172,0.728-0.291c0.262-0.086,0.544-0.19,0.765-0.366
				c0.231-0.167,0.4-0.402,0.473-0.663c0.081-0.257,0.091-0.529,0.057-0.758c-0.061-0.467-0.219-0.755-0.219-0.755L96.604,135.933z"
				/>
		</g>
		<g>
			<path fill="#FFFFFF" d="M86.361,132.739c0,0,0.163,0.281,0.214,0.768c0.021,0.241,0.021,0.541-0.091,0.84
				c-0.101,0.3-0.283,0.602-0.526,0.839c-0.23,0.25-0.509,0.46-0.79,0.592c-0.146,0.055-0.278,0.133-0.421,0.149
				c-0.138,0.026-0.269,0.051-0.389,0.074c-0.118,0.03-0.235,0.008-0.333,0.014c-0.1,0.002-0.186-0.001-0.257-0.011
				c-0.143-0.01-0.224-0.027-0.224-0.027l-0.01-0.058c0,0,0.07-0.049,0.193-0.116c0.121-0.077,0.302-0.143,0.505-0.248
				c0.202-0.101,0.44-0.203,0.678-0.326c0.251-0.097,0.512-0.218,0.734-0.388c0.229-0.166,0.407-0.387,0.526-0.624
				c0.125-0.235,0.178-0.489,0.2-0.709c0.038-0.449-0.063-0.749-0.063-0.749L86.361,132.739z"/>
		</g>
		<g>
			<path fill="#FFFFFF" d="M61.005,138.781c0,0,0.035,0.404,0,1.014c-0.03,0.609-0.175,1.424-0.493,2.201
				c-0.161,0.387-0.36,0.771-0.623,1.082c-0.15,0.139-0.266,0.303-0.436,0.394c-0.163,0.096-0.295,0.213-0.451,0.269
				c-0.595,0.279-1.043,0.205-1.031,0.229l-0.016-0.057c0,0,0.086-0.064,0.234-0.158c0.072-0.053,0.163-0.103,0.262-0.162
				c0.094-0.073,0.192-0.166,0.307-0.243c0.122-0.07,0.217-0.199,0.333-0.304c0.119-0.104,0.223-0.237,0.339-0.363
				c0.236-0.251,0.467-0.553,0.659-0.887c0.372-0.676,0.585-1.444,0.711-2.026c0.12-0.585,0.145-0.985,0.145-0.985h0.061V138.781z"
				/>
		</g>
		<g>
			<path fill="#FFFFFF" d="M48.077,148.416c0,0,0.104-0.013,0.264-0.076c0.167-0.041,0.382-0.172,0.639-0.309
				c0.111-0.093,0.233-0.193,0.362-0.301c0.139-0.094,0.24-0.238,0.353-0.38c0.104-0.147,0.246-0.271,0.325-0.445
				c0.079-0.171,0.16-0.346,0.24-0.521c0.089-0.168,0.153-0.346,0.178-0.541c0.041-0.184,0.081-0.366,0.12-0.541
				c0.047-0.174,0.121-0.334,0.14-0.5c0.031-0.166,0.06-0.322,0.086-0.467c0.126-0.576,0.283-0.978,0.282-0.978h0.059
				c0,0,0.09,0.401,0.118,1.028c0.002,0.156,0.004,0.326,0.006,0.505c0.022,0.183-0.069,0.362-0.104,0.556
				c-0.063,0.188-0.126,0.381-0.191,0.578c-0.054,0.199-0.152,0.387-0.274,0.564c-0.109,0.181-0.22,0.361-0.327,0.539
				c-0.106,0.177-0.28,0.305-0.41,0.451c-0.142,0.139-0.263,0.287-0.431,0.367c-0.152,0.094-0.298,0.182-0.432,0.262
				c-0.296,0.107-0.532,0.207-0.716,0.228c-0.177,0.04-0.277,0.038-0.277,0.038L48.077,148.416z"/>
		</g>
		<g>
			<g>
				<defs>
					<path id="SVGID_15_" d="M272.009,148.154c0,2.785-2.257,5.043-5.043,5.043H80.667c-2.786,0-5.043-2.259-5.043-5.043
						L55.453,38.691c0-2.785,2.257-5.042,5.043-5.042h226.643c2.784,0,5.044,2.257,5.044,5.042L272.009,148.154z"/>
				</defs>
				<clipPath id="SVGID_16_">
					<use xlink:href="#SVGID_15_"  overflow="visible"/>
				</clipPath>
				<path clip-path="url(#SVGID_16_)" fill="#FFF5D6" d="M48.081,57.163c0,0,251.469,10.496,261.965,0v8.834
					c0,0-253.607-4.767-260.458-2.73L48.081,57.163z"/>
			</g>
			<g>
				<defs>
					<path id="SVGID_17_" d="M272.009,148.154c0,2.785-2.257,5.043-5.043,5.043H80.667c-2.786,0-5.043-2.259-5.043-5.043
						L55.453,38.691c0-2.785,2.257-5.042,5.043-5.042h226.643c2.784,0,5.044,2.257,5.044,5.042L272.009,148.154z"/>
				</defs>
				<clipPath id="SVGID_18_">
					<use xlink:href="#SVGID_17_"  overflow="visible"/>
				</clipPath>
				<path clip-path="url(#SVGID_18_)" fill="#FFF5D6" d="M59.469,76.637c0,0,220.127,15.693,238.583,3.487V92.04
					c0,0-230.569-14.24-238.582-6.103L59.469,76.637L59.469,76.637z"/>
			</g>
			<g>
				<defs>
					<path id="SVGID_19_" d="M272.009,148.154c0,2.785-2.257,5.043-5.043,5.043H80.667c-2.786,0-5.043-2.259-5.043-5.043
						L55.453,38.691c0-2.785,2.257-5.042,5.043-5.042h226.643c2.784,0,5.044,2.257,5.044,5.042L272.009,148.154z"/>
				</defs>
				<clipPath id="SVGID_20_">
					<use xlink:href="#SVGID_19_"  overflow="visible"/>
				</clipPath>
				<path clip-path="url(#SVGID_20_)" fill="#FFF5D6" d="M62.006,103.961c0,0,227.646-13.654,230.177,0v5.807
					c0,0-157.858-3.487-184.906,0l-47.808,5.18L62.006,103.961z"/>
			</g>
		</g>
		<g>
			<g>
				<defs>
					<path id="SVGID_21_" d="M272.009,148.154c0,2.785-2.257,5.043-5.043,5.043H80.667c-2.786,0-5.043-2.259-5.043-5.043
						L55.453,38.691c0-2.785,2.257-5.042,5.043-5.042h226.643c2.784,0,5.044,2.257,5.044,5.042L272.009,148.154z"/>
				</defs>
				<clipPath id="SVGID_22_">
					<use xlink:href="#SVGID_21_"  overflow="visible"/>
				</clipPath>
				<path clip-path="url(#SVGID_22_)" fill="#F5978E" d="M39.249,40.545c0,0,245.9,54.584,277.273,0
					c0,0-82.822-29.41-170.894-23.251C57.559,23.451,40.993,25.378,39.249,40.545z"/>
			</g>
		</g>
		<g opacity="0.35">
			<g>
				<circle fill="#E8585E" cx="177.668" cy="33.02" r="9.605"/>
				<g>
					<path fill="#FFFFFF" d="M177.671,26.002c0,0,0.717-0.017,1.78,0.158c0.527,0.103,1.154,0.225,1.788,0.487
						c0.645,0.233,1.3,0.588,1.909,1.029c0.29,0.241,0.604,0.46,0.85,0.75c0.129,0.138,0.263,0.273,0.383,0.416
						c0.102,0.158,0.199,0.313,0.299,0.467c0.199,0.307,0.313,0.642,0.396,0.964c0.043,0.16,0.094,0.313,0.124,0.464
						c0.011,0.154,0.022,0.303,0.033,0.446c0.012,0.285,0.044,0.542,0.007,0.769c-0.033,0.227-0.069,0.422-0.107,0.581
						c-0.063,0.317-0.119,0.49-0.119,0.49l-0.105-0.005c0,0-0.065-0.18-0.146-0.479c-0.047-0.15-0.093-0.33-0.137-0.532
						c-0.038-0.204-0.151-0.418-0.221-0.655c-0.07-0.239-0.157-0.489-0.291-0.733c-0.118-0.251-0.222-0.519-0.391-0.766
						c-0.069-0.132-0.14-0.267-0.209-0.404c-0.097-0.121-0.182-0.252-0.271-0.383c-0.16-0.28-0.413-0.493-0.634-0.738
						c-0.488-0.443-1.044-0.837-1.618-1.12c-0.565-0.302-1.136-0.511-1.628-0.687c-0.996-0.322-1.697-0.411-1.697-0.411
						L177.671,26.002z"/>
				</g>
			</g>
		</g>
		<path fill="#F5978E" d="M147.782,47.474c0,0-2.729,9.574-1.137,13.449s-1.82,6.383-5.458,6.383h0.227
			c-3.639,0-7.05-2.507-5.458-6.383c1.592-3.875-1.137-13.449-1.137-13.449"/>
		<g>
			<g>
				<circle fill="#E8585E" cx="177.668" cy="30.008" r="9.605"/>
				<g>
					<path fill="#FFFFFF" d="M177.671,22.99c0,0,0.717-0.017,1.78,0.158c0.527,0.103,1.154,0.225,1.788,0.487
						c0.645,0.233,1.3,0.588,1.909,1.029c0.29,0.24,0.604,0.46,0.85,0.75c0.129,0.138,0.263,0.273,0.383,0.416
						c0.102,0.158,0.2,0.313,0.299,0.467c0.199,0.307,0.313,0.642,0.396,0.964c0.043,0.16,0.094,0.313,0.124,0.464
						c0.011,0.154,0.022,0.303,0.033,0.446c0.012,0.285,0.044,0.542,0.007,0.769c-0.033,0.227-0.069,0.422-0.107,0.581
						c-0.063,0.317-0.119,0.49-0.119,0.49l-0.105-0.005c0,0-0.065-0.18-0.146-0.479c-0.047-0.15-0.093-0.33-0.137-0.532
						c-0.038-0.204-0.151-0.418-0.221-0.656c-0.07-0.239-0.157-0.488-0.291-0.733c-0.118-0.25-0.222-0.519-0.391-0.766
						c-0.069-0.133-0.14-0.268-0.209-0.404c-0.097-0.121-0.182-0.253-0.271-0.384c-0.16-0.28-0.413-0.493-0.634-0.738
						c-0.488-0.443-1.044-0.836-1.618-1.12c-0.565-0.302-1.136-0.511-1.627-0.687c-0.997-0.322-1.698-0.411-1.698-0.411
						L177.671,22.99z"/>
				</g>
			</g>
		</g>
		<g>
			<path fill="#FFFFFF" d="M141.604,66.891c0,0,0.402-0.13,0.973-0.404c0.563-0.281,1.299-0.691,1.919-1.229
				c0.303-0.276,0.574-0.577,0.799-0.873c0.114-0.146,0.237-0.28,0.33-0.421c0.095-0.141,0.209-0.264,0.272-0.399
				c0.067-0.133,0.15-0.249,0.215-0.357c0.054-0.114,0.102-0.213,0.141-0.295c0.081-0.167,0.14-0.264,0.14-0.264l0.058,0.009
				c-0.021-0.008,0.083,0.452-0.133,1.101c-0.043,0.165-0.14,0.321-0.217,0.5c-0.071,0.187-0.22,0.332-0.335,0.509
				c-0.273,0.324-0.624,0.604-0.982,0.857c-0.723,0.501-1.516,0.856-2.129,1.051c-0.612,0.197-1.034,0.272-1.034,0.272
				L141.604,66.891z"/>
		</g>
		<path fill="#F5978E" d="M223.434,49.217c0,0-2.525,13.217-1.052,18.566c1.474,5.35-1.686,8.811-5.052,8.811h0.21
			c-3.365,0-6.521-3.461-5.049-8.811c1.473-5.349-1.052-18.566-1.052-18.566"/>
		<g>
			<path fill="#FFFFFF" d="M220.93,68.465c0,0,0.079,0.513,0.105,1.292c0.026,0.777-0.007,1.833-0.321,2.861
				c-0.073,0.259-0.16,0.515-0.284,0.757c-0.096,0.255-0.272,0.468-0.424,0.685c-0.177,0.195-0.385,0.365-0.584,0.502
				c-0.229,0.097-0.434,0.212-0.638,0.265c-0.208,0.039-0.402,0.052-0.566,0.072c-0.166,0.002-0.311-0.032-0.427-0.051
				c-0.232-0.039-0.357-0.072-0.357-0.072l0.006-0.058c0,0,0.132-0.034,0.351-0.075c0.108-0.029,0.24-0.037,0.384-0.074
				c0.142-0.054,0.291-0.125,0.458-0.177c0.16-0.069,0.31-0.194,0.478-0.291c0.135-0.146,0.306-0.264,0.438-0.436
				c0.279-0.33,0.554-0.735,0.729-1.201c0.376-0.921,0.486-1.953,0.558-2.713c0.062-0.767,0.038-1.282,0.038-1.282L220.93,68.465z"
				/>
		</g>
		<path fill="#F5978E" d="M204.318,58.518c0,0-1.83,9.574-0.763,13.449c1.065,3.875-1.22,6.383-3.657,6.383h0.15
			c-2.438,0-4.726-2.508-3.657-6.383c1.065-3.875-0.763-13.449-0.763-13.449"/>
		<g>
			<path fill="#FFFFFF" d="M203.312,73.751c0,0,0.01,0.345-0.081,0.854c-0.082,0.511-0.294,1.185-0.668,1.792
				c-0.175,0.309-0.394,0.603-0.639,0.838c-0.251,0.228-0.531,0.389-0.78,0.489c-0.249,0.105-0.469,0.155-0.626,0.169
				c-0.154,0.023-0.243,0.024-0.243,0.024l-0.021-0.055c0,0,0.066-0.065,0.185-0.158c0.058-0.051,0.129-0.104,0.212-0.16
				c0.083-0.057,0.159-0.148,0.258-0.217c0.099-0.07,0.199-0.151,0.294-0.251c0.096-0.099,0.218-0.173,0.314-0.287
				c0.224-0.189,0.463-0.403,0.663-0.656c0.41-0.5,0.682-1.111,0.854-1.579c0.171-0.472,0.219-0.807,0.219-0.807L203.312,73.751z"/>
		</g>
		<path fill="#F5978E" d="M285.697,53.286c0,0-1.828,9.574-0.762,13.449c1.065,3.875-1.221,6.382-3.659,6.382h0.153
			c-2.438,0-4.726-2.507-3.658-6.382c1.065-3.875-0.761-13.449-0.761-13.449"/>
		<g>
			<path fill="#FFFFFF" d="M284.508,69.018c0,0,0,0.326-0.088,0.81c-0.088,0.482-0.295,1.124-0.685,1.691
				c-0.195,0.279-0.417,0.561-0.694,0.748c-0.27,0.194-0.578,0.288-0.833,0.331c-0.52,0.092-0.856-0.049-0.854-0.033l-0.004-0.058
				c0,0,0.076-0.045,0.206-0.104c0.063-0.033,0.143-0.066,0.229-0.098c0.087-0.035,0.175-0.104,0.277-0.147
				c0.104-0.04,0.207-0.103,0.31-0.176c0.105-0.068,0.222-0.125,0.324-0.215c0.233-0.134,0.46-0.323,0.672-0.537
				c0.41-0.443,0.676-1.021,0.854-1.459c0.168-0.445,0.226-0.761,0.226-0.761L284.508,69.018z"/>
		</g>
		<path fill="#F5978E" d="M111.996,50.38c0,0-1.702,10.361-0.708,14.554c0.993,4.194-1.136,6.908-3.406,6.908h0.143
			c-2.271,0-4.398-2.713-3.405-6.908c0.993-4.193-0.709-14.554-0.709-14.554"/>
		<g>
			<path fill="#FFFFFF" d="M107.949,71.104c0,0,0.104-0.013,0.264-0.076c0.167-0.041,0.381-0.172,0.638-0.308
				c0.112-0.093,0.233-0.194,0.362-0.301c0.139-0.093,0.24-0.239,0.353-0.38c0.104-0.148,0.246-0.271,0.324-0.445
				c0.079-0.171,0.16-0.346,0.24-0.52c0.088-0.169,0.153-0.347,0.178-0.541c0.041-0.185,0.081-0.366,0.119-0.542
				c0.048-0.173,0.121-0.333,0.141-0.5c0.031-0.166,0.06-0.322,0.086-0.466c0.126-0.577,0.283-0.978,0.282-0.978h0.059
				c0,0,0.09,0.402,0.118,1.028c0.002,0.157,0.004,0.326,0.006,0.505c0.022,0.183-0.07,0.362-0.104,0.556
				c-0.063,0.188-0.126,0.381-0.191,0.578c-0.054,0.199-0.152,0.387-0.275,0.564c-0.108,0.181-0.219,0.361-0.326,0.539
				c-0.106,0.177-0.28,0.305-0.41,0.451c-0.141,0.139-0.264,0.286-0.431,0.367c-0.153,0.093-0.299,0.181-0.433,0.263
				c-0.296,0.107-0.531,0.207-0.716,0.226c-0.177,0.04-0.277,0.038-0.277,0.038L107.949,71.104z"/>
		</g>
		<path fill="#F5978E" d="M101.534,42.823c0,0-1.703,10.361-0.709,14.554c0.994,4.194-1.135,6.909-3.406,6.909h0.143
			c-2.271,0-4.398-2.714-3.404-6.909c0.992-4.193-0.71-14.554-0.71-14.554"/>
		<g>
			<path fill="#FFFFFF" d="M100.532,58.563c0,0,0.035,0.404,0,1.014c-0.03,0.609-0.175,1.424-0.494,2.202
				c-0.16,0.387-0.359,0.771-0.623,1.082c-0.149,0.138-0.265,0.302-0.435,0.393c-0.162,0.096-0.295,0.213-0.451,0.269
				c-0.595,0.279-1.043,0.205-1.032,0.229l-0.015-0.057c0,0,0.086-0.065,0.233-0.159c0.072-0.052,0.163-0.102,0.263-0.162
				c0.094-0.073,0.191-0.166,0.307-0.244c0.122-0.069,0.216-0.199,0.333-0.302c0.119-0.104,0.222-0.238,0.339-0.364
				c0.236-0.252,0.467-0.553,0.66-0.886c0.372-0.675,0.585-1.445,0.711-2.026c0.12-0.585,0.145-0.987,0.145-0.987h0.06V58.563z"/>
		</g>
		<path fill="#F5978E" d="M69.563,40.19c0,0-1.702,6.019-0.709,8.456c0.994,2.438-1.136,4.014-3.405,4.014h0.142
			c-2.271,0-4.398-1.576-3.404-4.014c0.993-2.437-0.71-8.456-0.71-8.456"/>
		<g>
			<path fill="#FFFFFF" d="M68.341,49.034c0,0,0.163,0.281,0.215,0.768c0.021,0.241,0.021,0.541-0.092,0.84
				c-0.1,0.3-0.282,0.603-0.524,0.839c-0.231,0.25-0.509,0.461-0.79,0.592c-0.146,0.055-0.279,0.133-0.421,0.149
				c-0.139,0.026-0.27,0.051-0.39,0.074c-0.117,0.03-0.234,0.008-0.333,0.014c-0.099,0.002-0.185-0.001-0.257-0.011
				c-0.142-0.01-0.223-0.027-0.223-0.027l-0.01-0.058c0,0,0.069-0.049,0.192-0.116c0.121-0.077,0.302-0.143,0.505-0.248
				c0.202-0.101,0.441-0.203,0.679-0.327c0.251-0.096,0.512-0.217,0.733-0.388c0.229-0.166,0.408-0.387,0.527-0.624
				c0.125-0.235,0.177-0.489,0.2-0.709c0.038-0.449-0.064-0.749-0.064-0.749L68.341,49.034z"/>
		</g>
	</g>
</g>
<g id="Layer_2" display="none">
	<g id="Layer_3" display="inline">
		<g id="XMLID_27_">
			
				<use xlink:href="#cake"  width="149.532" height="118.045" x="-74.766" y="-59.022" transform="matrix(2.0056 0 0 -2.0056 164.8845 140.8062)" overflow="visible"/>
		</g>
	</g>
</g>
<g id="Layer_3_1_">
	<g>
		<g>
			<g>
				<defs>
					<path id="SVGID_23_" d="M266.242,239.055c0,2.804-2.272,5.075-5.077,5.075H62.581c-2.804,0-5.079-2.271-5.079-5.075
						L37.189,134.937c0-2.804,2.271-5.079,5.077-5.079h239.214c2.805,0,5.078,2.275,5.078,5.079L266.242,239.055z"/>
				</defs>
				<clipPath id="SVGID_24_">
					<use xlink:href="#SVGID_23_"  overflow="visible"/>
				</clipPath>
			</g>
			<g>
				<defs>
					<path id="SVGID_25_" d="M266.242,239.055c0,2.804-2.272,5.075-5.077,5.075H62.581c-2.804,0-5.079-2.271-5.079-5.075
						L37.189,134.937c0-2.804,2.271-5.079,5.077-5.079h239.214c2.805,0,5.078,2.275,5.078,5.079L266.242,239.055z"/>
				</defs>
				<clipPath id="SVGID_26_">
					<use xlink:href="#SVGID_25_"  overflow="visible"/>
				</clipPath>
			</g>
			<g>
				<defs>
					<path id="SVGID_27_" d="M247.667,152.778c0,2.433-1.975,4.406-4.408,4.406H80.485c-2.436,0-4.406-1.974-4.406-4.406
						L58.455,57.136c0-2.434,1.972-4.404,4.406-4.404h198.024c2.435,0,4.405,1.971,4.405,4.404L247.667,152.778z"/>
				</defs>
				<clipPath id="SVGID_28_">
					<use xlink:href="#SVGID_27_"  overflow="visible"/>
				</clipPath>
			</g>
			<g>
				<defs>
					<path id="SVGID_29_" d="M247.667,152.778c0,2.433-1.975,4.406-4.408,4.406H80.485c-2.436,0-4.406-1.974-4.406-4.406
						L58.455,57.136c0-2.434,1.972-4.404,4.406-4.404h198.024c2.435,0,4.405,1.971,4.405,4.404L247.667,152.778z"/>
				</defs>
				<clipPath id="SVGID_30_">
					<use xlink:href="#SVGID_29_"  overflow="visible"/>
				</clipPath>
			</g>
		</g>
		<g>
			<path fill="#613436" d="M247.667,152.778c0,2.433-1.975,4.406-4.408,4.406H80.485c-2.436,0-4.406-1.974-4.406-4.406
				L58.455,57.136c0-2.434,1.972-4.404,4.406-4.404h198.024c2.435,0,4.405,1.971,4.405,4.404L247.667,152.778z"/>
			<path fill="#613436" d="M266.242,239.055c0,2.804-2.272,5.075-5.077,5.075H62.581c-2.804,0-5.079-2.271-5.079-5.075
				L37.189,134.937c0-2.804,2.271-5.079,5.077-5.079h239.214c2.805,0,5.078,2.275,5.078,5.079L266.242,239.055z"/>
			<g>
				<defs>
					<path id="SVGID_31_" d="M266.242,239.055c0,2.804-2.272,5.075-5.077,5.075H62.581c-2.804,0-5.079-2.271-5.079-5.075
						L37.189,134.937c0-2.804,2.271-5.079,5.077-5.079h239.214c2.805,0,5.078,2.275,5.078,5.079L266.242,239.055z"/>
				</defs>
				<clipPath id="SVGID_32_">
					<use xlink:href="#SVGID_31_"  overflow="visible"/>
				</clipPath>
			</g>
			<path fill="#F5978E" d="M220.518,136.421c0,0-1.598,8.366-0.668,11.751c0.934,3.386-1.063,5.577-3.194,5.577h0.133
				c-2.13,0-4.128-2.191-3.196-5.577c0.93-3.385-0.664-11.751-0.664-11.751"/>
			<g>
				<defs>
					<path id="SVGID_33_" d="M266.242,239.055c0,2.804-2.272,5.075-5.077,5.075H62.581c-2.804,0-5.079-2.271-5.079-5.075
						L37.189,134.937c0-2.804,2.271-5.079,5.077-5.079h239.214c2.805,0,5.078,2.275,5.078,5.079L266.242,239.055z"/>
				</defs>
				<clipPath id="SVGID_34_">
					<use xlink:href="#SVGID_33_"  overflow="visible"/>
				</clipPath>
				<path clip-path="url(#SVGID_34_)" fill="#A2785F" d="M33.778,133.786c0,0,230.773,27.309,261.492-6.097
					C295.27,127.689,64.999,78.576,33.778,133.786z"/>
			</g>
			<g opacity="0.25">
				<circle fill="#E8585E" cx="72.788" cy="130.415" r="4.619"/>
				<path fill="#E8585E" d="M72.788,127.064c0,0,3.656,0.179,3.506,3.351"/>
				<path fill="#E8585E" d="M97.721,130.415c0,2.551-2.066,4.618-4.62,4.618c-2.548,0-4.619-2.066-4.619-4.618
					s2.071-4.62,4.619-4.62C95.655,125.795,97.721,127.864,97.721,130.415z"/>
				<path fill="#E8585E" d="M93.102,127.064c0,0,3.658,0.179,3.508,3.351"/>
				<circle fill="#E8585E" cx="113.419" cy="130.415" r="4.619"/>
				<path fill="#E8585E" d="M113.417,127.064c0,0,3.66,0.179,3.508,3.351"/>
				<circle fill="#E8585E" cx="133.734" cy="130.415" r="4.619"/>
				<path fill="#E8585E" d="M133.734,127.064c0,0,3.657,0.179,3.506,3.351"/>
				<circle fill="#E8585E" cx="154.05" cy="130.415" r="4.621"/>
				<path fill="#E8585E" d="M154.05,127.064c0,0,3.656,0.179,3.504,3.351"/>
				<circle fill="#E8585E" cx="174.364" cy="130.415" r="4.62"/>
				<path fill="#E8585E" d="M174.365,127.064c0,0,3.655,0.179,3.507,3.351"/>
				<circle fill="#E8585E" cx="194.679" cy="130.415" r="4.62"/>
				<path fill="#E8585E" d="M194.68,127.064c0,0,3.656,0.179,3.506,3.351"/>
				<circle fill="#E8585E" cx="214.994" cy="130.415" r="4.62"/>
				<path fill="#E8585E" d="M214.995,127.064c0,0,3.657,0.179,3.507,3.351"/>
				<circle fill="#E8585E" cx="235.309" cy="130.415" r="4.619"/>
				<path fill="#E8585E" d="M235.311,127.064c0,0,3.658,0.179,3.506,3.351"/>
			</g>
			<g>
				<path fill="#A2785F" d="M280.899,131.341c0,0-2.206,11.549-0.918,16.223c1.287,4.674-1.473,7.699-4.413,7.699h0.183
					c-2.941,0-5.699-3.025-4.411-7.699s-0.919-16.223-0.919-16.223"/>
				<path fill="#A2785F" d="M210.361,131.341c0,0-1.597,8.366-0.666,11.752s-1.065,5.578-3.198,5.578h0.135
					c-2.13,0-4.128-2.191-3.195-5.578c0.931-3.387-0.666-11.752-0.666-11.752"/>
				<path fill="#A2785F" d="M194.991,136.421c0,0-2.384,8.366-0.992,11.751c1.391,3.386-1.588,5.577-4.77,5.577h0.198
					c-3.179,0-6.159-2.191-4.767-5.577c1.389-3.385-0.992-11.751-0.992-11.751"/>
				<path fill="#A2785F" d="M251.37,130.326c0,0-2.387,8.367-0.996,11.751c1.391,3.387-1.59,5.576-4.768,5.576h0.195
					c-3.178,0-6.158-2.189-4.768-5.576c1.392-3.385-0.99-11.751-0.99-11.751"/>
				<path fill="#A2785F" d="M179.757,130.835c0,0-2.386,8.365-0.994,11.75c1.391,3.387-1.588,5.579-4.77,5.579h0.198
					c-3.179,0-6.158-2.192-4.769-5.579c1.391-3.385-0.992-11.75-0.992-11.75"/>
				<path fill="#A2785F" d="M159.441,135.912c0,0-2.386,8.367-0.994,11.753c1.394,3.386-1.59,5.574-4.77,5.574h0.2
					c-3.182,0-6.16-2.188-4.77-5.574c1.392-3.387-0.992-11.753-0.992-11.753"/>
				<path fill="#A2785F" d="M144.203,135.912c0,0-1.976,10.251-0.821,14.404c1.151,4.149-1.318,6.834-3.952,6.834h0.164
					c-2.633,0-5.103-2.685-3.952-6.834c1.153-4.152-0.821-14.404-0.821-14.404"/>
				<path fill="#A2785F" d="M128.967,131.341c0,0-1.976,9.054-0.822,12.719c1.153,3.664-1.318,6.033-3.952,6.033h0.164
					c-2.635,0-5.103-2.369-3.952-6.033c1.153-3.665-0.823-12.719-0.823-12.719"/>
				<path fill="#A2785F" d="M55.547,134.896c0,0-1.487,9.057-0.62,12.72c0.867,3.663-0.992,6.033-2.977,6.033h0.125
					c-1.984,0-3.842-2.37-2.973-6.033c0.866-3.663-0.62-12.72-0.62-12.72"/>
				<path fill="#A2785F" d="M64.183,130.835c0,0-1.489,9.051-0.622,12.716c0.868,3.667-0.994,6.036-2.977,6.036h0.123
					c-1.983,0-3.843-2.369-2.973-6.036c0.867-3.665-0.62-12.716-0.62-12.716"/>
				<path fill="#A2785F" d="M220.518,136.421c0,0-1.598,8.366-0.668,11.751c0.934,3.386-1.063,5.577-3.194,5.577h0.133
					c-2.13,0-4.128-2.191-3.196-5.577c0.93-3.385-0.664-11.751-0.664-11.751"/>
				<path fill="#A2785F" d="M86.527,131.582c0,0-1.486,5.26-0.62,7.388c0.87,2.13-0.99,3.508-2.975,3.508h0.125
					c-1.986,0-3.846-1.378-2.977-3.508c0.868-2.128-0.618-7.388-0.618-7.388"/>
				<path fill="#A2785F" d="M95.669,134.63c0,0-1.486,5.258-0.618,7.387c0.866,2.13-0.994,3.508-2.977,3.508h0.125
					c-1.984,0-3.844-1.378-2.975-3.508c0.866-2.129-0.62-7.387-0.62-7.387"/>
				<path fill="#A2785F" d="M105.826,133.105c0,0-1.487,5.26-0.618,7.388c0.867,2.131-0.992,3.507-2.977,3.507h0.125
					c-1.984,0-3.844-1.376-2.977-3.507c0.869-2.128-0.618-7.388-0.618-7.388"/>
			</g>
			<g>
				<circle fill="#BB202C" cx="72.788" cy="128.383" r="4.619"/>
				<g>
					<path fill="#FFFFFF" d="M72.79,125.007c0,0,0.345-0.009,0.856,0.077c0.509,0.085,1.193,0.294,1.777,0.729
						c0.606,0.41,0.992,1.138,1.001,1.688c0.044,0.548-0.13,0.885-0.104,0.885l-0.051-0.003c0,0-0.024-0.084-0.068-0.231
						c-0.046-0.143-0.077-0.347-0.171-0.57c-0.161-0.451-0.41-1-0.866-1.455c-0.463-0.442-1.09-0.705-1.561-0.869
						c-0.478-0.155-0.816-0.198-0.816-0.198L72.79,125.007z"/>
				</g>
				<path fill="#BB202C" d="M97.721,128.383c0,2.551-2.066,4.62-4.62,4.62c-2.548,0-4.619-2.068-4.619-4.62
					c0-2.55,2.071-4.62,4.619-4.62C95.655,123.763,97.721,125.833,97.721,128.383z"/>
				<g>
					<path fill="#FFFFFF" d="M93.104,125.007c0,0,0.345-0.009,0.855,0.077c0.509,0.085,1.195,0.294,1.779,0.729
						c0.604,0.41,0.992,1.138,1.001,1.688c0.046,0.548-0.13,0.885-0.104,0.885l-0.051-0.003c0,0-0.024-0.084-0.068-0.231
						c-0.046-0.143-0.077-0.347-0.173-0.57c-0.159-0.451-0.408-1-0.864-1.455c-0.465-0.442-1.091-0.705-1.563-0.869
						c-0.478-0.155-0.816-0.198-0.816-0.198L93.104,125.007z"/>
				</g>
				<circle fill="#BB202C" cx="113.419" cy="128.383" r="4.619"/>
				<g>
					<path fill="#FFFFFF" d="M113.419,125.007c0,0,0.345-0.009,0.855,0.077c0.509,0.085,1.195,0.294,1.779,0.729
						c0.606,0.41,0.992,1.138,1.001,1.688c0.046,0.548-0.13,0.885-0.104,0.885l-0.051-0.003c0,0-0.024-0.084-0.068-0.231
						c-0.044-0.143-0.075-0.347-0.171-0.572c-0.161-0.449-0.41-1.001-0.866-1.454c-0.465-0.442-1.091-0.705-1.563-0.869
						c-0.478-0.155-0.816-0.198-0.816-0.198L113.419,125.007z"/>
				</g>
				<circle fill="#BB202C" cx="133.734" cy="128.383" r="4.619"/>
				<g>
					<path fill="#FFFFFF" d="M133.736,125.007c0,0,0.345-0.009,0.855,0.077c0.509,0.085,1.194,0.294,1.778,0.729
						c0.606,0.41,0.992,1.138,1.001,1.688c0.044,0.548-0.13,0.885-0.104,0.885l-0.051-0.003c0,0-0.024-0.084-0.068-0.231
						c-0.046-0.143-0.077-0.347-0.17-0.57c-0.161-0.451-0.41-1-0.866-1.455c-0.462-0.442-1.089-0.705-1.561-0.869
						c-0.479-0.155-0.816-0.198-0.816-0.198L133.736,125.007z"/>
				</g>
				<circle fill="#BB202C" cx="154.05" cy="128.383" r="4.621"/>
				<g>
					<path fill="#FFFFFF" d="M154.052,125.007c0,0,0.345-0.009,0.855,0.077c0.509,0.085,1.194,0.294,1.778,0.729
						c0.604,0.412,0.991,1.138,0.999,1.688c0.046,0.548-0.13,0.885-0.104,0.885l-0.051-0.003c0,0-0.024-0.084-0.068-0.231
						c-0.044-0.143-0.075-0.347-0.171-0.57c-0.161-0.451-0.408-1-0.864-1.455c-0.464-0.442-1.089-0.705-1.561-0.869
						c-0.479-0.155-0.816-0.198-0.816-0.198L154.052,125.007z"/>
				</g>
				<circle fill="#BB202C" cx="174.364" cy="128.383" r="4.62"/>
				<g>
					<path fill="#FFFFFF" d="M174.367,125.007c0,0,0.345-0.009,0.855,0.077c0.509,0.085,1.194,0.294,1.778,0.729
						c0.604,0.412,0.99,1.138,1,1.688c0.045,0.548-0.129,0.885-0.104,0.885l-0.052-0.003c0,0-0.024-0.084-0.068-0.231
						c-0.046-0.143-0.077-0.347-0.173-0.57c-0.158-0.451-0.408-1-0.863-1.455c-0.465-0.442-1.09-0.705-1.561-0.869
						c-0.479-0.155-0.816-0.198-0.816-0.198L174.367,125.007z"/>
				</g>
				<circle fill="#BB202C" cx="194.679" cy="128.383" r="4.62"/>
				<g>
					<path fill="#FFFFFF" d="M194.682,125.007c0,0,0.345-0.009,0.855,0.077c0.509,0.085,1.193,0.294,1.777,0.729
						c0.606,0.41,0.992,1.138,1.001,1.688c0.044,0.548-0.13,0.885-0.104,0.885l-0.051-0.003c0,0-0.023-0.084-0.068-0.231
						c-0.046-0.143-0.076-0.347-0.171-0.57c-0.16-0.451-0.409-1-0.866-1.455c-0.463-0.442-1.089-0.705-1.561-0.869
						c-0.479-0.155-0.816-0.198-0.816-0.198L194.682,125.007z"/>
				</g>
				<circle fill="#BB202C" cx="214.994" cy="128.383" r="4.62"/>
				<g>
					<path fill="#FFFFFF" d="M214.996,125.007c0,0,0.345-0.009,0.855,0.077c0.509,0.085,1.196,0.294,1.78,0.729
						c0.604,0.41,0.992,1.138,1,1.688c0.047,0.548-0.13,0.885-0.104,0.885l-0.052-0.003c0,0-0.024-0.084-0.068-0.231
						c-0.046-0.143-0.077-0.347-0.173-0.57c-0.158-0.451-0.408-1-0.863-1.455c-0.465-0.442-1.092-0.705-1.563-0.869
						c-0.479-0.155-0.816-0.198-0.816-0.198L214.996,125.007z"/>
				</g>
				<circle fill="#BB202C" cx="235.309" cy="128.383" r="4.619"/>
				<g>
					<path fill="#FFFFFF" d="M235.313,125.007c0,0,0.345-0.009,0.855,0.077c0.509,0.085,1.193,0.294,1.777,0.729
						c0.606,0.41,0.992,1.138,1.001,1.688c0.046,0.548-0.13,0.885-0.104,0.885l-0.051-0.003c0,0-0.023-0.084-0.068-0.231
						c-0.045-0.143-0.075-0.347-0.171-0.57c-0.161-0.451-0.408-1-0.866-1.455c-0.463-0.442-1.089-0.705-1.561-0.869
						c-0.479-0.155-0.816-0.198-0.816-0.198L235.313,125.007z"/>
				</g>
			</g>
			<g>
				<path fill="#FFFFFF" d="M278.712,148.162c0,0,0.07,0.447,0.094,1.127s-0.006,1.603-0.281,2.5
					c-0.123,0.451-0.328,0.898-0.629,1.252c-0.15,0.173-0.326,0.328-0.5,0.447c-0.199,0.084-0.379,0.186-0.557,0.231
					c-0.738,0.169-1.184-0.093-1.18-0.044l0.003-0.052c0,0,0.112-0.022,0.308-0.063c0.194-0.021,0.451-0.101,0.734-0.222
					c0.279-0.134,0.551-0.347,0.809-0.627c0.231-0.299,0.474-0.647,0.627-1.056c0.328-0.806,0.426-1.705,0.487-2.37
					c0.055-0.669,0.034-1.12,0.034-1.12L278.712,148.162z"/>
			</g>
			<g>
				<path fill="#FFFFFF" d="M246.718,146.505c0,0.002,0.342-0.049,0.783-0.287c0.234-0.09,0.453-0.291,0.699-0.461
					c0.189-0.237,0.452-0.434,0.55-0.746l0.187-0.424c0.012-0.158,0.042-0.305,0.068-0.451c0.064-0.286,0.121-0.558,0.099-0.807
					c0.022-0.487,0.101-0.848,0.101-0.848l0.051-0.01c0,0,0.139,0.315,0.252,0.845c0.023,0.132,0.047,0.275,0.074,0.427
					c-0.006,0.158-0.053,0.32-0.08,0.488c-0.033,0.168-0.063,0.344-0.114,0.515c-0.085,0.161-0.191,0.315-0.286,0.472
					c-0.158,0.338-0.48,0.541-0.72,0.77c-0.29,0.164-0.554,0.335-0.812,0.395c-0.494,0.176-0.845,0.174-0.845,0.174L246.718,146.505
					z"/>
			</g>
			<g>
				<path fill="#FFFFFF" d="M219.639,149.732c0,0,0.012,0.3-0.075,0.744c-0.022,0.227-0.112,0.477-0.191,0.752
					c-0.118,0.258-0.222,0.553-0.393,0.811c-0.181,0.248-0.314,0.552-0.567,0.717c-0.227,0.188-0.434,0.381-0.671,0.438
					c-0.452,0.152-0.755,0.18-0.755,0.18l-0.018-0.048c0,0,0.227-0.237,0.566-0.479c0.191-0.093,0.32-0.323,0.535-0.462
					c0.213-0.15,0.376-0.377,0.576-0.576c0.729-0.881,0.941-2.08,0.941-2.08L219.639,149.732z"/>
			</g>
			<g>
				<path fill="#FFFFFF" d="M209.323,145.086c0,0,0.003,0.283-0.084,0.705c-0.027,0.214-0.105,0.452-0.198,0.71
					c-0.091,0.255-0.244,0.512-0.395,0.768c-0.203,0.213-0.347,0.512-0.616,0.635c-0.251,0.141-0.481,0.303-0.717,0.301
					c-0.465,0.037-0.746-0.016-0.746-0.016l-0.004-0.051c0,0,0.265-0.172,0.621-0.316c0.193-0.043,0.338-0.249,0.557-0.332
					c0.214-0.105,0.375-0.316,0.586-0.473c0.159-0.206,0.332-0.416,0.447-0.64c0.111-0.228,0.23-0.437,0.294-0.634
					c0.155-0.385,0.204-0.664,0.204-0.664L209.323,145.086z"/>
			</g>
			<g>
				<path fill="#FFFFFF" d="M189.331,153.068c0,0,0.448-0.004,1.096-0.15c0.629-0.164,1.501-0.445,2.066-1.077
					c0.304-0.292,0.463-0.68,0.617-1.026c0.081-0.176,0.081-0.371,0.149-0.537c0.067-0.168,0.058-0.346,0.091-0.503
					c0.075-0.317,0.048-0.593,0.08-0.787c0.021-0.198,0.032-0.313,0.032-0.313l0.052-0.007c0,0,0.032,0.107,0.09,0.299
					c0.055,0.195,0.148,0.473,0.148,0.824c0.026,0.351-0.01,0.774-0.17,1.199c-0.102,0.201-0.159,0.438-0.326,0.615
					c-0.135,0.197-0.294,0.377-0.482,0.529c-0.711,0.656-1.656,0.873-2.316,0.959c-0.679,0.074-1.127,0.026-1.127,0.026V153.068z"/>
			</g>
			<g>
				<path fill="#FFFFFF" d="M174.358,147.802c0,0,0.355-0.113,0.848-0.361c0.25-0.111,0.523-0.277,0.817-0.451
					c0.301-0.16,0.567-0.41,0.859-0.617c0.13-0.121,0.242-0.26,0.362-0.387c0.104-0.137,0.26-0.229,0.34-0.37
					c0.094-0.134,0.167-0.271,0.266-0.384c0.086-0.12,0.212-0.216,0.252-0.34c0.215-0.467,0.438-0.8,0.438-0.8l0.052,0.007
					c0,0-0.002,0.371-0.125,0.961c-0.022,0.15-0.131,0.273-0.201,0.428c-0.078,0.152-0.19,0.292-0.289,0.447
					c-0.226,0.289-0.554,0.516-0.846,0.758c-0.644,0.417-1.316,0.759-1.859,0.914c-0.533,0.182-0.9,0.242-0.9,0.242L174.358,147.802
					z"/>
			</g>
			<g>
				<path fill="#FFFFFF" d="M157.832,148.661c0,0,0.202,0.354,0.243,0.978c-0.017,0.152-0.036,0.32-0.056,0.496
					c0.003,0.188-0.12,0.344-0.193,0.526c-0.089,0.174-0.159,0.378-0.319,0.509l-0.434,0.449c-0.133,0.174-0.332,0.24-0.499,0.357
					c-0.171,0.11-0.35,0.199-0.521,0.291c-0.328,0.228-0.704,0.217-0.996,0.297c-0.601,0.106-1.002,0.108-1.002,0.109l-0.01-0.051
					c0,0.002,0.357-0.217,0.892-0.442c0.259-0.128,0.606-0.188,0.905-0.372c0.157-0.082,0.316-0.171,0.489-0.242
					c0.16-0.088,0.367-0.129,0.49-0.267l0.422-0.358c0.164-0.106,0.229-0.273,0.325-0.42c0.079-0.15,0.207-0.284,0.222-0.446
					c0.04-0.157,0.075-0.306,0.109-0.442c0.036-0.576-0.113-0.951-0.113-0.951L157.832,148.661z"/>
			</g>
			<g>
				<path fill="#FFFFFF" d="M143.166,152.119c0,0,0.015,0.385-0.065,0.958c-0.08,0.569-0.282,1.334-0.693,2.014
					c-0.388,0.694-1.067,1.235-1.649,1.394c-0.574,0.193-0.984,0.104-0.975,0.131l-0.007-0.044
					c-0.007-0.019,0.372-0.133,0.843-0.408c0.472-0.269,1.047-0.681,1.493-1.267c0.437-0.59,0.687-1.309,0.838-1.85
					c0.142-0.549,0.171-0.928,0.171-0.928H143.166z"/>
			</g>
			<g>
				<path fill="#FFFFFF" d="M124.668,149.26c0,0,0.374-0.032,0.864-0.271c0.13-0.04,0.239-0.147,0.371-0.224
					c0.126-0.088,0.27-0.159,0.374-0.294c0.113-0.118,0.23-0.241,0.35-0.366c0.101-0.138,0.169-0.303,0.254-0.451
					c0.068-0.163,0.191-0.293,0.205-0.474c0.032-0.171,0.082-0.331,0.126-0.49c0.105-0.31,0.164-0.611,0.193-0.882
					c0.092-0.529,0.222-0.902,0.222-0.902l0.051-0.004c0,0,0.092,0.365,0.128,0.943c0.005,0.145,0.01,0.302,0.017,0.467
					c0.001,0.166-0.082,0.334-0.123,0.51c-0.051,0.176-0.101,0.359-0.171,0.537c-0.042,0.188-0.2,0.335-0.299,0.501
					c-0.114,0.16-0.21,0.331-0.338,0.474c-0.147,0.124-0.291,0.247-0.429,0.366c-0.13,0.13-0.294,0.2-0.442,0.272
					c-0.152,0.064-0.28,0.156-0.425,0.182c-0.545,0.178-0.926,0.158-0.926,0.158L124.668,149.26z"/>
			</g>
			<g>
				<path fill="#FFFFFF" d="M104.759,140.708c0,0,0.144,0.229,0.207,0.632c0.033,0.197,0.046,0.451-0.019,0.703
					c-0.063,0.264-0.176,0.527-0.379,0.738c-0.154,0.262-0.406,0.395-0.635,0.531c-0.118,0.053-0.217,0.16-0.34,0.162
					c-0.118,0.018-0.229,0.034-0.331,0.05c-0.412,0.048-0.68,0.011-0.68,0.011l-0.01-0.052c0,0,0.23-0.18,0.567-0.342
					c0.171-0.077,0.372-0.155,0.553-0.274c0.176-0.127,0.437-0.176,0.577-0.361c0.193-0.145,0.311-0.34,0.396-0.548
					c0.066-0.095,0.056-0.208,0.085-0.31c0.019-0.102,0.05-0.201,0.038-0.295c0.017-0.377-0.077-0.627-0.077-0.625L104.759,140.708z
					"/>
			</g>
			<g>
				<path fill="#FFFFFF" d="M94.41,142.097c0,0,0.186,0.227,0.321,0.648c0.07,0.207,0.118,0.478,0.065,0.768
					c-0.04,0.291-0.198,0.593-0.425,0.812c-0.215,0.235-0.485,0.411-0.753,0.504c-0.258,0.134-0.526,0.132-0.743,0.165
					c-0.444,0.011-0.736-0.064-0.736-0.064l-0.003-0.051c0,0,0.268-0.146,0.657-0.279c0.377-0.168,0.893-0.285,1.303-0.573
					c0.425-0.285,0.522-0.844,0.461-1.241c-0.051-0.408-0.191-0.66-0.191-0.66L94.41,142.097z"/>
			</g>
			<g>
				<path fill="#FFFFFF" d="M85.46,139.309c0,0,0.14,0.243,0.183,0.669c0.027,0.106-0.003,0.221-0.005,0.346
					c-0.002,0.128-0.021,0.258-0.084,0.383c-0.077,0.274-0.242,0.516-0.458,0.727c-0.176,0.262-0.456,0.362-0.69,0.504
					c-0.123,0.057-0.232,0.15-0.358,0.15c-0.122,0.016-0.238,0.031-0.343,0.047c-0.427,0.044-0.707,0.003-0.707,0.003l-0.007-0.052
					c0,0,0.242-0.178,0.599-0.338c0.18-0.08,0.4-0.146,0.596-0.265c0.183-0.137,0.478-0.161,0.635-0.349
					c0.2-0.146,0.369-0.322,0.461-0.539c0.072-0.096,0.098-0.205,0.12-0.313c0.021-0.104,0.072-0.205,0.063-0.303
					c0.036-0.391-0.053-0.654-0.053-0.654L85.46,139.309z"/>
			</g>
			<g>
				<path fill="#FFFFFF" d="M63.305,144.585c0,0,0.146,1.439-0.432,2.81c-0.142,0.337-0.311,0.679-0.553,0.938
					c-0.128,0.122-0.22,0.272-0.371,0.352c-0.142,0.083-0.258,0.186-0.393,0.233c-0.519,0.247-0.914,0.173-0.902,0.2l-0.014-0.049
					c-0.008-0.018,0.326-0.174,0.702-0.492c0.374-0.32,0.827-0.768,1.165-1.358c0.651-1.195,0.746-2.634,0.746-2.634H63.305z"/>
			</g>
			<g>
				<path fill="#FFFFFF" d="M52.01,153.005c0,0,0.35-0.066,0.787-0.336c0.191-0.174,0.448-0.326,0.625-0.596
					c0.221-0.229,0.36-0.535,0.494-0.843c0.172-0.287,0.157-0.654,0.27-0.942c0.096-0.299,0.138-0.595,0.188-0.85
					c0.105-0.504,0.246-0.854,0.246-0.854h0.051c0,0,0.082,0.35,0.103,0.898c0.001,0.137,0.003,0.285,0.005,0.44
					c0.022,0.161-0.068,0.315-0.101,0.483c-0.106,0.33-0.167,0.697-0.396,1c-0.185,0.325-0.374,0.638-0.644,0.867
					c-0.22,0.271-0.529,0.402-0.753,0.549c-0.505,0.219-0.868,0.232-0.868,0.232L52.01,153.005z"/>
			</g>
			<g>
				<defs>
					<path id="SVGID_35_" d="M247.667,152.778c0,2.433-1.975,4.406-4.408,4.406H80.485c-2.436,0-4.406-1.974-4.406-4.406
						L58.455,57.136c0-2.434,1.972-4.404,4.406-4.404h198.024c2.435,0,4.405,1.971,4.405,4.404L247.667,152.778z"/>
				</defs>
				<clipPath id="SVGID_36_">
					<use xlink:href="#SVGID_35_"  overflow="visible"/>
				</clipPath>
			</g>
			<g>
				<defs>
					<path id="SVGID_37_" d="M247.667,152.778c0,2.433-1.975,4.406-4.408,4.406H80.485c-2.436,0-4.406-1.974-4.406-4.406
						L58.455,57.136c0-2.434,1.972-4.404,4.406-4.404h198.024c2.435,0,4.405,1.971,4.405,4.404L247.667,152.778z"/>
				</defs>
				<clipPath id="SVGID_38_">
					<use xlink:href="#SVGID_37_"  overflow="visible"/>
				</clipPath>
				<path clip-path="url(#SVGID_38_)" fill="#A2785F" d="M44.298,58.754c0,0,214.849,47.692,242.26,0
					c0,0-72.364-25.696-149.313-20.313C60.294,43.82,45.821,45.504,44.298,58.754z"/>
			</g>
			<g opacity="0.35">
				<g>
					<circle fill="#E8585E" cx="165.238" cy="52.181" r="8.392"/>
					<g>
						<path fill="#FFFFFF" d="M165.24,46.049c0,0,0.625-0.015,1.554,0.138c0.924,0.156,2.171,0.533,3.231,1.325
							c0.516,0.4,1.035,0.861,1.335,1.426c0.317,0.55,0.456,1.147,0.481,1.638c0.077,0.997-0.222,1.61-0.189,1.607l-0.092-0.003
							c0,0-0.059-0.157-0.129-0.42c-0.041-0.13-0.078-0.287-0.112-0.465c-0.028-0.179-0.144-0.364-0.194-0.574
							c-0.055-0.21-0.13-0.429-0.255-0.64c-0.112-0.215-0.185-0.458-0.345-0.668c-0.215-0.477-0.572-0.92-0.972-1.333
							c-0.844-0.803-1.981-1.281-2.837-1.58c-0.871-0.28-1.484-0.358-1.484-0.358L165.24,46.049z"/>
					</g>
				</g>
			</g>
			<path fill="#A2785F" d="M139.126,64.81c0,0-2.386,8.365-0.994,11.751c1.392,3.385-1.59,5.576-4.77,5.576h0.2
				c-3.18,0-6.162-2.191-4.768-5.576c1.39-3.386-0.994-11.751-0.994-11.751"/>
			<g>
				<g>
					<path fill="#BB202C" d="M173.63,49.548c0,4.637-3.756,8.394-8.393,8.394c-4.635,0-8.392-3.757-8.392-8.394
						c0-4.633,3.757-8.392,8.392-8.392C169.874,41.156,173.63,44.915,173.63,49.548z"/>
					<g>
						<path fill="#F3F6DD" d="M165.24,43.417c0,0,0.625-0.015,1.554,0.139c0.924,0.155,2.169,0.533,3.231,1.323
							c0.514,0.4,1.035,0.861,1.335,1.426c0.317,0.551,0.456,1.147,0.481,1.638c0.078,0.997-0.222,1.61-0.189,1.607l-0.092-0.003
							c0,0-0.059-0.157-0.129-0.42c-0.041-0.129-0.078-0.287-0.112-0.464c-0.028-0.179-0.144-0.364-0.194-0.572
							c-0.055-0.212-0.13-0.431-0.255-0.643c-0.112-0.215-0.185-0.458-0.345-0.667c-0.215-0.475-0.572-0.919-0.974-1.332
							c-0.842-0.803-1.979-1.281-2.835-1.58c-0.871-0.28-1.484-0.359-1.484-0.359L165.24,43.417z"/>
					</g>
				</g>
			</g>
			<g>
				<path fill="#FFFFFF" d="M133.727,81.777c0,0,0.355-0.113,0.847-0.36c0.251-0.111,0.524-0.278,0.818-0.451
					c0.3-0.16,0.567-0.412,0.859-0.616c0.13-0.123,0.242-0.261,0.362-0.386c0.106-0.136,0.26-0.23,0.34-0.371
					c0.094-0.133,0.167-0.271,0.267-0.384c0.085-0.119,0.212-0.215,0.251-0.34c0.215-0.466,0.439-0.799,0.439-0.799l0.051,0.007
					c0,0-0.002,0.371-0.123,0.961c-0.024,0.15-0.131,0.273-0.203,0.427c-0.077,0.152-0.19,0.292-0.289,0.447
					c-0.226,0.289-0.554,0.516-0.846,0.758c-0.644,0.415-1.316,0.758-1.859,0.912c-0.533,0.181-0.9,0.243-0.9,0.243L133.727,81.777z
					"/>
			</g>
			<path fill="#A2785F" d="M205.224,66.333c0,0-2.206,11.548-0.919,16.222c1.287,4.674-1.474,7.697-4.411,7.697h0.183
				c-2.942,0-5.7-3.023-4.412-7.697c1.287-4.674-0.92-16.222-0.92-16.222"/>
			<g>
				<path fill="#FFFFFF" d="M203.035,83.15c0,0,0.069,0.447,0.094,1.128c0.022,0.68-0.007,1.602-0.282,2.5
					c-0.121,0.451-0.326,0.9-0.626,1.253c-0.15,0.172-0.326,0.328-0.503,0.447c-0.199,0.085-0.379,0.186-0.557,0.23
					c-0.735,0.169-1.184-0.09-1.18-0.042l0.004-0.051c0,0,0.112-0.022,0.307-0.063c0.195-0.024,0.451-0.101,0.736-0.222
					c0.278-0.133,0.55-0.349,0.809-0.628c0.231-0.299,0.475-0.649,0.626-1.057c0.329-0.806,0.425-1.706,0.488-2.371
					c0.054-0.671,0.032-1.122,0.032-1.122L203.035,83.15z"/>
			</g>
			<path fill="#A2785F" d="M188.522,74.459c0,0-1.598,8.365-0.668,11.751c0.933,3.385-1.065,5.578-3.193,5.578h0.13
				c-2.13,0-4.126-2.193-3.194-5.578c0.93-3.386-0.666-11.751-0.666-11.751"/>
			<g>
				<path fill="#FFFFFF" d="M187.645,87.769c0,0,0.012,0.301-0.076,0.745c-0.023,0.227-0.114,0.477-0.192,0.751
					c-0.116,0.258-0.222,0.553-0.392,0.811c-0.181,0.248-0.315,0.552-0.568,0.717c-0.227,0.188-0.434,0.379-0.672,0.438
					c-0.451,0.152-0.754,0.179-0.754,0.179l-0.018-0.048c0,0,0.226-0.237,0.565-0.478c0.191-0.094,0.321-0.323,0.536-0.463
					c0.212-0.15,0.376-0.376,0.576-0.576c0.729-0.881,0.942-2.08,0.942-2.08L187.645,87.769z"/>
			</g>
			<path fill="#A2785F" d="M259.624,69.887c0,0-1.594,8.366-0.664,11.751c0.934,3.387-1.066,5.578-3.196,5.578h0.133
				c-2.13,0-4.128-2.191-3.194-5.578c0.93-3.385-0.666-11.751-0.666-11.751"/>
			<g>
				<path fill="#FFFFFF" d="M258.587,83.635c0,0,0.003,0.283-0.082,0.704c-0.029,0.215-0.107,0.453-0.199,0.71
					c-0.092,0.254-0.245,0.511-0.393,0.767c-0.203,0.212-0.348,0.512-0.617,0.634c-0.25,0.14-0.482,0.302-0.718,0.3
					c-0.463,0.036-0.745-0.017-0.745-0.017l-0.003-0.051c0,0,0.265-0.172,0.622-0.314c0.192-0.043,0.338-0.25,0.557-0.333
					c0.211-0.104,0.372-0.314,0.584-0.47c0.156-0.207,0.329-0.417,0.447-0.639c0.111-0.227,0.229-0.437,0.293-0.635
					c0.154-0.384,0.202-0.663,0.202-0.663L258.587,83.635z"/>
			</g>
			<path fill="#A2785F" d="M107.857,67.35c0,0-1.485,9.051-0.616,12.716c0.867,3.665-0.994,6.035-2.977,6.035h0.123
				c-1.984,0-3.844-2.37-2.975-6.035c0.868-3.665-0.62-12.716-0.62-12.716"/>
			<g>
				<path fill="#FFFFFF" d="M104.322,85.455c0,0,0.35-0.066,0.787-0.334c0.193-0.173,0.449-0.326,0.625-0.594
					c0.222-0.228,0.36-0.537,0.495-0.844c0.172-0.287,0.157-0.654,0.27-0.943c0.096-0.299,0.138-0.594,0.186-0.849
					c0.109-0.504,0.248-0.854,0.248-0.854h0.051c0,0,0.082,0.35,0.103,0.898c0.001,0.137,0.003,0.285,0.005,0.442
					c0.022,0.159-0.068,0.314-0.101,0.481c-0.106,0.33-0.167,0.697-0.398,1.002c-0.183,0.323-0.372,0.635-0.644,0.864
					c-0.219,0.27-0.53,0.403-0.753,0.55c-0.505,0.217-0.867,0.23-0.867,0.23L104.322,85.455z"/>
			</g>
			<path fill="#A2785F" d="M98.717,60.746c0,0-1.489,9.055-0.622,12.716c0.869,3.665-0.991,6.037-2.977,6.037h0.126
				c-1.982,0-3.842-2.372-2.975-6.037c0.866-3.661-0.62-12.716-0.62-12.716"/>
			<g>
				<path fill="#FFFFFF" d="M97.841,74.5c0,0,0.145,1.439-0.432,2.809c-0.142,0.336-0.311,0.676-0.553,0.938
					c-0.128,0.122-0.222,0.271-0.371,0.35c-0.142,0.084-0.258,0.187-0.395,0.234c-0.518,0.248-0.912,0.173-0.9,0.2l-0.014-0.048
					c-0.009-0.019,0.326-0.174,0.702-0.496c0.374-0.317,0.827-0.765,1.165-1.355c0.651-1.194,0.747-2.632,0.747-2.632H97.841z"/>
			</g>
			<path fill="#A2785F" d="M70.783,58.447c0,0-1.489,5.258-0.62,7.388c0.868,2.129-0.992,3.506-2.977,3.506h0.125
				c-1.984,0-3.842-1.376-2.975-3.506c0.868-2.13-0.62-7.388-0.62-7.388"/>
			<g>
				<path fill="#FFFFFF" d="M69.716,66.173c0,0,0.14,0.243,0.183,0.669c0.027,0.106-0.003,0.22-0.005,0.345
					c-0.002,0.128-0.021,0.258-0.084,0.382c-0.077,0.275-0.242,0.516-0.458,0.728c-0.176,0.261-0.456,0.362-0.69,0.505
					c-0.123,0.057-0.232,0.15-0.359,0.149c-0.121,0.017-0.237,0.032-0.343,0.048c-0.427,0.042-0.707,0.003-0.707,0.003l-0.007-0.051
					c0,0,0.243-0.178,0.6-0.34c0.179-0.081,0.4-0.146,0.596-0.265c0.183-0.135,0.478-0.161,0.635-0.347
					c0.2-0.149,0.369-0.325,0.461-0.542c0.072-0.096,0.097-0.205,0.12-0.313c0.021-0.104,0.072-0.205,0.063-0.302
					c0.036-0.391-0.053-0.654-0.053-0.654L69.716,66.173z"/>
			</g>
		</g>
		<g>
			<g>
				<defs>
					<path id="SVGID_39_" d="M266.242,239.055c0,2.804-2.272,5.075-5.077,5.075H62.581c-2.804,0-5.079-2.271-5.079-5.075
						L37.189,134.937c0-2.804,2.271-5.079,5.077-5.079h239.214c2.805,0,5.078,2.275,5.078,5.079L266.242,239.055z"/>
				</defs>
				<clipPath id="SVGID_40_">
					<use xlink:href="#SVGID_39_"  overflow="visible"/>
				</clipPath>
			</g>
			<g>
				<defs>
					<path id="SVGID_41_" d="M266.242,239.055c0,2.804-2.272,5.075-5.077,5.075H62.581c-2.804,0-5.079-2.271-5.079-5.075
						L37.189,134.937c0-2.804,2.271-5.079,5.077-5.079h239.214c2.805,0,5.078,2.275,5.078,5.079L266.242,239.055z"/>
				</defs>
				<clipPath id="SVGID_42_">
					<use xlink:href="#SVGID_41_"  overflow="visible"/>
				</clipPath>
			</g>
			<g>
				<defs>
					<path id="SVGID_43_" d="M247.667,152.778c0,2.433-1.975,4.406-4.408,4.406H80.485c-2.436,0-4.406-1.974-4.406-4.406
						L58.455,57.136c0-2.434,1.972-4.404,4.406-4.404h198.024c2.435,0,4.405,1.971,4.405,4.404L247.667,152.778z"/>
				</defs>
				<clipPath id="SVGID_44_">
					<use xlink:href="#SVGID_43_"  overflow="visible"/>
				</clipPath>
			</g>
			<g>
				<defs>
					<path id="SVGID_45_" d="M247.667,152.778c0,2.433-1.975,4.406-4.408,4.406H80.485c-2.436,0-4.406-1.974-4.406-4.406
						L58.455,57.136c0-2.434,1.972-4.404,4.406-4.404h198.024c2.435,0,4.405,1.971,4.405,4.404L247.667,152.778z"/>
				</defs>
				<clipPath id="SVGID_46_">
					<use xlink:href="#SVGID_45_"  overflow="visible"/>
				</clipPath>
			</g>
		</g>
	</g>
</g>
</svg>
