<?xml version="1.0" encoding="utf-8"?>
<!-- Generator: Adobe Illustrator 16.0.0, SVG Export Plug-In . SVG Version: 6.00 Build 0)  -->
<!DOCTYPE svg PUBLIC "-//W3C//DTD SVG 1.1//EN" "http://www.w3.org/Graphics/SVG/1.1/DTD/svg11.dtd">
<svg version="1.1" id="Layer_1" xmlns="http://www.w3.org/2000/svg" xmlns:xlink="http://www.w3.org/1999/xlink" x="0px" y="0px"
	 width="2546.561px" height="424.622px" viewBox="401.62 41.865 2546.561 424.622"
	 enable-background="new 401.62 41.865 2546.561 424.622" xml:space="preserve">
<g id="grid">
	
		<line display="none" fill="none" stroke="#564A46" stroke-width="4" stroke-miterlimit="10" x1="0" y1="311.962" x2="841.889" y2="311.962"/>
	
		<line display="none" fill="none" stroke="#564A46" stroke-width="3.3635" stroke-miterlimit="10" x1="276.245" y1="0" x2="276.245" y2="595.281"/>
	
		<line display="none" fill="none" stroke="#564A46" stroke-width="3.3635" stroke-miterlimit="10" x1="573.276" y1="0.001" x2="573.276" y2="595.281"/>
</g>
<g id="Layer_96">
</g>
<g id="Layer_86">
</g>
<g id="Layer_95">
</g>
<g id="Layer_94">
</g>
<g id="Layer_93">
</g>
<g id="Layer_92">
</g>
<g id="Layer_90">
</g>
<g id="Layer_89">
</g>
<g id="Layer_88">
</g>
<g id="Layer_87">
</g>
<g id="Layer_85">
</g>
<g id="Layer_84">
</g>
<g id="Layer_83">
</g>
<g id="Layer_82">
	<circle fill="#F3F6DC" cx="902.557" cy="-130.104" r="6.539"/>
</g>
<g id="Layer_80">
</g>
<g id="Layer_79">
</g>
<g id="Layer_78">
</g>
<g id="Layer_77">
</g>
<g id="Layer_76">
</g>
<g id="Layer_75">
</g>
<g id="Layer_74">
</g>
<g id="Layer_73">
</g>
<g id="Layer_72">
</g>
<g id="Layer_71">
</g>
<g id="Layer_70">
</g>
<g id="Layer_69">
</g>
<g id="Layer_68">
</g>
<g id="Layer_67">
</g>
<g id="Layer_66">
</g>
<g id="Layer_65">
</g>
<g id="Layer_64">
</g>
<g id="Layer_63">
</g>
<g id="Layer_62">
</g>
<g id="Layer_61">
</g>
<g id="Layer_60">
</g>
<g id="Layer_59">
</g>
<g id="Layer_58">
</g>
<g id="Layer_57">
</g>
<g id="Layer_56">
</g>
<g id="Layer_55">
</g>
<g id="Layer_54">
</g>
<g id="Layer_53">
</g>
<g id="Layer_50">
</g>
<g id="Layer_49">
</g>
<g id="Layer_48">
</g>
<g id="Layer_46">
</g>
<g id="Layer_45">
</g>
<g id="Layer_44">
</g>
<g id="Layer_43">
</g>
<g id="Layer_42">
</g>
<g id="Layer_41">
</g>
<g id="Layer_40">
</g>
<g id="Layer_39">
</g>
<g id="Layer_38">
</g>
<g id="Layer_37">
</g>
<g id="Layer_36">
</g>
<g id="Layer_91">
</g>
<g id="Layer_35">
</g>
<g id="Layer_34">
</g>
<g id="Layer_33">
</g>
<g id="Layer_32">
</g>
<g id="Layer_31">
</g>
<g id="Layer_30">
</g>
<g id="Layer_29">
</g>
<g id="Layer_28">
</g>
<g id="Layer_27">
</g>
<g id="Layer_26">
	<rect x="401.62" y="41.865" fill="#DA572B" width="424.621" height="424.622"/>
	<rect x="825.748" y="41.865" fill="#FFC335" width="424.621" height="424.622"/>
	<rect x="1250.02" y="41.865" fill="#2FB6AE" width="424.621" height="424.622"/>
	<rect x="1670.908" y="41.865" fill="#DA572B" width="428.03" height="424.622"/>
	<rect x="2098.938" y="41.865" fill="#FFC335" width="424.621" height="424.622"/>
	<rect x="2523.559" y="41.865" fill="#02467F" width="424.621" height="424.622"/>
	<g>
		<path fill="#02467F" d="M1545.075,349.292l0.023-0.094c-0.966-0.266-1.965-0.436-2.992-0.498h-1.935l-8.474,0.02l-52.852,0.025
			l-4.186,0.02l-58.003,0.041h-4.069l-52.893,0.043h-10.786c-0.705,0.059-1.399,0.17-2.074,0.316
			c-0.213,0.041-0.426,0.113-0.634,0.17c0,0-0.017,0-0.029,0c-1.936,0.633-3.328,2.439-3.328,4.568s1.41,3.938,3.357,4.574
			c0.067,0.018,0.128,0.041,0.195,0.063c11.54,3.41,23.35,6.252,35.371,8.469c0.455,0.092,0.905,0.172,1.367,0.254
			c1.637,0.256,3.315,0.396,5.038,0.396h114.994c1.723,0,3.408-0.143,5.049-0.396c0.452-0.082,0.9-0.162,1.37-0.254
			c12.016-2.209,23.817-5.059,35.359-8.469c0.079-0.021,0.14-0.045,0.2-0.063c1.965-0.633,3.362-2.445,3.362-4.574
			C1548.512,351.731,1547.066,349.907,1545.075,349.292z"/>
		<path fill="#02467F" d="M1574.052,268.385c-0.449-14.633-11.426-26.637-25.721-28.953c-0.653-0.111-1.267-0.316-1.827-0.635
			c-0.649-0.357-1.215-0.844-1.647-1.43c-0.674-0.889-1.089-1.977-1.089-3.164c0-5.328-4.366-9.643-9.777-9.643h-176.623
			c-5.402,0-9.789,4.313-9.789,9.643v0.021c0.031,0.398,0.056,0.82,0.086,1.221c2.001,26.586,11.241,51.166,25.789,71.869
			c7.026,9.982,15.281,19.059,24.564,27.016l0.031-0.018c2.797,2.5,6.528,4.041,10.599,4.041h74.173
			c3.527,0,6.797-1.156,9.417-3.078c0.007-0.02,0.02-0.02,0.02-0.02c0.591-0.506,1.18-1.012,1.776-1.521
			c2.854-2.482,5.604-5.049,8.248-7.744v0.02c1.346-1.326,3.177-2.129,5.202-2.129h0.164c0.688,0.023,1.351,0.129,1.978,0.314
			c2.647,0.379,5.354,0.572,8.085,0.572c4.905,0,9.65-0.613,14.163-1.766c23.979-6.107,41.747-27.363,42.173-52.781
			c0.013-0.301,0.013-0.613,0.013-0.932C1574.065,268.997,1574.065,268.688,1574.052,268.385z M1546.961,299.374
			c-5.561,5.238-12.593,9.012-20.424,10.66c-0.322,0.107-0.65,0.162-0.996,0.188c0,0-0.013,0.018-0.013,0
			c-0.157,0.018-0.323,0.041-0.479,0.041c-2.701,0-4.897-2.17-4.897-4.83c0-0.883,0.237-1.695,0.655-2.414
			c0.066-0.105,0.13-0.207,0.184-0.293c1.776-2.736,3.456-5.518,5.025-8.359c2.3-4.137,4.397-8.363,6.279-12.701
			c3.077-7.125,5.597-14.518,7.507-22.162c0.042-0.273,0.114-0.529,0.2-0.799v-0.029c0.938-2.943,3.718-5.072,7.016-5.072
			c0.734,0,1.447,0.111,2.117,0.297c0.535,0.164,1.04,0.379,1.508,0.635c5.541,2.662,9.357,8.271,9.357,14.756
			C1560.005,281.127,1555.004,291.788,1546.961,299.374z"/>
		<path fill="#F3F6DD" d="M1465.385,189.958c0,7.24-2.215,13.229-4.709,17.648c0,0,0,0-0.007,0.02
			c-0.054,0.109-0.128,0.23-0.193,0.342c-0.091,0.256-0.158,0.523-0.158,0.797c0,1.137,0.942,2.086,2.093,2.086
			c0.396,0,0.773-0.105,1.095-0.293c0.135-0.125,0.281-0.23,0.429-0.357c8.967-7.18,16.796-18.324,16.796-31.004
			c0-17.373-22.485-25.842-22.485-40.328c0-5.348,0.968-9.605,2.209-12.869c0.072-0.236,0.17-0.443,0.255-0.674
			c0.023-0.129,0.03-0.254,0.03-0.377c0-1.154-0.926-2.086-2.094-2.086c-0.383,0-0.76,0.107-1.07,0.299
			c-0.188,0.139-0.37,0.314-0.566,0.48c-6.246,5.412-13.681,14.574-13.681,27.441
			C1443.326,173.209,1465.385,173.397,1465.385,189.958z"/>
		<path fill="#F3F6DD" d="M1430.733,191.62c0,2.908-0.555,5.475-1.369,7.664c-0.085,0.238-0.17,0.445-0.27,0.676
			c-0.018,0.131-0.035,0.252-0.035,0.377c0,1.139,0.942,2.063,2.1,2.063c0.56,0,1.046-0.188,1.41-0.527
			c0.057-0.061,0.11-0.104,0.16-0.166c4.318-4.4,7.646-10.299,7.646-16.85c0-10.934-14.138-16.279-14.138-25.406
			c0-2.123,0.249-3.998,0.632-5.598c0.013-0.041,0.021-0.084,0.021-0.125c0.034-0.131,0.043-0.26,0.043-0.381
			c0-1.137-0.943-2.063-2.106-2.063c-0.542,0-1.033,0.215-1.398,0.551c-0.085,0.059-0.156,0.166-0.25,0.252
			c-3.259,3.477-6.331,8.508-6.331,15.061C1416.848,181.086,1430.733,181.215,1430.733,191.62z"/>
	</g>
	<path fill="#2FB6AE" d="M2833.051,222.307c-0.01-61.867-46.795-111.998-104.521-112.012
		c-57.715,0.014-104.5,50.145-104.512,112.012l0,0c0.012,61.859,46.797,111.996,104.512,112.008
		C2786.256,334.303,2833.042,284.167,2833.051,222.307L2833.051,222.307z M2784.516,215.303c-0.326-10.557-1.34-20.723-2.979-30.289
		c4.813,1.781,9.293,3.779,13.326,5.979c8.273,4.477,14.736,9.736,18.928,15.131c2.389,3.078,4.033,6.127,5.033,9.18H2784.516
		L2784.516,215.303z M2771.45,215.303h-36.377v-38.977c11.477,0.422,22.363,1.967,32.275,4.391
		C2769.612,191.331,2771.051,203.008,2771.45,215.303z M2735.073,162.311v-36.77c2.844,1.074,5.695,2.826,8.564,5.389
		c7.512,6.678,14.656,18.826,19.699,34.588C2754.403,163.747,2744.918,162.651,2735.073,162.311z M2713.432,130.93
		c2.873-2.563,5.725-4.314,8.564-5.389v36.77c-9.85,0.34-19.33,1.426-28.264,3.193c1.666-5.162,3.531-9.961,5.582-14.291
		C2703.491,142.358,2708.399,135.422,2713.432,130.93z M2721.997,176.315v38.984h-36.369c0.396-12.303,1.836-23.979,4.098-34.607
		C2699.633,178.272,2710.524,176.737,2721.997,176.315z M2672.542,215.303h-34.297c1.002-3.053,2.645-6.102,5.023-9.18
		c6.232-8.059,17.57-15.705,32.275-21.115C2673.893,194.579,2672.874,204.747,2672.542,215.303z M2672.555,229.309
		c0.314,10.553,1.326,20.725,2.977,30.287c-4.813-1.773-9.295-3.785-13.334-5.98c-8.262-4.477-14.725-9.734-18.928-15.125
		c-2.381-3.08-4.023-6.129-5.023-9.182H2672.555L2672.555,229.309z M2685.618,229.309h36.375v38.982
		c-11.479-0.43-22.363-1.975-32.279-4.393C2687.448,253.274,2686.018,241.61,2685.618,229.309z M2721.997,282.299v36.756
		c-2.842-1.063-5.693-2.813-8.564-5.369c-7.516-6.682-14.646-18.828-19.699-34.586
		C2702.667,280.866,2712.145,281.963,2721.997,282.299z M2743.639,313.686c-2.873,2.557-5.723,4.311-8.564,5.369v-36.756
		c9.844-0.348,19.33-1.428,28.264-3.193c-1.668,5.162-3.543,9.949-5.584,14.281C2753.571,302.26,2748.67,309.186,2743.639,313.686z
		 M2735.073,268.297v-38.988h36.369c-0.4,12.301-1.828,23.979-4.102,34.6C2757.438,266.333,2746.54,267.872,2735.073,268.297z
		 M2784.53,229.309h34.295c-1.002,3.053-2.645,6.104-5.033,9.182c-6.223,8.055-17.559,15.703-32.264,21.117
		C2783.178,250.03,2784.2,239.872,2784.53,229.309z M2813.901,187.182c-7.762-6.293-17.426-11.484-28.473-15.545
		c-2.383-0.883-4.832-1.68-7.336-2.445c-2.34-8.857-5.264-17.023-8.686-24.299c-2.438-5.152-5.143-9.871-8.094-14.078
		c12.059,4.971,22.891,12.572,31.877,22.195C2802.18,162.639,2809.27,174.256,2813.901,187.182z M2663.87,153.008
		c8.992-9.621,19.83-17.234,31.889-22.195c-5.867,8.328-10.713,18.689-14.506,30.521c-0.813,2.551-1.564,5.172-2.275,7.855
		c-8.266,2.51-15.889,5.639-22.668,9.307c-4.818,2.611-9.223,5.508-13.146,8.674C2647.799,174.25,2654.897,162.639,2663.87,153.008z
		 M2643.165,257.432c7.77,6.291,17.445,11.486,28.479,15.545c2.383,0.869,4.83,1.682,7.334,2.441
		c2.352,8.859,5.26,17.023,8.682,24.285c2.438,5.164,5.135,9.887,8.094,14.086c-12.051-4.963-22.883-12.566-31.877-22.189
		C2654.897,281.975,2647.799,270.354,2643.165,257.432z M2793.192,291.604c-8.986,9.625-19.828,17.229-31.883,22.191
		c5.873-8.324,10.713-18.686,14.504-30.52c0.811-2.549,1.568-5.182,2.279-7.854c8.266-2.52,15.891-5.635,22.672-9.303
		c4.814-2.617,9.217-5.512,13.137-8.688C2809.27,270.354,2802.18,281.975,2793.192,291.604z"/>
	<path fill="#F3F6DC" d="M2745.235,280.963v-5.904c0-1.113,0.842-2.02,1.881-2.02s1.881,0.904,1.881,2.02v5.906
		c0,1.111-0.842,2.018-1.881,2.018C2746.077,282.981,2745.235,282.079,2745.235,280.963z"/>
	<path fill="#F3F6DC" d="M2735.016,284.983c0.346,0.645,0.979,1.008,1.627,1.008c0.318,0,0.645-0.084,0.939-0.27
		c0.898-0.559,1.207-1.791,0.688-2.756l-3.535-6.559c-0.518-0.969-1.67-1.295-2.566-0.74c-0.898,0.559-1.207,1.791-0.689,2.754
		L2735.016,284.983z"/>
	<path fill="#F3F6DC" d="M2719.711,288.79l8.32,5.148c0.297,0.184,0.619,0.27,0.939,0.27c0.646,0,1.281-0.359,1.629-1.008
		c0.52-0.965,0.213-2.195-0.688-2.754l-8.322-5.146c-0.896-0.561-2.049-0.227-2.564,0.736
		C2718.502,286.999,2718.813,288.233,2719.711,288.79z"/>
	<path fill="#F3F6DC" d="M2720.653,305.434h5.514c1.037,0,1.881-0.9,1.881-2.016c0-1.113-0.844-2.016-1.881-2.016h-5.514
		c-1.037,0-1.883,0.902-1.883,2.016C2718.77,304.534,2719.616,305.434,2720.653,305.434z"/>
	<path fill="#F3F6DC" d="M2766.19,303.418c0,1.111,0.84,2.016,1.879,2.016l6.895,0.002c1.039,0,1.881-0.902,1.881-2.018
		c0-1.111-0.842-2.016-1.881-2.016h-6.895C2767.03,301.405,2766.19,302.307,2766.19,303.418z"/>
	<path fill="#F3F6DC" d="M2763.631,293.198c0.352,0.646,0.982,1.008,1.633,1.008c0.318,0,0.643-0.086,0.938-0.27l5.953-3.684
		c0.902-0.555,1.209-1.789,0.689-2.752c-0.518-0.965-1.666-1.295-2.566-0.738l-5.953,3.682
		C2763.424,291,2763.116,292.235,2763.631,293.198z"/>
	<path fill="#F3F6DC" d="M2756.651,285.717c0.297,0.184,0.619,0.271,0.939,0.271c0.648,0,1.283-0.361,1.629-1.008l6.135-11.383
		c0.52-0.969,0.211-2.197-0.689-2.752c-0.896-0.561-2.047-0.23-2.564,0.734l-6.137,11.385
		C2755.446,283.928,2755.754,285.159,2756.651,285.717z"/>
	<path fill="#F3F6DC" d="M2794.985,339.149c0-3.355-2.543-6.078-5.668-6.078h-3.967c0,0.047,0.004,0.092,0.004,0.137v7.854
		c0,1.113-0.842,2.014-1.881,2.014c-1.035,0-1.881-0.9-1.881-2.014v-7.854c0-3.35-2.543-6.076-5.666-6.076h-4.207v8.744
		c0,1.113-0.84,2.016-1.879,2.016s-1.883-0.902-1.883-2.016v-9.189c0-3.354-2.545-6.076-5.67-6.076h-5.742v15.264
		c0,1.113-0.842,2.016-1.881,2.016c-1.037,0-1.881-0.902-1.881-2.016v-33.281c0-3.352-2.543-6.074-5.668-6.074
		c-3.127,0-5.67,2.723-5.67,6.074v50.85c0,1.115-0.842,2.02-1.881,2.02c-1.041,0-1.883-0.902-1.883-2.02v-8.746
		c-0.01-0.014-0.021-0.025-0.033-0.037c-7.877-11.336-10.24-9.766-12.525-8.25c-1.789,1.189-2.197,2.236-2.346,2.916
		c-0.41,1.883,0.549,4.844,2.84,8.803c4.189,7.221,17.129,29.98,19.684,34.469c0.67,1.188,1.135,2.756,1.287,4.281h41.051
		c2.174-6.082,6.461-15.52,7.342-20.621c1.152-6.678,0-27.105,0-27.105h0.004V339.149z"/>
	<circle fill="#065C95" cx="1868.272" cy="300.583" r="17.685"/>
	<circle fill="#065C95" cx="1909.522" cy="300.084" r="17.684"/>
	<path fill="#F3F6DD" d="M2011.077,246.915c0-29.008-23.592-52.602-52.6-52.602c-12.767,0-24.479,4.58-33.598,12.17h-27.387v-0.988
		c-0.723,0.047-1.449,0.08-2.182,0.08c-0.73,0-1.455-0.029-2.177-0.074c-1.248,0.021-2.501-0.018-3.755-0.137v1.119h-35.557
		c-9.069-7.432-20.655-11.9-33.271-11.9c-29.004,0-52.601,23.598-52.601,52.602c0,10.061,2.888,19.432,7.806,27.43l-4.799,69.969
		c0,17.799,14.479,32.277,32.277,32.277c14.364,0,26.79-9.244,30.882-22.895l13.886-42.088c4.207,7.307,12.076,12.246,21.096,12.246
		c8.461,0,15.916-4.344,20.281-10.912c4.364,6.568,11.82,10.912,20.283,10.912c9.446,0,17.638-5.424,21.67-13.309l14.198,43.039
		c4.126,13.76,16.556,23.006,30.917,23.006c17.801,0,32.279-14.48,32.271-32.555l-4.871-70.904
		C2008.413,265.612,2011.077,256.579,2011.077,246.915z"/>
	<path fill="#02467F" d="M1958.343,133.467v32.451c0,6.709-5.461,12.168-12.17,12.168c-6.711,0-12.169-5.459-12.169-12.168v-10.143
		c0-12.299-10.012-22.311-22.312-22.311c-12.299,0-22.313,10.012-22.313,22.311v50.896c2.456,0.166,5.322,0.199,8.112,0.166v-51.063
		c0-7.828,6.37-14.197,14.199-14.197c7.828,0,14.197,6.369,14.197,14.197v10.143c0,11.186,9.099,20.283,20.282,20.283
		c11.185,0,20.282-9.1,20.282-20.283v-32.451H1958.343z"/>
	<g>
		<path fill="#02467F" d="M1815.784,237.002c0.645,0.516,1.433,0.783,2.215,0.783c0.783,0,1.568-0.264,2.217-0.783l4.743-3.844
			c0.822-0.67,1.299-1.666,1.299-2.729v-7.684c0-1.936-1.579-3.508-3.514-3.508h-9.489c-1.939,0-3.508,1.572-3.508,3.508v7.684
			c0,1.063,0.477,2.059,1.298,2.729L1815.784,237.002z"/>
		<path fill="#02467F" d="M1820.209,252.221c-1.293-1.047-3.139-1.047-4.426,0l-4.744,3.844c-0.821,0.666-1.299,1.666-1.299,2.729
			v7.684c0,1.941,1.566,3.514,3.509,3.514h9.489c1.936,0,3.513-1.572,3.513-3.514v-7.684c0-1.057-0.475-2.063-1.298-2.729
			L1820.209,252.221z"/>
		<path fill="#02467F" d="M1839.863,236.354h-7.688c-1.057,0-2.063,0.471-2.729,1.299l-3.844,4.744c-1.048,1.285-1.048,3.133,0,4.42
			l3.844,4.75c0.665,0.828,1.666,1.303,2.729,1.303h7.688c1.937,0,3.509-1.572,3.509-3.506v-9.496
			C1843.372,237.926,1841.799,236.354,1839.863,236.354z"/>
		<path fill="#02467F" d="M1810.383,242.397l-3.842-4.744c-0.666-0.828-1.667-1.299-2.729-1.299h-7.683
			c-1.941,0-3.514,1.572-3.514,3.508v9.494c0,1.938,1.571,3.51,3.514,3.51h7.683c1.063,0,2.069-0.477,2.729-1.305l3.842-4.748
			C1811.43,245.53,1811.43,243.69,1810.383,242.397z"/>
		<path fill="#02467F" d="M1947.327,237.256h-7.841c-1.831,0-3.312,1.48-3.312,3.307v7.844c0,1.832,1.479,3.307,3.312,3.307h7.841
			c1.825,0,3.306-1.479,3.306-3.307v-7.844C1950.632,238.737,1949.152,237.256,1947.327,237.256z"/>
		<path fill="#02467F" d="M1958.881,227.456h11.229c0.014,0.006,0.031,0,0.043,0c1.824,0,3.305-1.479,3.305-3.307
			c0-0.764-0.258-1.463-0.689-2.025l-5.375-9.703c-0.585-1.053-1.688-1.699-2.891-1.699c-1.206,0-2.311,0.652-2.889,1.699
			l-5.612,10.125c-0.563,1.025-0.552,2.273,0.042,3.283C1956.63,226.834,1957.716,227.456,1958.881,227.456z"/>
		<path fill="#02467F" d="M1967.255,273.907c0.643,0.646,1.484,0.969,2.327,0.969c0.848,0,1.695-0.32,2.338-0.969
			c1.289-1.289,1.289-3.385,0-4.674l-2.755-2.754l2.755-2.748c1.289-1.291,1.289-3.391,0-4.674c-1.291-1.285-3.386-1.291-4.677,0
			l-2.747,2.758l-2.755-2.754c-1.288-1.295-3.383-1.295-4.679,0c-1.288,1.291-1.288,3.385,0,4.67l2.755,2.748l-2.75,2.754
			c-1.293,1.295-1.293,3.395,0,4.678c0.643,0.645,1.489,0.977,2.334,0.977c0.842,0,1.688-0.326,2.336-0.977l2.753-2.752
			L1967.255,273.907z"/>
		<ellipse fill="#02467F" cx="1988.377" cy="245.234" rx="7.732" ry="7.327"/>
	</g>
	<g>
		
			<rect x="2189.649" y="185.243" fill="none" stroke="#02467F" stroke-width="6.1543" stroke-linecap="round" stroke-linejoin="round" stroke-miterlimit="10" width="32.676" height="5.791"/>
		
			<rect x="2189.649" y="333.508" fill="none" stroke="#02467F" stroke-width="6.1543" stroke-linecap="round" stroke-linejoin="round" stroke-miterlimit="10" width="32.676" height="5.787"/>
		
			<rect x="2189.649" y="306.909" fill="none" stroke="#02467F" stroke-width="6.1543" stroke-linecap="round" stroke-linejoin="round" stroke-miterlimit="10" width="32.676" height="5.789"/>
		
			<rect x="2189.649" y="282.315" fill="none" stroke="#02467F" stroke-width="6.1543" stroke-linecap="round" stroke-linejoin="round" stroke-miterlimit="10" width="32.676" height="5.789"/>
		
			<rect x="2189.649" y="258.819" fill="none" stroke="#02467F" stroke-width="6.1543" stroke-linecap="round" stroke-linejoin="round" stroke-miterlimit="10" width="32.676" height="5.791"/>
		
			<rect x="2189.649" y="234.432" fill="none" stroke="#02467F" stroke-width="6.1543" stroke-linecap="round" stroke-linejoin="round" stroke-miterlimit="10" width="32.676" height="5.793"/>
		
			<rect x="2189.649" y="210.497" fill="none" stroke="#02467F" stroke-width="6.1543" stroke-linecap="round" stroke-linejoin="round" stroke-miterlimit="10" width="32.676" height="5.793"/>
		
			<rect x="2400.176" y="185.684" fill="none" stroke="#02467F" stroke-width="6.1543" stroke-linecap="round" stroke-linejoin="round" stroke-miterlimit="10" width="32.67" height="5.793"/>
		
			<rect x="2400.176" y="335.948" fill="none" stroke="#02467F" stroke-width="6.1543" stroke-linecap="round" stroke-linejoin="round" stroke-miterlimit="10" width="32.67" height="5.793"/>
		
			<rect x="2400.176" y="309.354" fill="none" stroke="#02467F" stroke-width="6.1543" stroke-linecap="round" stroke-linejoin="round" stroke-miterlimit="10" width="32.67" height="5.791"/>
		
			<rect x="2400.176" y="284.749" fill="none" stroke="#02467F" stroke-width="6.1543" stroke-linecap="round" stroke-linejoin="round" stroke-miterlimit="10" width="32.67" height="5.787"/>
		
			<rect x="2400.176" y="261.249" fill="none" stroke="#02467F" stroke-width="6.1543" stroke-linecap="round" stroke-linejoin="round" stroke-miterlimit="10" width="32.67" height="5.791"/>
		
			<rect x="2400.176" y="236.877" fill="none" stroke="#02467F" stroke-width="6.1543" stroke-linecap="round" stroke-linejoin="round" stroke-miterlimit="10" width="32.67" height="5.791"/>
		
			<rect x="2400.176" y="211.94" fill="none" stroke="#02467F" stroke-width="6.1543" stroke-linecap="round" stroke-linejoin="round" stroke-miterlimit="10" width="32.67" height="5.793"/>
		
			<rect x="2377.663" y="130.17" fill="none" stroke="#02467F" stroke-width="6.1543" stroke-linecap="round" stroke-linejoin="round" stroke-miterlimit="10" width="5.402" height="35.014"/>
		
			<rect x="2237.719" y="130.17" fill="none" stroke="#02467F" stroke-width="6.1543" stroke-linecap="round" stroke-linejoin="round" stroke-miterlimit="10" width="5.406" height="35.014"/>
		
			<rect x="2262.538" y="130.17" fill="none" stroke="#02467F" stroke-width="6.1543" stroke-linecap="round" stroke-linejoin="round" stroke-miterlimit="10" width="5.402" height="35.014"/>
		
			<rect x="2285.489" y="130.17" fill="none" stroke="#02467F" stroke-width="6.1543" stroke-linecap="round" stroke-linejoin="round" stroke-miterlimit="10" width="5.404" height="35.014"/>
		
			<rect x="2307.407" y="130.17" fill="none" stroke="#02467F" stroke-width="6.1543" stroke-linecap="round" stroke-linejoin="round" stroke-miterlimit="10" width="5.41" height="35.014"/>
		
			<rect x="2330.159" y="130.17" fill="none" stroke="#02467F" stroke-width="6.1543" stroke-linecap="round" stroke-linejoin="round" stroke-miterlimit="10" width="5.408" height="35.014"/>
		
			<rect x="2352.493" y="130.17" fill="none" stroke="#02467F" stroke-width="6.1543" stroke-linecap="round" stroke-linejoin="round" stroke-miterlimit="10" width="5.404" height="35.014"/>
		
			<rect x="2376.381" y="355.803" fill="none" stroke="#02467F" stroke-width="6.1543" stroke-linecap="round" stroke-linejoin="round" stroke-miterlimit="10" width="5.4" height="35.004"/>
		
			<rect x="2235.434" y="355.803" fill="none" stroke="#02467F" stroke-width="6.1543" stroke-linecap="round" stroke-linejoin="round" stroke-miterlimit="10" width="5.402" height="35.004"/>
		
			<rect x="2260.249" y="355.803" fill="none" stroke="#02467F" stroke-width="6.1543" stroke-linecap="round" stroke-linejoin="round" stroke-miterlimit="10" width="5.408" height="35.004"/>
		
			<rect x="2283.208" y="355.803" fill="none" stroke="#02467F" stroke-width="6.1543" stroke-linecap="round" stroke-linejoin="round" stroke-miterlimit="10" width="5.406" height="35.004"/>
		
			<rect x="2305.127" y="355.803" fill="none" stroke="#02467F" stroke-width="6.1543" stroke-linecap="round" stroke-linejoin="round" stroke-miterlimit="10" width="5.4" height="35.004"/>
		
			<rect x="2327.87" y="355.803" fill="none" stroke="#02467F" stroke-width="6.1543" stroke-linecap="round" stroke-linejoin="round" stroke-miterlimit="10" width="5.402" height="35.004"/>
		
			<rect x="2350.217" y="355.803" fill="none" stroke="#02467F" stroke-width="6.1543" stroke-linecap="round" stroke-linejoin="round" stroke-miterlimit="10" width="5.406" height="35.004"/>
		<path fill="#02467F" d="M2405.506,360.329h-188.662V158.139h188.662V360.329z"/>
		<path fill="#2FB6AE" d="M2392.051,345.889h-161.754V172.54h161.754V345.889z"/>
		<path fill="#02467F" d="M2372.323,324.834H2249.87V193.596h122.453V324.834z"/>
	</g>
	<path fill="#F3F6DD" d="M566.943,315.108l6.642,7.117l43.643-46.773c12.808,12.205,29.414,18.814,46.491,18.814
		c18.976,0,36.528-8.139,50.285-22.373c13.283-14.234,20.873-33.557,20.873-53.893s-7.589-39.148-20.873-53.895
		c-13.283-14.234-31.309-22.369-50.285-22.369c-18.975,0-36.529,8.135-50.286,22.369c-26.565,28.473-27.514,73.723-3.32,103.721
		L566.943,315.108z"/>
	<path fill="#2FB6AE" d="M621.021,172.243c11.387-12.203,27.042-19.32,43.17-19.32c16.129,0,31.785,6.609,43.169,19.32
		c11.385,12.711,18.027,28.98,18.027,46.266c0,17.287-6.167,34.066-18.027,46.268c-11.385,12.203-27.04,19.322-43.169,19.322
		c-16.128,0-31.783-6.613-43.17-19.322C596.829,239.354,596.829,197.663,621.021,172.243z"/>
	<polygon fill="#F3F6DD" points="536.75,381.692 511.594,354.727 557.885,305.118 583.042,332.081 	"/>
	<g>
		<polygon fill="#F3F6DD" points="532.786,203.256 539.427,203.256 539.427,160.04 524.72,160.04 524.72,166.647 532.786,166.647 		
			"/>
		<path fill="#F3F6DD" d="M565.045,203.764c5.691,0,9.487-2.033,12.333-6.102c2.847-4.066,4.269-9.658,4.269-16.27
			s-1.421-12.203-4.269-16.271c-2.846-4.066-7.116-6.1-12.333-6.1c-5.692,0-9.489,2.033-12.335,6.1
			c-2.846,4.068-4.269,9.66-4.269,16.271c0,6.609,1.423,12.201,4.269,16.27C555.556,201.731,559.354,203.764,565.045,203.764z
			 M557.455,169.7c1.423-3.053,4.27-4.576,7.591-4.576c3.319,0,5.691,1.523,7.589,4.576c1.423,3.049,2.372,7.119,2.372,11.693
			c0,5.084-0.949,8.645-2.372,11.695c-1.424,3.051-4.271,4.574-7.589,4.574c-3.321,0-5.692-1.523-7.591-4.574
			c-1.423-3.053-2.371-6.611-2.371-11.695S556.032,172.749,557.455,169.7z"/>
		<path fill="#F3F6DD" d="M531.835,280.536c5.694,0,9.489-2.035,12.335-6.1c2.848-4.068,4.271-9.662,4.271-16.271
			c0-6.607-1.423-12.203-4.271-16.27c-2.846-4.068-7.115-6.102-12.335-6.102c-5.691,0-9.486,2.033-12.333,6.102
			c-2.846,4.066-4.27,9.66-4.27,16.27s1.423,12.203,4.27,16.271C522.349,277.995,526.144,280.536,531.835,280.536z M524.247,245.961
			c1.423-3.049,4.269-4.576,7.588-4.576c3.321,0,5.694,1.527,7.592,4.576c1.422,3.053,2.374,7.119,2.374,11.695
			c0,5.086-0.952,8.645-2.374,11.695c-1.424,3.047-4.271,4.574-7.592,4.574c-3.319,0-5.691-1.527-7.588-4.574
			c-1.423-3.053-2.374-7.121-2.374-11.695C521.873,253.081,522.824,249.014,524.247,245.961z"/>
		<polygon fill="#F3F6DD" points="568.364,280.03 568.364,236.301 553.66,236.301 553.66,242.913 561.724,242.913 561.724,280.03 		
			"/>
		<path fill="#F3F6DD" d="M618.175,320.192c-5.692,0-9.486,2.033-12.333,6.102c-2.847,4.07-4.271,9.66-4.271,16.271
			c0,6.607,1.424,12.203,4.271,16.27c2.847,4.068,7.115,6.104,12.333,6.104c5.694,0,9.488-2.035,12.335-6.104
			c2.846-4.066,4.269-9.66,4.269-16.27s-1.423-12.201-4.269-16.271C627.663,322.225,623.395,320.192,618.175,320.192z
			 M625.291,354.766c-1.422,3.051-4.27,4.574-7.59,4.574s-5.691-1.523-7.589-4.574c-1.423-3.053-2.374-7.117-2.374-11.695
			c0-5.082,0.951-8.641,2.374-11.691c1.423-3.055,4.269-4.576,7.589-4.576c3.32,0,5.694,1.521,7.59,4.576
			c1.424,3.051,2.372,7.115,2.372,11.691C627.663,347.649,627.188,351.713,625.291,354.766z"/>
		<polygon fill="#F3F6DD" points="639.523,327.821 648.063,327.821 648.063,364.936 654.704,364.936 654.704,321.211 
			639.523,321.211 		"/>
		<path fill="#F3F6DD" d="M680.321,320.192c-5.693,0-9.488,2.033-12.334,6.102c-2.846,4.07-4.27,9.66-4.27,16.271
			c0,6.607,1.423,12.203,4.27,16.27c2.847,4.068,7.115,6.104,12.334,6.104c5.693,0,9.487-2.035,12.333-6.104
			c2.846-4.066,4.271-9.66,4.271-16.27s-1.425-12.201-4.271-16.271C689.808,322.225,685.54,320.192,680.321,320.192z
			 M687.912,354.766c-1.423,3.051-4.27,4.574-7.591,4.574c-3.32,0-5.693-1.523-7.589-4.574c-1.423-3.053-2.372-7.117-2.372-11.695
			c0-5.082,0.949-8.641,2.372-11.691c1.423-3.055,4.27-4.576,7.589-4.576c3.321,0,5.693,1.521,7.591,4.576
			c1.424,3.051,2.372,7.115,2.372,11.691C690.284,347.649,689.336,351.713,687.912,354.766z"/>
		<polygon fill="#F3F6DD" points="702.144,327.821 710.208,327.821 710.208,364.936 716.851,364.936 716.851,321.211 
			702.144,321.211 		"/>
	</g>
	<g>
		<polygon fill="#FDFFE6" points="625.137,247.489 633.203,247.489 633.203,193.596 614.701,193.596 614.701,201.731 
			625.137,201.731 		"/>
		<path fill="#FDFFE6" d="M664.987,247.997c6.641,0,11.86-2.541,15.181-7.623c3.32-5.086,5.217-11.695,5.217-20.342
			c0-8.643-1.897-15.252-5.217-20.334c-3.321-5.086-8.54-7.625-15.181-7.625c-6.642,0-11.86,2.539-15.179,7.625
			c-3.321,5.082-5.22,11.691-5.22,20.334c0,8.646,1.898,15.256,5.22,20.342C652.655,245.456,657.872,247.997,664.987,247.997z
			 M655.5,205.797c1.898-3.559,5.218-5.594,9.488-5.594c4.269,0,7.115,2.035,9.488,5.594c1.897,3.561,2.846,8.645,2.846,14.744
			c0,6.102-0.949,11.188-2.846,14.746c-1.897,3.557-5.219,5.592-9.488,5.592c-4.27,0-7.115-2.035-9.488-5.592
			c-1.897-3.561-2.845-8.645-2.845-14.746C652.655,214.442,653.603,209.358,655.5,205.797z"/>
		<polygon fill="#FDFFE6" points="701.99,247.489 710.054,247.489 710.054,193.596 691.554,193.596 691.554,201.731 701.99,201.731 
					"/>
	</g>
</g>
<g id="Layer_25">
</g>
<g id="Layer_24">
</g>
<g id="Layer_23">
</g>
<g id="Layer_22">
</g>
<g id="Layer_21">
</g>
<g id="Layer_20">
</g>
<g id="Layer_19">
</g>
<g id="Layer_18">
</g>
<g id="Layer_17">
</g>
<g id="Layer_16">
</g>
<g id="Layer_15">
</g>
<g id="Layer_14">
</g>
<g id="Layer_13">
</g>
<g id="Layer_12">
</g>
<g id="Layer_11">
</g>
<g id="Layer_10">
</g>
<g id="Layer_9">
	<path fill="#02467F" d="M923.523,333.739h229.068c7.643,0,13.859-6.221,13.859-13.865V173.526c0-7.643-6.218-13.861-13.859-13.861
		H923.523c-7.645,0-13.858,6.221-13.858,13.861v146.346C909.664,327.518,915.878,333.739,923.523,333.739z"/>
	<path fill="#02467F" d="M1174.863,337.831h-108.172c-2.542,0-4.316,1.775-4.316,4.318v2.043h-48.628v-2.043
		c0-2.543-1.775-4.318-4.319-4.318H901.253c-2.543,0-4.316,1.775-4.316,4.318v9.539c0,7.645,6.219,13.865,13.861,13.865h254.519
		c7.646,0,13.863-6.221,13.863-13.865v-9.539C1179.184,339.606,1177.406,337.831,1174.863,337.831z"/>
	<path fill="#2FB6AE" d="M922.386,314.649h231.343V185.116H922.386V314.649z"/>
	<g>
		<path fill="#065C95" d="M996.013,245.825l29.904-13.893v6.604l-22.615,9.904v0.125l22.615,9.906v6.604l-29.904-13.893V245.825z"/>
		<path fill="#065C95" d="M1030.53,267.569l13.333-45.17h6.292l-13.333,45.17H1030.53z"/>
		<path fill="#065C95" d="M1083.673,251.37l-29.903,13.707v-6.604l23.113-9.906v-0.125l-23.113-9.906v-6.604l29.903,13.707V251.37z"
			/>
	</g>
	<path fill="#F3F6DC" d="M1038.057,179.817c2.547,0,4.32-1.775,4.32-4.316c0-2.545-1.773-4.32-4.32-4.32
		c-2.539,0-4.314,1.775-4.314,4.32C1033.742,178.042,1035.518,179.817,1038.057,179.817z"/>
</g>
</svg>
