<?xml version="1.0" encoding="utf-8"?>
<!-- Generator: Adobe Illustrator 16.0.0, SVG Export Plug-In . SVG Version: 6.00 Build 0)  -->
<!DOCTYPE svg PUBLIC "-//W3C//DTD SVG 1.1//EN" "http://www.w3.org/Graphics/SVG/1.1/DTD/svg11.dtd">
<svg version="1.1" id="Layer_1" xmlns="http://www.w3.org/2000/svg" xmlns:xlink="http://www.w3.org/1999/xlink" x="0px" y="0px"
	 width="193px" height="368px" viewBox="0 0 193 368" enable-background="new 0 0 193 368" xml:space="preserve">
<g>
	<g>
		<line fill="#E8D3C3" x1="97.401" y1="128.261" x2="96.759" y2="151.59"/>
		<polygon fill="#CFB49D" points="108.517,128.567 104.669,151.808 88.849,151.372 86.286,127.954 		"/>
		<g>
			<polygon fill="#E8CDB7" points="109.718,128.6 109.456,130.054 85.267,129.388 85.085,127.922 			"/>
			<polygon fill="#E8CDB7" points="109.37,130.526 109.107,131.98 85.508,131.331 85.326,129.864 			"/>
			<polygon fill="#E8CDB7" points="109.022,132.453 108.76,133.907 85.749,133.273 85.567,131.808 			"/>
			<polygon fill="#E8CDB7" points="108.675,134.38 108.412,135.834 85.99,135.217 85.809,133.75 			"/>
			<polygon fill="#E8CDB7" points="108.327,136.307 108.064,137.761 86.231,137.159 86.05,135.692 			"/>
			<polygon fill="#E8CDB7" points="107.979,138.233 107.717,139.688 86.473,139.103 86.291,137.636 			"/>
			<polygon fill="#E8CDB7" points="107.632,140.16 107.369,141.614 86.714,141.045 86.532,139.579 			"/>
			<polygon fill="#E8CDB7" points="107.283,142.087 107.021,143.54 86.955,142.988 86.773,141.521 			"/>
			<polygon fill="#E8CDB7" points="106.936,144.013 106.673,145.467 87.196,144.931 87.015,143.464 			"/>
			<polygon fill="#E8CDB7" points="106.588,145.939 106.325,147.394 87.438,146.874 87.256,145.407 			"/>
			<polygon fill="#E8CDB7" points="106.24,147.866 105.978,149.32 87.679,148.816 87.497,147.351 			"/>
			<polygon fill="#E8CDB7" points="105.893,149.793 105.63,151.247 87.92,150.759 87.737,149.293 			"/>
			<polygon fill="#E8CDB7" points="105.545,151.72 105.524,151.831 87.993,151.349 87.979,151.235 			"/>
		</g>
	</g>
	<g>
		<path fill="#CFB49D" d="M128.884,150.057c0,0,0.196,0.245,0.565,0.702c0.193,0.248,0.432,0.552,0.712,0.911
			c0.255,0.34,0.547,0.731,0.875,1.169c0.652,0.875,1.391,1.951,2.22,3.197c0.808,1.253,1.742,2.653,2.642,4.243
			c0.949,1.563,1.874,3.307,2.866,5.142c0.954,1.854,1.895,3.843,2.845,5.904c0.883,2.095,1.881,4.215,2.647,6.477
			c0.408,1.117,0.819,2.244,1.231,3.375c0.383,1.142,0.726,2.304,1.088,3.454c0.773,2.287,1.304,4.651,1.858,6.959
			c0.612,2.289,0.95,4.612,1.367,6.826c0.469,2.202,0.594,4.397,0.833,6.442c0.102,1.026,0.225,2.019,0.298,2.984
			c0.036,0.97,0.071,1.906,0.104,2.805c0.049,1.797,0.163,3.432,0.138,4.887c-0.021,1.455-0.212,2.731-0.563,3.777
			c-0.317,1.045-0.793,1.859-1.139,2.409c-0.192,0.274-0.337,0.484-0.468,0.625c-0.119,0.141-0.181,0.213-0.181,0.213
			s-0.066-0.072-0.196-0.213c-0.141-0.14-0.301-0.348-0.513-0.615c-0.385-0.538-0.917-1.318-1.309-2.302
			c-0.424-0.983-0.703-2.172-0.827-3.542c-0.177-1.368-0.519-2.897-0.812-4.564c-0.154-0.831-0.315-1.696-0.481-2.593
			c-0.202-0.89-0.457-1.801-0.693-2.74c-0.493-1.874-0.943-3.854-1.619-5.854c-0.647-2.005-1.214-4.094-2.052-6.142
			c-0.389-1.029-0.78-2.067-1.174-3.108c-0.386-1.042-0.883-2.051-1.302-3.084c-0.443-1.024-0.863-2.056-1.321-3.066
			c-0.485-0.999-0.97-1.993-1.45-2.98c-0.473-0.988-0.95-1.963-1.477-2.901c-0.501-0.948-0.996-1.885-1.483-2.807
			c-1.021-1.815-2.03-3.558-3.027-5.18c-1.004-1.618-1.936-3.156-2.879-4.517c-1.82-2.77-3.461-4.963-4.591-6.471
			c-0.285-0.372-0.54-0.704-0.762-0.992c-0.208-0.261-0.386-0.482-0.53-0.662c-0.317-0.385-0.487-0.59-0.487-0.59L128.884,150.057z"
			/>
		<g>
			<polygon fill="#E8CDB7" points="129.434,149.78 131.322,152.213 121.206,160.32 119.289,157.911 			"/>
			<polygon fill="#E8CDB7" points="131.894,152.986 133.634,155.526 123.179,162.98 121.347,160.506 			"/>
			<polygon fill="#E8CDB7" points="134.09,156.214 135.728,158.823 125.152,165.807 123.396,163.276 			"/>
			<polygon fill="#E8CDB7" points="136.142,159.51 137.669,162.186 127.078,168.699 125.38,166.129 			"/>
			<polygon fill="#E8CDB7" points="138.054,162.871 139.495,165.594 128.924,171.656 127.302,169.038 			"/>
			<polygon fill="#E8CDB7" points="139.85,166.291 141.181,169.072 130.72,174.66 129.148,172.007 			"/>
			<polygon fill="#E8CDB7" points="141.513,169.774 142.759,172.593 132.428,177.72 130.938,175.023 			"/>
			<path fill="#E8CDB7" d="M143.067,173.299c0,0,0.289,0.715,0.578,1.429c0.282,0.718,0.563,1.437,0.563,1.437l-10.145,4.661
				c0,0-0.361-0.682-0.722-1.363c-0.354-0.685-0.708-1.37-0.708-1.37L143.067,173.299z"/>
			<polygon fill="#E8CDB7" points="144.488,176.88 145.529,179.784 135.63,183.974 134.27,181.204 			"/>
			<polygon fill="#E8CDB7" points="145.785,180.506 146.736,183.441 137.101,187.175 135.825,184.364 			"/>
			<path fill="#E8CDB7" d="M146.969,184.168c0,0,0.214,0.74,0.429,1.48c0.208,0.743,0.416,1.486,0.416,1.486l-9.33,3.282
				c0,0-0.304-0.71-0.606-1.419c-0.296-0.712-0.593-1.423-0.593-1.423L146.969,184.168z"/>
			<polygon fill="#E8CDB7" points="148.014,187.866 148.741,190.866 139.794,193.697 138.663,190.824 			"/>
			<polygon fill="#E8CDB7" points="148.916,191.596 149.545,194.619 140.998,197.021 139.961,194.111 			"/>
			<polygon fill="#E8CDB7" points="149.695,195.351 150.224,198.394 142.093,200.388 141.153,197.446 			"/>
			<polygon fill="#E8CDB7" points="150.348,199.124 150.746,202.189 143.102,203.792 142.235,200.825 			"/>
			<polygon fill="#E8CDB7" points="150.836,202.92 151.116,205.994 144.011,207.229 143.237,204.24 			"/>
			<polygon fill="#E8CDB7" points="151.18,206.72 151.352,209.805 144.801,210.706 144.132,207.689 			"/>
			<polygon fill="#E8CDB7" points="151.389,210.523 151.449,213.614 145.466,214.22 144.906,211.18 			"/>
			<path fill="#E8CDB7" d="M151.459,214.325c0,0-0.013,0.772-0.025,1.546c0.007,0.771-0.118,1.552-0.118,1.552l-5.22,0.336
				c0,0-0.225-0.758-0.316-1.523c-0.112-0.765-0.225-1.529-0.225-1.529L151.459,214.325z"/>
			<path fill="#E8CDB7" d="M151.198,218.123c0,0-0.041,0.194-0.134,0.486c-0.084,0.291-0.221,0.68-0.391,1.07
				c-0.159,0.39-0.37,0.781-0.538,1.074c-0.175,0.294-0.313,0.49-0.313,0.49l-2.012,0.056c0,0-0.148-0.188-0.339-0.473
				c-0.184-0.284-0.416-0.663-0.597-1.044c-0.19-0.38-0.349-0.761-0.448-1.047c-0.108-0.286-0.16-0.478-0.16-0.478L151.198,218.123z
				"/>
			<path fill="#E8CDB7" d="M149.371,221.871c0.001,0-0.105,0.172-0.259,0.344c-0.144,0.172-0.288,0.344-0.288,0.344
				s-0.145-0.171-0.29-0.343c-0.153-0.171-0.261-0.343-0.261-0.343L149.371,221.871z"/>
		</g>
	</g>
	<g>
		<path fill="#CFB49D" d="M73.705,158.463c0,0-0.153,0.218-0.44,0.627c-0.129,0.19-0.289,0.425-0.477,0.701
			c-0.198,0.305-0.426,0.656-0.682,1.048c-1.008,1.592-2.472,3.908-4.07,6.81c-0.834,1.431-1.643,3.037-2.517,4.729
			c-0.866,1.695-1.736,3.512-2.612,5.401c-0.414,0.956-0.834,1.929-1.26,2.913c-0.451,0.977-0.851,1.986-1.245,3.009
			c-0.401,1.021-0.806,2.051-1.213,3.085c-0.377,1.043-0.715,2.104-1.077,3.16c-0.336,1.063-0.753,2.107-1.056,3.177
			c-0.311,1.069-0.62,2.134-0.927,3.19c-0.675,2.107-1.076,4.234-1.564,6.283c-0.518,2.048-0.811,4.057-1.157,5.964
			c-0.161,0.954-0.344,1.884-0.476,2.786c-0.096,0.906-0.188,1.782-0.277,2.623c-0.161,1.684-0.382,3.235-0.452,4.613
			c-0.016,1.376-0.201,2.582-0.547,3.596c-0.313,1.011-0.783,1.831-1.125,2.396c-0.19,0.284-0.333,0.504-0.462,0.654
			c-0.118,0.15-0.179,0.228-0.179,0.228s-0.067-0.067-0.197-0.198c-0.141-0.13-0.302-0.327-0.515-0.587
			c-0.388-0.521-0.925-1.295-1.324-2.313c-0.432-1.015-0.721-2.272-0.856-3.722c-0.14-1.448-0.154-3.087-0.245-4.882
			c-0.037-0.898-0.075-1.835-0.115-2.805c-0.002-0.968,0.042-1.967,0.063-2.998c0.078-2.058,0.032-4.256,0.327-6.488
			c0.242-2.239,0.397-4.582,0.828-6.912c0.372-2.344,0.716-4.743,1.308-7.083c0.272-1.176,0.522-2.36,0.814-3.529
			c0.323-1.159,0.645-2.314,0.964-3.461c0.587-2.314,1.416-4.507,2.132-6.664c0.786-2.129,1.568-4.185,2.374-6.108
			c0.845-1.907,1.631-3.719,2.455-5.351c0.772-1.655,1.595-3.124,2.302-4.437c0.729-1.308,1.381-2.438,1.962-3.361
			c0.292-0.462,0.553-0.875,0.78-1.234c0.251-0.379,0.465-0.702,0.639-0.963c0.332-0.485,0.509-0.744,0.509-0.744L73.705,158.463z"
			/>
		<g>
			<polygon fill="#E8CDB7" points="74.274,158.696 72.552,161.247 61.832,153.957 63.524,151.384 			"/>
			<polygon fill="#E8CDB7" points="72.426,161.443 70.793,164.054 59.787,157.441 61.323,154.772 			"/>
			<polygon fill="#E8CDB7" points="70.599,164.366 69.047,167.026 57.958,160.892 59.386,158.163 			"/>
			<polygon fill="#E8CDB7" points="68.846,167.364 67.354,170.061 56.285,164.396 57.599,161.608 			"/>
			<polygon fill="#E8CDB7" points="67.157,170.415 65.745,173.153 54.732,167.937 55.955,165.11 			"/>
			<polygon fill="#E8CDB7" points="65.549,173.521 64.189,176.288 53.323,171.536 54.432,168.659 			"/>
			<polygon fill="#E8CDB7" points="64.001,176.668 62.726,179.473 52.025,175.17 53.047,172.263 			"/>
			<path fill="#E8CDB7" d="M62.549,179.859c0,0-0.299,0.711-0.598,1.421c-0.307,0.708-0.613,1.415-0.613,1.415l-10.479-3.853
				c0,0,0.225-0.737,0.45-1.476c0.232-0.734,0.465-1.47,0.465-1.47L62.549,179.859z"/>
			<polygon fill="#E8CDB7" points="61.164,183.091 60.023,185.958 49.827,182.556 50.637,179.578 			"/>
			<polygon fill="#E8CDB7" points="59.86,186.362 58.809,189.264 48.91,186.297 49.628,183.295 			"/>
			<path fill="#E8CDB7" d="M58.656,189.677c0,0-0.24,0.733-0.479,1.466c-0.247,0.73-0.493,1.462-0.493,1.462l-9.559-2.542
				c0,0,0.149-0.757,0.298-1.514c0.156-0.755,0.312-1.511,0.312-1.511L58.656,189.677z"/>
			<polygon fill="#E8CDB7" points="57.536,193.024 56.634,195.977 47.492,193.855 47.982,190.808 			"/>
			<polygon fill="#E8CDB7" points="56.5,196.403 55.693,199.384 46.984,197.66 47.375,194.597 			"/>
			<polygon fill="#E8CDB7" points="55.572,199.821 54.865,202.827 46.604,201.476 46.893,198.4 			"/>
			<polygon fill="#E8CDB7" points="54.758,203.274 54.126,206.3 46.38,205.301 46.537,202.214 			"/>
			<polygon fill="#E8CDB7" points="54.026,206.757 53.489,209.798 46.309,209.123 46.347,206.036 			"/>
			<polygon fill="#E8CDB7" points="53.404,210.267 52.975,213.325 46.373,212.939 46.302,209.852 			"/>
			<polygon fill="#E8CDB7" points="52.906,213.806 52.586,216.88 46.574,216.745 46.393,213.66 			"/>
			<path fill="#E8CDB7" d="M52.535,217.372c0,0-0.052,0.771-0.104,1.543c-0.032,0.771-0.196,1.543-0.196,1.543l-5.23,0.073
				c0,0-0.186-0.768-0.239-1.537c-0.074-0.77-0.147-1.539-0.147-1.539L52.535,217.372z"/>
			<path fill="#E8CDB7" d="M52.104,220.97c0,0-0.037,0.195-0.123,0.488c-0.076,0.294-0.204,0.686-0.364,1.08
				c-0.15,0.394-0.353,0.789-0.513,1.087c-0.168,0.298-0.301,0.498-0.301,0.498l-2.009,0.103c0,0-0.153-0.186-0.35-0.465
				c-0.19-0.279-0.432-0.653-0.621-1.029c-0.2-0.375-0.367-0.753-0.473-1.036c-0.116-0.284-0.172-0.474-0.172-0.474L52.104,220.97z"
				/>
			<path fill="#E8CDB7" d="M50.386,224.73c0,0-0.093,0.18-0.233,0.362c-0.131,0.182-0.262,0.364-0.262,0.364s-0.157-0.16-0.314-0.32
				c-0.166-0.159-0.285-0.322-0.285-0.322L50.386,224.73z"/>
		</g>
	</g>
	<g>
		<path fill="#E8D3C3" d="M78.021,222.515c0,0-6.55,50.727-2.226,86.609"/>
		<path fill="#CFB49D" d="M83.874,223.254c0,0-0.182,1.316-0.502,3.622c-0.313,2.317-0.727,5.647-1.185,9.649
			c-0.441,4.005-0.95,8.682-1.377,13.701c-0.239,2.509-0.421,5.103-0.63,7.739c-0.203,2.637-0.349,5.315-0.527,7.995
			c-0.126,2.679-0.252,5.357-0.375,7.995c-0.068,2.634-0.185,5.231-0.209,7.738c-0.01,2.504-0.077,4.935-0.039,7.226
			c0.041,2.291,0.052,4.463,0.111,6.46c0.088,1.993,0.168,3.82,0.24,5.439c0.053,1.624,0.219,3.013,0.295,4.172
			c0.183,2.311,0.287,3.631,0.287,3.631l-8.336,1.004c0,0-0.165-1.379-0.453-3.792c-0.127-1.206-0.357-2.677-0.479-4.354
			c-0.141-1.681-0.299-3.576-0.472-5.645c-0.143-2.067-0.242-4.303-0.377-6.672c-0.131-2.368-0.161-4.857-0.251-7.438
			c-0.075-2.58-0.062-5.237-0.097-7.944c0.021-2.702,0.042-5.447,0.063-8.191c0.075-2.74,0.117-5.484,0.219-8.181
			c0.106-2.695,0.189-5.351,0.332-7.915c0.235-5.133,0.566-9.914,0.856-14.016c0.307-4.101,0.597-7.516,0.825-9.915
			c0.238-2.409,0.375-3.787,0.375-3.787L83.874,223.254z"/>
		<g>
			<polygon fill="#E8CDB7" points="85.399,223.415 84.958,226.461 70.353,224.68 70.644,221.614 			"/>
			<polygon fill="#E8CDB7" points="84.886,226.966 84.474,230.019 70.028,228.433 70.289,225.362 			"/>
			<polygon fill="#E8CDB7" points="84.402,230.557 84.014,233.613 69.737,232.155 69.975,229.083 			"/>
			<polygon fill="#E8CDB7" points="83.945,234.159 83.577,237.218 69.473,235.875 69.688,232.801 			"/>
			<polygon fill="#E8CDB7" points="83.512,237.767 83.164,240.828 69.232,239.594 69.429,236.519 			"/>
			<polygon fill="#E8CDB7" points="83.103,241.38 82.774,244.442 69.016,243.313 69.192,240.237 			"/>
			<polygon fill="#E8CDB7" points="82.717,244.992 82.409,248.06 68.824,247.033 68.98,243.955 			"/>
			<polygon fill="#E8CDB7" points="82.354,248.611 82.066,251.678 68.657,250.754 68.792,247.678 			"/>
			<polygon fill="#E8CDB7" points="82.016,252.229 81.749,255.3 68.515,254.479 68.63,251.399 			"/>
			<polygon fill="#E8CDB7" points="81.702,255.85 81.456,258.923 68.398,258.205 68.491,255.124 			"/>
			<polygon fill="#E8CDB7" points="81.413,259.473 81.19,262.544 68.31,261.931 68.38,258.853 			"/>
			<polygon fill="#E8CDB7" points="81.152,263.094 80.953,266.169 68.249,265.662 68.296,262.58 			"/>
			<polygon fill="#E8CDB7" points="80.919,266.718 80.744,269.796 68.219,269.397 68.24,266.314 			"/>
			<polygon fill="#E8CDB7" points="80.714,270.342 80.566,273.421 68.22,273.135 68.216,270.052 			"/>
			<polygon fill="#E8CDB7" points="80.542,273.966 80.422,277.046 68.255,276.875 68.222,273.792 			"/>
			<polygon fill="#E8CDB7" points="80.402,277.588 80.313,280.669 68.326,280.617 68.264,277.535 			"/>
			<polygon fill="#E8CDB7" points="80.298,281.207 80.241,284.29 68.437,284.363 68.342,281.281 			"/>
			<polygon fill="#E8CDB7" points="80.232,284.823 80.211,287.906 68.59,288.111 68.459,285.031 			"/>
			<polygon fill="#E8CDB7" points="80.208,288.436 80.225,291.519 68.789,291.863 68.62,288.784 			"/>
			<polygon fill="#E8CDB7" points="80.229,292.042 80.288,295.125 69.039,295.617 68.829,292.541 			"/>
			<polygon fill="#E8CDB7" points="80.299,295.641 80.404,298.723 69.346,299.374 69.089,296.302 			"/>
			<polygon fill="#E8CDB7" points="80.423,299.23 80.58,302.31 69.716,303.134 69.407,300.066 			"/>
			<polygon fill="#E8CDB7" points="80.607,302.807 80.823,305.883 70.157,306.896 69.79,303.835 			"/>
			<polygon fill="#E8CDB7" points="80.861,306.387 81.052,308.525 70.54,309.723 70.245,307.595 			"/>
		</g>
	</g>
	<g>
		<path fill="#E8D3C3" d="M114.903,222.515c0,0,6.55,50.727,2.227,86.609"/>
		<path fill="#CFB49D" d="M120.757,221.775c0,0,0.136,1.378,0.374,3.787c0.228,2.399,0.519,5.814,0.825,9.915
			c0.291,4.102,0.621,8.883,0.856,14.016c0.143,2.564,0.226,5.22,0.332,7.915c0.103,2.695,0.144,5.44,0.219,8.181
			c0.021,2.744,0.042,5.489,0.063,8.191c-0.035,2.707-0.021,5.364-0.098,7.944c-0.09,2.581-0.119,5.07-0.251,7.438
			c-0.135,2.369-0.234,4.604-0.377,6.672c-0.173,2.067-0.331,3.964-0.471,5.644c-0.122,1.679-0.353,3.148-0.479,4.354
			c-0.288,2.414-0.453,3.793-0.453,3.793l-8.336-1.004c0,0,0.104-1.32,0.287-3.631c0.075-1.159,0.242-2.548,0.295-4.172
			c0.072-1.619,0.152-3.446,0.24-5.439c0.059-1.997,0.07-4.169,0.111-6.46c0.037-2.291-0.029-4.721-0.039-7.226
			c-0.024-2.507-0.142-5.104-0.209-7.738c-0.124-2.638-0.25-5.316-0.376-7.995c-0.179-2.68-0.323-5.358-0.527-7.995
			c-0.208-2.637-0.391-5.23-0.63-7.739c-0.426-5.02-0.936-9.696-1.377-13.701c-0.457-4.002-0.873-7.332-1.186-9.649
			c-0.318-2.306-0.502-3.622-0.502-3.622L120.757,221.775z"/>
		<g>
			<polygon fill="#E8CDB7" points="122.282,221.614 122.573,224.68 107.967,226.461 107.524,223.415 			"/>
			<polygon fill="#E8CDB7" points="122.636,225.362 122.896,228.433 108.45,230.019 108.039,226.966 			"/>
			<polygon fill="#E8CDB7" points="122.95,229.083 123.188,232.155 108.911,233.613 108.522,230.557 			"/>
			<polygon fill="#E8CDB7" points="123.236,232.801 123.452,235.875 109.348,237.218 108.979,234.159 			"/>
			<polygon fill="#E8CDB7" points="123.497,236.519 123.692,239.594 109.761,240.828 109.413,237.767 			"/>
			<polygon fill="#E8CDB7" points="123.733,240.237 123.909,243.313 110.15,244.442 109.822,241.38 			"/>
			<polygon fill="#E8CDB7" points="123.944,243.955 124.101,247.033 110.517,248.06 110.208,244.993 			"/>
			<polygon fill="#E8CDB7" points="124.132,247.678 124.269,250.754 110.858,251.678 110.571,248.611 			"/>
			<polygon fill="#E8CDB7" points="124.296,251.399 124.41,254.479 111.177,255.3 110.909,252.23 			"/>
			<polygon fill="#E8CDB7" points="124.433,255.124 124.526,258.205 111.469,258.923 111.224,255.85 			"/>
			<polygon fill="#E8CDB7" points="124.545,258.853 124.615,261.931 111.734,262.544 111.512,259.473 			"/>
			<polygon fill="#E8CDB7" points="124.629,262.58 124.676,265.662 111.972,266.169 111.772,263.094 			"/>
			<polygon fill="#E8CDB7" points="124.685,266.314 124.706,269.397 112.181,269.796 112.007,266.718 			"/>
			<polygon fill="#E8CDB7" points="124.71,270.052 124.705,273.134 112.358,273.421 112.211,270.342 			"/>
			<polygon fill="#E8CDB7" points="124.703,273.792 124.671,276.874 112.503,277.046 112.384,273.966 			"/>
			<polygon fill="#E8CDB7" points="124.662,277.535 124.599,280.617 112.612,280.669 112.523,277.588 			"/>
			<polygon fill="#E8CDB7" points="124.584,281.281 124.489,284.363 112.685,284.29 112.627,281.207 			"/>
			<polygon fill="#E8CDB7" points="124.466,285.031 124.336,288.111 112.715,287.906 112.692,284.823 			"/>
			<polygon fill="#E8CDB7" points="124.306,288.784 124.137,291.863 112.7,291.519 112.717,288.436 			"/>
			<polygon fill="#E8CDB7" points="124.097,292.541 123.886,295.617 112.638,295.125 112.696,292.042 			"/>
			<polygon fill="#E8CDB7" points="123.837,296.302 123.579,299.374 112.521,298.723 112.626,295.642 			"/>
			<polygon fill="#E8CDB7" points="123.519,300.065 123.21,303.134 112.346,302.31 112.503,299.23 			"/>
			<polygon fill="#E8CDB7" points="123.136,303.834 122.769,306.896 112.103,305.883 112.318,302.807 			"/>
			<polygon fill="#E8CDB7" points="122.681,307.595 122.386,309.722 111.874,308.526 112.064,306.388 			"/>
		</g>
	</g>
	<g>
		<path fill="#917E70" d="M77.444,166.291c0.77-6.144,0.77-12.019,0-18.166c-4.496-0.694-9.062-0.697-13.56-0.011
			c-0.853,6.159-0.853,12.03,0,18.188C68.382,166.992,72.948,166.989,77.444,166.291z"/>
		<path fill="#917E70" d="M77.362,161.211c0.338-2.707,0.339-5.296,0-8.004c-1.981-0.306-3.992-0.308-5.974-0.003
			c-0.376,2.713-0.376,5.299-0.001,8.012C73.37,161.52,75.381,161.518,77.362,161.211z"/>
	</g>
	<g>
		<path fill="#917E70" d="M91.979,216.942c-7.555-1.543-14.851-2.105-22.557-1.738c-1.292,5.518-1.734,11.187-1.312,16.836
			c7.566,1.648,14.856,2.211,22.582,1.741C91.981,228.263,92.414,222.595,91.979,216.942z"/>
		<path fill="#917E70" d="M85.662,216.559c-3.329-0.68-6.543-0.927-9.938-0.765c-0.568,2.43-0.764,4.928-0.576,7.416
			c3.333,0.727,6.544,0.975,9.949,0.769C85.663,221.547,85.853,219.049,85.662,216.559z"/>
	</g>
	<g>
		<path fill="#917E70" d="M122.938,215.309c-7.697-0.445-14.998,0.045-22.572,1.513c-0.487,5.646-0.112,11.318,1.115,16.85
			c7.725,0.547,15.02,0.058,22.599-1.513C124.564,226.512,124.181,220.839,122.938,215.309z"/>
		<path fill="#917E70" d="M116.634,215.835c-3.392-0.196-6.607,0.019-9.945,0.665c-0.217,2.487-0.051,4.987,0.492,7.423
			c3.402,0.242,6.615,0.027,9.956-0.666C117.35,220.771,117.179,218.271,116.634,215.835z"/>
	</g>
	<g>
		<path fill="#917E70" d="M51.108,103.601c-0.619-4.938-0.619-9.661,0-14.604c3.615-0.559,7.285-0.561,10.901-0.009
			c0.685,4.951,0.685,9.671,0.001,14.62C58.394,104.164,54.724,104.161,51.108,103.601z"/>
		<path fill="#917E70" d="M48.559,99.517c-0.272-2.177-0.272-4.257,0-6.435c1.593-0.245,3.21-0.247,4.803-0.003
			c0.302,2.181,0.302,4.26,0.001,6.44C51.769,99.765,50.151,99.763,48.559,99.517z"/>
	</g>
	<g>
		<path fill="#917E70" d="M146.877,103.022c0.619-4.938,0.619-9.661,0-14.604c-3.614-0.559-7.284-0.561-10.901-0.008
			c-0.685,4.95-0.685,9.67,0,14.62C139.591,103.587,143.262,103.583,146.877,103.022z"/>
		<path fill="#917E70" d="M149.427,98.938c0.272-2.176,0.272-4.256,0-6.434c-1.592-0.246-3.209-0.248-4.802-0.004
			c-0.302,2.182-0.302,4.26-0.001,6.441C146.218,99.188,147.835,99.186,149.427,98.938z"/>
	</g>
	<g>
		<path fill="#917E70" d="M130.431,166.291c0.771-6.144,0.771-12.019,0.001-18.166c-4.497-0.694-9.062-0.697-13.56-0.011
			c-0.852,6.159-0.852,12.03-0.001,18.188C121.369,166.992,125.935,166.989,130.431,166.291z"/>
		<path fill="#917E70" d="M130.349,161.211c0.339-2.707,0.34-5.296,0-8.004c-1.98-0.306-3.992-0.308-5.973-0.003
			c-0.377,2.713-0.377,5.299-0.001,8.012C126.356,161.52,128.368,161.518,130.349,161.211z"/>
	</g>
	<g id="XMLID_156_">
		<g>
			<path fill="#30B7AF" d="M149.379,318.09h-5.609c-8.861-0.457-18.144-0.23-22.407-1.484c-9.385-2.759-9.976-7.341-9.976-7.341
				S147.324,295.945,149.379,318.09z"/>
			<path fill="#279C8E" d="M121.362,316.605c4.264,1.254,13.546,1.027,22.407,1.484H111.1c0,0-0.725-7.705,0.287-8.825
				C111.387,309.265,111.978,313.847,121.362,316.605z"/>
		</g>
		<g>
		</g>
	</g>
	<path fill="#30B7AF" d="M132.995,63.226c-1.108,2.3-8.544,16-29.214,17.779C70.945,77.908,69.859,62.9,69.859,62.9
		C91.138,61.053,111.638,61.163,132.995,63.226z"/>
	<path fill="#279C8E" d="M103.781,81.005c-1.404,0.121-2.865,0.184-4.394,0.189c-0.66,0-1.309-0.016-1.939-0.042
		c-22.393-0.846-30.42-15.339-31.652-17.874c1.357-0.137,2.711-0.263,4.063-0.378C69.859,62.9,70.945,77.908,103.781,81.005z"/>
	<path fill="#6BD1C5" d="M126.603,63.399c0,0-4.625,11.792-20.738,13.795C105.864,77.194,120.743,71.05,126.603,63.399z"/>
	<path fill="#30B7AF" d="M129.229,188.832c0,0-4.399-5.218-6.028-10.495c-0.006-0.012-0.006-0.018-0.006-0.023
		c-0.109-0.535-0.255-1.056-0.396-1.578c-0.016-0.079-0.036-0.159-0.05-0.237h-0.01c-3.142-11.229-13.432-19.474-25.66-19.474
		c-17.539,1.954-24.113,15.603-25.64,19.474c-0.042,0.114-0.085,0.217-0.12,0.313c-0.091,0.33-0.175,0.666-0.247,1.009
		c0.019,3.51,0.258,36.687,3.246,44.692c0,0,14.292,10.381,52.663,5.512c1.117-12.994,2.127-26.091,2.566-39.182L129.229,188.832z
		 M119.023,190.46l-0.728,23.813l-12.699,0.823l-29.175,0.102c-1.72,0.211-1.461-1.478-1.461-1.478l0.114-19.559l0.955-9.124
		l42.266,29.235l-32.853-37.775l-3.258-3.744c0,0,2.675-6.101,14.263-6.937c0,0,14.118-0.648,20.051,10.681
		C118.302,179.936,119.348,184.468,119.023,190.46z"/>
	<path fill="#279C8E" d="M116.499,176.498c1.803,3.438,2.849,7.97,2.524,13.962l-0.728,23.813l-32.853-37.775H116.499z"/>
	<path fill="#279C8E" d="M118.296,214.273l-12.699,0.823l-29.175,0.102c-1.72,0.211-1.461-1.478-1.461-1.478l0.114-19.559
		l0.955-9.124L118.296,214.273z"/>
	<path fill="#279C8E" d="M116.499,176.498H85.443l-3.258-3.744c0,0,2.675-6.101,14.263-6.937
		C96.448,165.817,110.566,165.169,116.499,176.498z"/>
	<path fill="#279C8E" d="M71.072,177.82c0.019,3.51,0.258,36.687,3.246,44.692c0,0,14.292,10.381,52.663,5.512
		c-0.157,1.84-20.195,3.402-29.891,3.402c-0.012,0-0.012,0-0.012,0c-9.701,0-29.751-1.563-29.913-3.402
		c-1.112-13-2.122-26.091-2.555-39.182l0.318-0.011c0,0,1.983-2.038,4.123-6.444c0.007-0.006,0.007-0.012,0.007-0.018
		c0.029-0.042,0.047-0.09,0.064-0.139c0.488-0.998,0.975-2.115,1.449-3.354c0.03-0.078,0.061-0.162,0.097-0.246
		c0.174-0.438,0.318-0.829,0.402-1.112C71.072,177.52,71.072,177.622,71.072,177.82z"/>
	<path fill="#279C8E" d="M71.36,176.66c3.078-11.317,13.428-19.636,25.719-19.636c-17.539,1.954-24.113,15.603-25.64,19.474h-0.024
		C71.397,176.553,71.378,176.606,71.36,176.66z"/>
	<path fill="#6BD1C5" d="M102.843,159.3c0,0,10.688,1.729,16.237,12.622C119.08,171.922,113.511,162.981,102.843,159.3z"/>
	<path fill="#6BD1C5" d="M136.536,307.622c0,0,5.655,0.895,9.384,6.695C145.92,314.317,145.166,307.069,136.536,307.622z"/>
	<path fill="none" d="M74.319,306.903"/>
	<g id="XMLID_155_">
		<g>
			<path fill="#279C8E" d="M43.174,318.09h1.557c6.914-8.29,8.542-8.578,12.806-9.832c9.061-2.665,22.658,0.756,23.578,0.992
				C79.599,308.695,45.183,296.434,43.174,318.09z"/>
			<path fill="#30B7AF" d="M44.73,318.09h36.723c0,0,0.724-7.705-0.288-8.825c0,0-0.016-0.005-0.052-0.015
				c-0.919-0.236-14.517-3.657-23.578-0.992C53.273,309.512,51.645,309.8,44.73,318.09z"/>
		</g>
		<g>
		</g>
	</g>
	<path fill="#C4AB95" d="M97.448,81.152v0.042c-25.775,0.625-31.83-17.795-31.83-17.795l-0.011-0.105
		c0.063-0.005,0.124-0.011,0.188-0.016C67.028,65.813,75.056,80.307,97.448,81.152z"/>
	<g id="XMLID_154_">
		<path fill="#D4BBA7" d="M128.753,150.329c1.113,12.777,1.233,25.646,0.795,38.514l-0.319-0.011c0,0-4.399-5.218-6.028-10.495
			c-0.006-0.012-0.006-0.018-0.006-0.023c-2.488-12.147-13.234-21.289-26.115-21.289c0,0-22.749-1.479-28.02,25.346
			c0,0.006,0,0.012-0.007,0.018l1.37-36.23c9.053-1.862,17.797-2.776,26.65-2.776c9.684,0,19.239,1.094,29.211,3.318
			C127.588,146.987,128.592,148.472,128.753,150.329z M124.096,151.993l2.488,12.563c0-2.566-0.547-12.965-0.547-12.965
			c-0.097-1.322-1.563-2.344-1.563-2.344c-2.379-1.376-11.731-2.109-11.731-2.109l9.353,2.656
			C123.928,149.98,124.096,151.993,124.096,151.993z"/>
		<path fill="#E8D3C3" d="M126.584,164.556l-2.488-12.563c0,0-0.168-2.013-2.001-2.199l-9.353-2.656c0,0,9.353,0.733,11.731,2.109
			c0,0,1.467,1.021,1.563,2.344C126.037,151.591,126.584,161.989,126.584,164.556z"/>
		<path fill="#C4AB95" d="M69.06,182.37c5.271-26.824,28.02-25.346,28.02-25.346c-12.291,0-22.641,8.318-25.719,19.636
			c-0.06,0.187-0.119,0.366-0.18,0.542c-0.024,0.065-0.049,0.138-0.072,0.204c-0.145,0.42-0.294,0.828-0.438,1.226
			c-0.036,0.084-0.066,0.168-0.097,0.246c-0.516,1.281-1.226,2.86-1.449,3.354C69.106,182.28,69.089,182.328,69.06,182.37z"/>
		<path fill="#EC8B44" d="M71.415,176.498h0.024c-0.042,0.114-0.085,0.217-0.12,0.313c0.011-0.049,0.023-0.103,0.041-0.151
			C71.378,176.606,71.397,176.553,71.415,176.498z"/>
		<path fill="#EC8B44" d="M71.181,177.202c0.061-0.176,0.12-0.355,0.18-0.542c-0.018,0.049-0.03,0.103-0.041,0.151
			C71.265,176.967,71.217,177.099,71.181,177.202z"/>
		<path fill="#EC8B44" d="M71.181,177.202c0.036-0.104,0.084-0.235,0.139-0.391c-0.091,0.33-0.175,0.666-0.247,1.009
			c0-0.198,0-0.301,0-0.301s0.013-0.042,0.036-0.113C71.132,177.34,71.156,177.268,71.181,177.202z"/>
		<path fill="#EC8B44" d="M71.108,177.406c-0.023,0.071-0.036,0.113-0.036,0.113c-0.084,0.283-0.229,0.674-0.402,1.112
			C70.814,178.234,70.964,177.826,71.108,177.406z"/>
		<path fill="#C4AB95" d="M70.423,146.157l-1.37,36.23c-2.14,4.406-4.123,6.444-4.123,6.444l-0.318,0.011
			c-0.433-12.868-0.313-25.736,0.794-38.514c0.149-1.857,1.16-3.342,2.469-3.63C68.728,146.507,69.575,146.326,70.423,146.157z"/>
		<path fill="#D4BBA7" d="M69.124,182.231c0.224-0.493,0.934-2.072,1.449-3.354C70.099,180.116,69.612,181.233,69.124,182.231z"/>
	</g>
	<g id="XMLID_153_">
		<g>
			<path fill="#C4AB95" d="M118.296,197.984v16.288h-17.37l13.211-1.208c3.144-0.271,3.089-2.608,3.089-2.608L118.296,197.984z"/>
			<path fill="#D4BBA7" d="M118.296,189.685v8.3l-1.07,12.472c0,0,0.055,2.338-3.089,2.608l-13.211,1.208H75.863v-24.342
				c1.058-22.063,21.571-22.442,21.571-22.442S116.89,168.534,118.296,189.685z"/>
			<path fill="#C4AB95" d="M118.313,187.888c0,0.234-0.006,0.462-0.018,0.696v1.101c-1.406-21.15-20.862-22.196-20.862-22.196
				s-20.513,0.379-21.571,22.442v-1.347c-0.006-0.234-0.018-0.462-0.018-0.696c0-11.727,9.508-21.235,21.234-21.235
				C108.806,166.652,118.313,176.161,118.313,187.888z"/>
		</g>
		<g>
		</g>
	</g>
	<path fill="#D4BBA7" d="M46.713,224.489c0,0-2.002,2.687-2.424,10.597c-0.169,3.148,0.733,4.826,1.896,4.775
		c0.579-0.026-0.233-1.037-0.138-3.68c0.095-2.644,1.34-4.891,1.34-4.891s-0.229,1.707,0.191,4.601
		c0.422,2.896,1.746,5.214,2.324,5.03c1.076-0.344-0.695-3.446-0.383-6.009c0.202-1.675-0.197-2.376,1.913-5.788
		c0,0,1.1,0.377,1.311,2.189c0.093,0.815,0.389,3.198,1.231,2.964c0.729-0.2,0.825-4.236,0.265-5.585
		c-1.279-3.081-2.965-4.229-2.965-4.229L46.713,224.489z"/>
	<path fill="#D4BBA7" d="M150.981,218.289c0,0,2.205,2.521,3.244,10.374c0.414,3.125-0.354,4.87-1.516,4.909
		c-0.579,0.02,0.152-1.052-0.151-3.68c-0.3-2.627-1.718-4.77-1.718-4.77s0.362,1.684,0.168,4.601
		c-0.192,2.919-1.331,5.335-1.923,5.196c-1.1-0.257,0.424-3.49-0.088-6.02c-0.333-1.653,0.011-2.385-2.36-5.621
		c0,0-1.066,0.463-1.135,2.285c-0.03,0.82-0.139,3.221-0.995,3.053c-0.742-0.143-1.154-4.159-0.701-5.547
		c1.034-3.172,2.624-4.449,2.624-4.449L150.981,218.289z"/>
	<g id="XMLID_152_">
		<path fill="#D4BBA7" d="M103.781,81.005c20.67-1.779,28.105-15.479,29.214-17.779c2.217,0.216,4.445,0.452,6.686,0.709
			c6.004,18.876,2.495,47.714,1.525,63.133c-0.137,4.481-4.4,5.012-10.361,5.987c-12.933-0.547-26.648-0.307-44.499-1.472
			c-26.963-1.759-26.343-8.132-28.112-14.945c-1.768-6.813,1.371-52.703,1.371-52.703c2.012-0.231,4.008-0.446,6.003-0.641
			l0.011,0.105c0,0,6.055,18.42,31.83,17.795v-0.042c0.631,0.026,1.279,0.042,1.939,0.042
			C100.916,81.188,102.377,81.126,103.781,81.005z"/>
		<path fill="#C4AB95" d="M86.346,131.583c17.851,1.165,31.566,0.925,44.499,1.472c-28.577,3.48-69.087,0.728-73.15-2.146
			c-2.916-3.224-6.282-41.499,1.91-66.974c0,0-3.139,45.89-1.371,52.703C60.003,123.451,59.383,129.824,86.346,131.583z"/>
	</g>
	<path fill="#E8D3C3" d="M133.796,68.485c0,0,6.863,12.511,3.561,36.936C137.356,105.421,136.228,72.652,133.796,68.485z"/>
	<path fill="#C4AB95" d="M97.448,81.152v0.042c-25.775,0.625-31.83-17.795-31.83-17.795l-0.011-0.105
		c0.063-0.005,0.124-0.011,0.188-0.016C67.028,65.813,75.056,80.307,97.448,81.152z"/>
	<g>
		<path fill="#30B7AF" d="M82.771,208.542c-1.938,0-1.938,3.006,0,3.006S84.71,208.542,82.771,208.542z"/>
		<path fill="#30B7AF" d="M97.08,208.542c-1.938,0-1.938,3.006,0,3.006C99.018,211.548,99.018,208.542,97.08,208.542z"/>
		<path fill="#30B7AF" d="M111.389,208.542c-1.938,0-1.938,3.006,0,3.006S113.327,208.542,111.389,208.542z"/>
	</g>
	<g id="XMLID_151_">
		<path fill="#30B7AF" d="M97.056,173.559c5.198,0,9.412,4.214,9.412,9.413c0,4.934-3.805,8.984-8.649,9.376h-0.006
			c-8.878-3.132-9.833-11.877-9.833-11.877C89.073,176.485,92.722,173.559,97.056,173.559z"/>
		<path fill="#279C8E" d="M97.813,192.348c-0.253,0.018-0.505,0.03-0.757,0.03c-5.199,0-9.412-4.214-9.412-9.406
			c0-0.866,0.113-1.707,0.336-2.501C87.979,180.471,88.935,189.216,97.813,192.348z"/>
	</g>
	<path fill="#6BD1C5" d="M99.264,175.617c0,0,4.159,0.688,4.919,4.851C104.183,180.468,100.931,175.933,99.264,175.617z"/>
	<g>
		<g id="XMLID_150_">
			<g>
				<path fill="#30B7AF" d="M82.771,206.577c1.509,0,2.732,1.223,2.732,2.732c0,1.433-1.104,2.61-2.511,2.724h-0.002
					c-2.577-0.909-2.854-3.45-2.854-3.45C80.454,207.427,81.513,206.577,82.771,206.577z"/>
				<path fill="#279C8E" d="M82.991,212.033c-0.073,0.005-0.146,0.009-0.22,0.009c-1.509,0-2.732-1.226-2.732-2.732
					c0-0.252,0.033-0.496,0.098-0.727C80.136,208.583,80.414,211.124,82.991,212.033z"/>
			</g>
			<g>
			</g>
		</g>
		<path fill="#6BD1C5" d="M82.853,207.016c0,0,2.514,0.076,2.188,2.396C85.04,209.411,84.306,207.788,82.853,207.016z"/>
	</g>
	<g>
		<g id="XMLID_149_">
			<g>
				<path fill="#30B7AF" d="M97.055,206.577c1.509,0,2.732,1.223,2.732,2.732c0,1.433-1.104,2.61-2.511,2.724h-0.002
					c-2.577-0.909-2.854-3.45-2.854-3.45C94.737,207.427,95.797,206.577,97.055,206.577z"/>
				<path fill="#279C8E" d="M97.274,212.033c-0.073,0.005-0.146,0.009-0.22,0.009c-1.51,0-2.732-1.226-2.732-2.732
					c0-0.252,0.033-0.496,0.098-0.727C94.42,208.583,94.697,211.124,97.274,212.033z"/>
			</g>
			<g>
			</g>
		</g>
		<path fill="#6BD1C5" d="M97.136,207.016c0,0,2.514,0.076,2.188,2.396C99.323,209.411,98.589,207.788,97.136,207.016z"/>
	</g>
	<g>
		<g id="XMLID_148_">
			<g>
				<path fill="#30B7AF" d="M97.078,206.577c1.51,0,2.732,1.223,2.732,2.732c0,1.433-1.104,2.61-2.511,2.724h-0.001
					c-2.578-0.909-2.855-3.45-2.855-3.45C94.761,207.427,95.82,206.577,97.078,206.577z"/>
				<path fill="#279C8E" d="M97.299,212.033c-0.073,0.005-0.146,0.009-0.221,0.009c-1.509,0-2.732-1.226-2.732-2.732
					c0-0.252,0.033-0.496,0.098-0.727C94.444,208.583,94.721,211.124,97.299,212.033z"/>
			</g>
			<g>
			</g>
		</g>
		<path fill="#6BD1C5" d="M97.721,207.176c0,0,1.207,0.2,1.427,1.407C99.147,208.583,98.204,207.268,97.721,207.176z"/>
	</g>
	<g>
		<g id="XMLID_147_">
			<g>
				<path fill="#30B7AF" d="M111.362,206.577c1.509,0,2.732,1.223,2.732,2.732c0,1.433-1.104,2.61-2.511,2.724h-0.002
					c-2.577-0.909-2.854-3.45-2.854-3.45C109.045,207.427,110.104,206.577,111.362,206.577z"/>
				<path fill="#279C8E" d="M111.582,212.033c-0.073,0.005-0.146,0.009-0.22,0.009c-1.51,0-2.732-1.226-2.732-2.732
					c0-0.252,0.033-0.496,0.098-0.727C108.728,208.583,109.005,211.124,111.582,212.033z"/>
			</g>
			<g>
			</g>
		</g>
		<path fill="#6BD1C5" d="M112.004,207.176c0,0,1.208,0.2,1.428,1.407C113.432,208.583,112.487,207.268,112.004,207.176z"/>
	</g>
	<g>
		<g id="XMLID_146_">
			<g>
				<path fill="#30B7AF" d="M111.386,206.577c1.51,0,2.732,1.223,2.732,2.732c0,1.433-1.104,2.61-2.511,2.724h-0.002
					c-2.576-0.909-2.854-3.45-2.854-3.45C109.069,207.427,110.128,206.577,111.386,206.577z"/>
				<path fill="#279C8E" d="M111.605,212.033c-0.073,0.005-0.146,0.009-0.22,0.009c-1.509,0-2.732-1.226-2.732-2.732
					c0-0.252,0.033-0.496,0.098-0.727C108.751,208.583,109.029,211.124,111.605,212.033z"/>
			</g>
			<g>
			</g>
		</g>
		<path fill="#6BD1C5" d="M112.028,207.176c0,0,1.207,0.2,1.428,1.407C113.456,208.583,112.512,207.268,112.028,207.176z"/>
	</g>
	<path fill="#30B7AF" d="M54.57,224.262c-0.042,0.813-1.244,1.416-2.687,1.344l-4.762-0.234c-1.443-0.071-2.58-0.79-2.542-1.603
		l0.149-3.005c0.041-0.813,1.243-1.414,2.686-1.345l4.762,0.236c1.443,0.07,2.581,0.788,2.54,1.602L54.57,224.262z"/>
	<path fill="#30B7AF" d="M143.129,218.678c0.104,0.807,1.351,1.313,2.783,1.129l4.729-0.606c1.433-0.185,2.511-0.988,2.408-1.797
		l-0.385-2.983c-0.103-0.808-1.349-1.313-2.781-1.13l-4.729,0.607c-1.434,0.183-2.512,0.989-2.407,1.796L143.129,218.678z"/>
	<polygon fill="#FBFFFA" points="97.818,184.588 100.926,182.875 97.891,181.041 94.855,179.203 94.783,182.749 94.712,186.294 	"/>
	<g>
		<g id="XMLID_144_">
			<path fill="#FFFFFF" d="M82.103,82.278c6.311,0,11.426,5.116,11.426,11.427c0,4.853-3.019,8.991-7.287,10.655c0,0,0,0-0.01,0
				c-16.299-1.994-14.756-14.567-14.689-15.01v-0.01C73.253,85.193,77.335,82.278,82.103,82.278z"/>
			<path fill="#E9EAE8" d="M86.231,104.36c-1.279,0.498-2.671,0.771-4.129,0.771c-6.311,0-11.426-5.116-11.426-11.427
				c0-1.543,0.3-3.01,0.865-4.354C71.476,89.793,69.933,102.366,86.231,104.36z"/>
		</g>
		<circle cx="82.501" cy="95.144" r="7.196"/>
		<path fill="#FFFFFF" d="M86.703,91.672c0,0.732-0.595,1.325-1.325,1.325h-0.179c-0.733,0-1.327-0.593-1.327-1.325v-0.177
			c0-0.732,0.594-1.327,1.327-1.327h0.179c0.73,0,1.325,0.595,1.325,1.327V91.672z"/>
		<path fill="#FFFFFF" d="M85.164,92.651c0,0.472-0.382,0.853-0.851,0.853l0,0c-0.473,0-0.853-0.381-0.853-0.853l0,0
			c0-0.47,0.38-0.852,0.853-0.852l0,0C84.782,91.8,85.164,92.182,85.164,92.651L85.164,92.651z"/>
		<path fill="#FFFFFF" d="M83.772,84.137c0,0,6.458,0,7.483,6.031C91.256,90.168,86.685,85.084,83.772,84.137z"/>
	</g>
	<g>
		<g>
			<image overflow="visible" width="89" height="87" xlink:href="35578738.png"  transform="matrix(1 0 0 1 63.5288 1.5288)">
			</image>
			<g>
				
					<ellipse transform="matrix(0.0042 -1 1 0.0042 63.1371 152.889)" fill="#FFEF8F" cx="108.331" cy="44.745" rx="1.412" ry="2.609"/>
			</g>
		</g>
		<path fill="#C4AB95" d="M106.268,43.394c0.171,0.001,0.31,0.253,0.308,0.563l-0.006,1.532c-0.001,0.311-0.141,0.562-0.313,0.562
			l-1.239-0.005c-0.172,0-0.31-0.254-0.308-0.563l0.006-1.532c0.001-0.312,0.141-0.563,0.313-0.563L106.268,43.394z"/>
	</g>
	<path fill="none" stroke="#30B7AF" stroke-width="1.2021" stroke-miterlimit="10" d="M98.305,63.932c0,0-0.486-19.185,6.405-19.187
		"/>
	<polygon fill="#D4BBA7" points="96.668,93.705 68.335,93.705 68.335,77.759 95.835,83.215 	"/>
	<g>
		<g id="XMLID_127_">
			<path fill="#FFFFFF" d="M117.29,82.278c6.311,0,11.426,5.116,11.426,11.427c0,4.853-3.019,8.991-7.287,10.655c0,0,0,0-0.01,0
				c-16.299-1.994-14.756-14.567-14.689-15.01v-0.01C108.44,85.193,112.522,82.278,117.29,82.278z"/>
			<path fill="#E9EAE8" d="M121.419,104.36c-1.279,0.498-2.671,0.771-4.129,0.771c-6.311,0-11.426-5.116-11.426-11.427
				c0-1.543,0.3-3.01,0.865-4.354C106.663,89.793,105.12,102.366,121.419,104.36z"/>
		</g>
		<circle cx="117.689" cy="95.144" r="7.196"/>
		<path fill="#FFFFFF" d="M121.891,91.672c0,0.732-0.595,1.325-1.325,1.325h-0.179c-0.733,0-1.327-0.593-1.327-1.325v-0.177
			c0-0.732,0.594-1.327,1.327-1.327h0.179c0.73,0,1.325,0.595,1.325,1.327V91.672z"/>
		<path fill="#FFFFFF" d="M120.352,92.651c0,0.472-0.382,0.853-0.851,0.853l0,0c-0.473,0-0.853-0.381-0.853-0.853l0,0
			c0-0.47,0.38-0.852,0.853-0.852l0,0C119.97,91.8,120.352,92.182,120.352,92.651L120.352,92.651z"/>
		<path fill="#FFFFFF" d="M118.96,84.137c0,0,6.458,0,7.483,6.031C126.443,90.168,121.872,85.084,118.96,84.137z"/>
	</g>
	<polygon fill="#D4BBA7" points="131.855,93.705 103.522,93.705 103.522,83.463 129.784,78.923 	"/>
	<g>
		<path fill="#B29A87" d="M67.925,119.005c0,0,3.918-0.364,9.793-0.622c2.938-0.14,6.366-0.256,10.039-0.333
			c1.836-0.028,3.733-0.09,5.661-0.094c1.929-0.013,3.887-0.025,5.846-0.038c1.959,0.013,3.917,0.024,5.846,0.037
			c1.928,0,3.825,0.064,5.661,0.092c3.673,0.076,7.101,0.193,10.039,0.334c5.876,0.258,9.793,0.624,9.793,0.624
			s-3.917,0.366-9.793,0.624c-2.938,0.141-6.366,0.258-10.039,0.334c-1.836,0.027-3.733,0.092-5.661,0.092
			c-1.929,0.013-3.887,0.024-5.846,0.037c-1.959-0.013-3.917-0.025-5.846-0.038c-1.928-0.004-3.825-0.065-5.661-0.094
			c-3.673-0.077-7.101-0.193-10.039-0.333C71.843,119.369,67.925,119.005,67.925,119.005z"/>
	</g>
</g>
</svg>
