<?xml version="1.0" encoding="utf-8"?>
<!-- Generator: Adobe Illustrator 16.0.0, SVG Export Plug-In . SVG Version: 6.00 Build 0)  -->
<!DOCTYPE svg PUBLIC "-//W3C//DTD SVG 1.1//EN" "http://www.w3.org/Graphics/SVG/1.1/DTD/svg11.dtd">
<svg version="1.1" xmlns="http://www.w3.org/2000/svg" xmlns:xlink="http://www.w3.org/1999/xlink" x="0px" y="0px" width="851px"
	 height="851px" viewBox="0 0 851 851" enable-background="new 0 0 851 851" xml:space="preserve">
<g id="Layer_3" display="none">
	<rect display="inline" fill="#F3F6DC" width="851" height="851"/>
</g>
<g id="Layer_1" display="none">
	<g display="inline">
		<g>
			<defs>
				<path id="XMLID_33_" d="M422.441,50.642C282.165,54.156,241.56,161.551,241.56,235.385c0,92.295,81.213,129.199,99.671,162.43
					c18.46,33.228,22.146,92.293,22.146,92.293l-0.137,0.361c4.839,1.911,9.77,3.568,14.771,5.003
					c7.414,2.123,14.992,3.694,22.708,4.705c2.688,0.351,5.393,0.633,8.113,0.847c4.009,0.309,8.042,0.509,12.113,0.509
					c5.084,0,10.123-0.252,15.108-0.737c2.758-0.27,5.494-0.624,8.215-1.039c7.691-1.169,15.23-2.923,22.608-5.197
					c4.271-1.314,8.496-2.783,12.65-4.451c0.69-0.275,1.361-0.534,2.035-0.827c0.518-7.119,4.893-60.496,22.094-91.466
					c18.459-33.231,99.671-70.134,99.671-162.43C603.326,161.551,562.723,54.156,422.441,50.642z"/>
			</defs>
			<use xlink:href="#XMLID_33_"  overflow="visible" fill="#94E0D1"/>
			<clipPath id="XMLID_2_">
				<use xlink:href="#XMLID_33_"  overflow="visible"/>
			</clipPath>
			<rect x="377.308" y="372.696" clip-path="url(#XMLID_2_)" fill="#E2AF38" width="30.819" height="131.547"/>
			<rect x="435.348" y="369.25" clip-path="url(#XMLID_2_)" fill="#FFD268" width="30.824" height="134.993"/>
			<rect x="400.015" y="297.833" clip-path="url(#XMLID_2_)" fill="#FFC334" width="43.549" height="205.442"/>
			<path clip-path="url(#XMLID_2_)" fill="#F6A453" d="M373.078,284.106"/>
			<path clip-path="url(#XMLID_2_)" fill="#F36038" d="M465.974,288.796v31.111c0,1.015-0.138,2-0.431,2.929
				c-14.857,1.187-45.828,2.932-68.218-0.774c-17.77-2.95-17.34-25.146-13.857-43.161c2.292-1.307,5.05-2.067,8.014-2.067h60.239
				C459.596,276.833,465.974,282.177,465.974,288.796z"/>
			<path clip-path="url(#XMLID_2_)" fill="#DA572C" d="M465.532,322.835c-1.548,5.198-7.135,9.046-13.812,9.046h-60.246
				c-7.86,0-14.265-5.36-14.265-11.971v-31.118c0-4.125,2.489-7.75,6.259-9.897c-3.478,18.021-3.917,40.213,13.85,43.171
				C419.712,325.772,450.684,324.021,465.532,322.835z"/>
			<path clip-path="url(#XMLID_2_)" fill="#DA572C" d="M364.688,188.254c0-27.524,17.143-51.028,41.326-60.471
				c-27.994,7.211-48.681,32.623-48.681,62.865c0,35.85,29.06,64.905,64.911,64.905c8.318,0,16.267-1.582,23.58-4.438
				c-5.188,1.336-10.623,2.046-16.23,2.046C393.747,253.162,364.688,224.102,364.688,188.254z"/>
			<path clip-path="url(#XMLID_2_)" fill="#F36038" d="M487.146,190.648c0-35.847-29.06-64.906-64.902-64.906
				c-5.604,0-11.042,0.709-16.23,2.041c-24.183,9.443-41.326,32.947-41.326,60.471c0,35.848,29.059,64.908,64.905,64.908
				c5.607,0,11.043-0.71,16.23-2.046C470.005,241.679,487.146,218.174,487.146,190.648z"/>
			<polyline clip-path="url(#XMLID_2_)" fill="none" points="450.666,190.947 449.18,189.897 402.816,157.203 400.772,155.762 
				400.772,224.688 404.095,222.584 452.234,192.052 450.666,190.947 			"/>
			<path clip-path="url(#XMLID_2_)" fill="none" d="M402.644,157.359c0.034-0.025,0.064-0.025,0.1-0.013"/>
			<polygon clip-path="url(#XMLID_2_)" fill="#F3F6DC" points="405.308,221.793 430.718,207.123 453.329,194.07 429.361,180.23 
				405.308,166.343 405.308,192.454 			"/>
			<path clip-path="url(#XMLID_2_)" fill="#F3F6DC" d="M457.281,362.514c12.954,0,16.49,5.012,16.49,11.225
				c0,2.974-0.808,5.673-3.085,7.681c-14.716,0.131-68.287,0.386-88.341-2.603c-13.062-1.942-12.269-9.26-11.053-12.378
				c0.218-0.222,0.458-0.436,0.708-0.645c2.502-2.029,6.626-3.28,13.104-3.28H457.281z"/>
			<path clip-path="url(#XMLID_2_)" fill="#CAAFA1" d="M470.687,381.419c-2.458,2.185-6.651,3.55-13.405,3.55h-72.176
				c-12.959,0-16.495-5.025-16.495-11.231c0-2.793,0.715-5.336,2.682-7.3c-1.216,3.118-2.009,10.436,11.053,12.378
				C402.399,381.805,455.971,381.55,470.687,381.419z"/>
			<path clip-path="url(#XMLID_2_)" fill="#F3F6DC" d="M457.304,340.22c12.956,0,16.493,5.008,16.493,11.225
				c0,2.97-0.812,5.672-3.09,7.675c-14.714,0.135-68.285,0.39-88.34-2.599c-13.06-1.943-12.268-9.264-11.052-12.378
				c0.218-0.226,0.459-0.438,0.707-0.645c2.503-2.028,6.626-3.279,13.106-3.279H457.304z"/>
			<path clip-path="url(#XMLID_2_)" fill="#CAAFA1" d="M470.707,359.12c-2.458,2.191-6.652,3.556-13.403,3.556h-72.176
				c-12.959,0-16.496-5.025-16.496-11.231c0-2.793,0.716-5.339,2.683-7.302c-1.216,3.114-2.008,10.435,11.052,12.378
				C402.422,359.509,455.993,359.255,470.707,359.12z"/>
			<path clip-path="url(#XMLID_2_)" fill="#F3F6DC" d="M457.98,317.764c12.954,0,16.491,5.008,16.491,11.225
				c0,2.97-0.811,5.672-3.087,7.675c-14.716,0.135-68.287,0.39-88.341-2.599c-13.062-1.942-12.268-9.265-11.052-12.378
				c0.217-0.226,0.458-0.438,0.708-0.645c2.501-2.027,6.626-3.278,13.104-3.278H457.98z"/>
			<path clip-path="url(#XMLID_2_)" fill="#CAAFA1" d="M471.385,336.664c-2.458,2.191-6.652,3.556-13.404,3.556h-72.177
				c-12.958,0-16.494-5.025-16.494-11.231c0-2.793,0.714-5.34,2.683-7.302c-1.216,3.113-2.01,10.436,11.052,12.378
				C403.098,337.054,456.669,336.799,471.385,336.664z"/>
		</g>
		<g>
			<path fill-rule="evenodd" clip-rule="evenodd" fill="#F36038" d="M416.875,554.422c8.903,0.066,14.353-5.766,12.216-12.644
				c-0.636-2.042-0.42-4.942-4.977-4.049c-3.947,0.768-5.12,2.217-3.583,5.479c0.77,1.633,1.709,4.263-1.202,4.958
				c-3.201,0.761-3.078-2.117-3.924-3.746c-0.063-0.12-0.089-0.263-0.123-0.397c-0.54-2.204-2.028-2.925-4.654-2.217
				c-2.307,0.626-4.427,1.147-3.628,3.863c0.556,1.892,1.943,4.609-1.318,5.271c-3.754,0.764-3.269-2.593-4.248-4.396
				c-0.066-0.124-0.083-0.267-0.127-0.399c-0.456-1.289-1.232-2.373-3.106-1.907c-1.934,0.491-5.08,0.368-4.991,2.538
				c0.133,3.189,0.424,6.783,3.879,8.934c3.285,2.046,7.421,1.986,10.727,0.313C410.972,554.422,413.831,553.426,416.875,554.422z"
				/>
			<path fill-rule="evenodd" clip-rule="evenodd" fill="#F36038" d="M393.928,536.178c9.527-1.931,19.069-3.811,28.572-5.82
				c2.617-0.556,2.173-2.325,1.768-4.01c-0.48-2.023-1.81-2.763-4.208-2.277c-9.214,1.86-18.432,3.716-27.65,5.559
				c-2.737,0.547-2.434,2.161-2.065,3.844C390.709,535.136,391.504,536.322,393.928,536.178z"/>
			<path fill-rule="evenodd" clip-rule="evenodd" fill="#F36038" d="M416.875,554.422c-3.044-0.996-5.903,0-9.06,1.602
				c-3.306,1.674-7.442,1.733-10.727-0.313c-3.456-2.15-3.747-5.744-3.879-8.934c-0.088-2.17,3.058-2.047,4.991-2.538
				c1.874-0.466,2.65,0.618,3.106,1.907c0.044,0.133,0.061,0.275,0.127,0.399c0.979,1.803,0.494,5.159,4.248,4.396
				c3.262-0.662,1.874-3.38,1.318-5.271c-0.799-2.716,1.321-3.237,3.628-3.863c2.626-0.708,4.114,0.013,4.654,2.217
				c0.034,0.135,0.061,0.277,0.123,0.397c0.846,1.629,0.723,4.507,3.924,3.746c2.911-0.695,1.971-3.325,1.202-4.958
				c-1.537-3.263-0.364-4.712,3.583-5.479c4.557-0.894,4.341,2.007,4.977,4.049C431.228,548.656,425.778,554.488,416.875,554.422z"
				/>
			<path fill-rule="evenodd" clip-rule="evenodd" fill="#F36038" d="M393.928,536.178c-2.424,0.145-3.218-1.042-3.584-2.705
				c-0.369-1.683-0.671-3.297,2.065-3.844c9.219-1.843,18.437-3.698,27.65-5.559c2.399-0.485,3.729,0.254,4.208,2.277
				c0.405,1.685,0.849,3.454-1.768,4.01C412.997,532.367,403.455,534.247,393.928,536.178z"/>
			<g>
				<path fill="#F36038" d="M356.465,581.895h12.974v44.142c0,7.808-0.455,14.371-1.362,19.698
					c-0.907,5.325-2.643,9.624-5.204,12.895c-2.563,3.268-6.091,5.642-10.585,7.119c-4.494,1.477-10.274,2.215-17.339,2.215v-13.131
					c5.167,0,9.201-0.555,12.104-1.662c2.9-1.107,5.063-2.902,6.487-5.379c1.424-2.479,2.267-5.644,2.531-9.493
					c0.262-3.849,0.396-8.517,0.396-14.002V581.895z"/>
				<path fill="#F36038" d="M447.28,634.896c-0.423,6.433-1.768,11.76-4.034,15.979c-2.27,4.218-5.354,7.595-9.256,10.126
					c-3.903,2.531-8.571,4.323-14.002,5.379c-5.434,1.054-11.471,1.582-18.116,1.582h-6.645v-13.131h4.905
					c4.957,0,9.493-0.238,13.606-0.713s7.673-1.424,10.68-2.848s5.379-3.456,7.12-6.091c1.74-2.638,2.662-6.066,2.769-10.284
					h-17.878c-4.326,0-8.306-0.475-11.945-1.424c-3.639-0.949-6.803-2.504-9.493-4.667c-2.689-2.161-4.801-4.984-6.329-8.465
					c-1.53-3.48-2.294-7.805-2.294-12.974c0-4.324,0.712-8.544,2.136-12.657s3.481-7.753,6.17-10.917
					c2.69-3.164,5.958-5.721,9.81-7.673c3.849-1.951,8.252-2.928,13.211-2.928c5.483,0,10.126,0.977,13.923,2.928
					c3.797,1.952,6.882,4.722,9.256,8.306c2.373,3.587,4.086,7.911,5.142,12.974c1.053,5.063,1.582,10.707,1.582,16.929v7.437
					h11.075c4.218,0,6.328,2.111,6.328,6.328c0,2.639-0.501,4.431-1.503,5.38c-1.003,0.949-2.61,1.424-4.825,1.424H447.28z
					 M399.025,606.102c0,5.379,1.555,9.335,4.667,11.866c3.11,2.531,7.673,3.797,13.686,3.797h16.929v-10.442
					c0-7.805-1.32-14.026-3.955-18.669c-2.638-4.641-7.174-6.962-13.607-6.962c-3.06,0-5.695,0.608-7.911,1.819
					c-2.215,1.214-4.034,2.796-5.458,4.747c-1.424,1.953-2.506,4.141-3.243,6.565C399.393,601.251,399.025,603.676,399.025,606.102z
					"/>
				<path fill="#F36038" d="M458.354,634.896c-4.218,0-6.329-2.108-6.329-6.328c0-2.636,0.502-4.431,1.504-5.38
					c1.003-0.949,2.61-1.424,4.825-1.424h24.682v-47.781h12.974v60.913H458.354z M480.663,547.403c0-2.318,0.815-4.296,2.452-5.933
					c1.634-1.634,3.611-2.452,5.933-2.452c2.319,0,4.297,0.818,5.934,2.452c1.634,1.637,2.452,3.614,2.452,5.933
					c0,2.321-0.818,4.3-2.452,5.934c-1.637,1.637-3.614,2.452-5.934,2.452c-2.321,0-4.299-0.815-5.933-2.452
					C481.479,551.703,480.663,549.725,480.663,547.403z"/>
			</g>
			<g>
				<g>
					<path fill="#F36038" d="M233.543,719.707c0-5.063-0.202-9.214-0.405-13.163h7.898l0.405,7.999h0.304
						c2.43-4.557,8.101-9.113,16.201-9.113c6.683,0,17.213,4.051,17.213,20.758v29.264h-8.809v-28.149
						c0-7.999-2.937-14.581-11.341-14.581c-5.873,0-10.328,4.151-11.948,9.113c-0.405,1.113-0.709,2.633-0.709,4.151v29.466h-8.81
						V719.707z"/>
					<path fill="#F36038" d="M324.165,743.705c0,4.253,0.203,8.404,0.709,11.746h-8l-0.81-6.177h-0.203
						c-2.734,3.747-8,7.291-14.986,7.291c-9.822,0-14.986-7.089-14.986-14.075c0-11.847,10.531-18.327,29.466-18.125v-1.114
						c0-4.05-1.215-11.341-11.138-11.341c-4.557,0-9.417,1.418-12.758,3.646l-2.025-5.873c4.05-2.633,10.024-4.253,16.1-4.253
						c14.986,0,18.631,10.228,18.631,20.049V743.705z M315.558,730.542c-9.721-0.304-20.758,1.417-20.758,10.936
						c0,5.873,3.949,8.506,8.404,8.506c6.48,0,10.43-4.051,11.949-8.202c0.202-1.013,0.405-1.924,0.405-2.835V730.542z"/>
					<path fill="#F36038" d="M341.173,706.544l6.582,24.808c1.519,5.367,2.633,10.633,3.646,15.695h0.304
						c1.013-5.063,2.633-10.328,4.354-15.594l8.101-24.909h7.392l7.594,24.504c1.721,5.671,3.24,10.937,4.354,15.999h0.304
						c0.81-5.063,2.126-10.227,3.747-15.999l6.987-24.504h8.809l-15.897,48.907h-8.101l-7.392-23.391
						c-1.721-5.468-3.139-10.328-4.354-16.1h-0.203c-1.215,5.873-2.734,11.037-4.455,16.201l-7.898,23.289h-8.101l-14.784-48.907
						H341.173z"/>
					<path fill="#F36038" d="M416.908,706.544l6.582,24.808c1.519,5.367,2.633,10.633,3.646,15.695h0.304
						c1.013-5.063,2.633-10.328,4.354-15.594l8.101-24.909h7.392l7.594,24.504c1.722,5.671,3.24,10.937,4.354,15.999h0.304
						c0.811-5.063,2.126-10.227,3.746-15.999l6.987-24.504h8.81l-15.897,48.907h-8.101l-7.392-23.391
						c-1.722-5.468-3.14-10.328-4.354-16.1h-0.202c-1.216,5.873-2.734,11.037-4.456,16.201l-7.897,23.289h-8.101l-14.784-48.907
						H416.908z"/>
					<path fill="#F36038" d="M522.008,743.705c0,4.253,0.202,8.404,0.709,11.746h-8l-0.81-6.177h-0.202
						c-2.734,3.747-8,7.291-14.986,7.291c-9.822,0-14.986-7.089-14.986-14.075c0-11.847,10.531-18.327,29.466-18.125v-1.114
						c0-4.05-1.215-11.341-11.138-11.341c-4.557,0-9.417,1.418-12.759,3.646l-2.025-5.873c4.051-2.633,10.024-4.253,16.1-4.253
						c14.986,0,18.632,10.228,18.632,20.049V743.705z M513.4,730.542c-9.721-0.304-20.757,1.417-20.757,10.936
						c0,5.873,3.948,8.506,8.404,8.506c6.48,0,10.429-4.051,11.948-8.202c0.202-1.013,0.404-1.924,0.404-2.835V730.542z"/>
					<path fill="#F36038" d="M536.383,721.732c0-5.771-0.202-10.632-0.405-15.188h7.797l0.304,9.619h0.305
						c2.328-6.581,7.796-10.733,13.669-10.733c1.013,0,1.722,0,2.431,0.203v8.404c-0.811-0.203-1.722-0.304-2.937-0.304
						c-6.379,0-10.733,4.759-11.948,11.441c-0.304,1.216-0.405,2.734-0.405,4.051v26.226h-8.81V721.732z"/>
				</g>
			</g>
		</g>
	</g>
</g>
<g id="Layer_2">
	<g>
		<g>
			<defs>
				<path id="XMLID_7_" d="M411.072,78.984c-149.996,3.758-193.415,118.593-193.415,197.544c0,98.689,86.84,138.146,106.577,173.679
					c19.738,35.533,23.682,98.689,23.682,98.689l-0.147,0.387c5.176,2.045,10.447,3.817,15.794,5.352
					c7.927,2.269,16.03,3.948,24.28,5.029c2.875,0.379,5.767,0.676,8.675,0.902c4.287,0.335,8.6,0.549,12.953,0.549
					c5.437,0,10.825-0.269,16.154-0.788c2.948-0.29,5.875-0.67,8.786-1.112c8.223-1.251,16.285-3.125,24.174-5.556
					c4.566-1.408,9.084-2.979,13.527-4.763c0.736-0.295,1.455-0.57,2.176-0.884c0.551-7.61,5.232-64.688,23.625-97.806
					c19.736-35.532,106.578-74.989,106.578-173.679C604.49,197.577,561.07,82.742,411.072,78.984z"/>
			</defs>
			<use xlink:href="#XMLID_7_"  overflow="visible" fill="#94E0D1"/>
			<clipPath id="XMLID_3_">
				<use xlink:href="#XMLID_7_"  overflow="visible"/>
			</clipPath>
			<rect x="362.81" y="423.352" clip-path="url(#XMLID_3_)" fill="#E2AF38" width="32.955" height="140.661"/>
			<rect x="424.873" y="419.666" clip-path="url(#XMLID_3_)" fill="#FFD268" width="32.959" height="144.347"/>
			<rect x="387.09" y="343.303" clip-path="url(#XMLID_3_)" fill="#FFC334" width="46.568" height="219.674"/>
			<path clip-path="url(#XMLID_3_)" fill="#F6A453" d="M358.288,328.626"/>
			<path clip-path="url(#XMLID_3_)" fill="#F36038" d="M457.619,333.64v33.265c0,1.087-0.148,2.139-0.461,3.132
				c-15.887,1.271-49.003,3.135-72.944-0.828c-19.002-3.153-18.541-26.89-14.817-46.147c2.451-1.4,5.399-2.21,8.568-2.21h64.412
				C450.799,320.851,457.619,326.563,457.619,333.64z"/>
			<path clip-path="url(#XMLID_3_)" fill="#DA572C" d="M457.148,370.036c-1.656,5.558-7.633,9.672-14.77,9.672h-64.42
				c-8.403,0-15.253-5.73-15.253-12.8v-33.275c0-4.406,2.662-8.286,6.693-10.579c-3.719,19.268-4.188,42.998,14.811,46.158
				C408.153,373.179,441.27,371.303,457.148,370.036z"/>
			<path clip-path="url(#XMLID_3_)" fill="#DA572C" d="M349.315,226.134c0-29.433,18.331-54.568,44.189-64.662
				c-29.934,7.707-52.054,34.879-52.054,67.217c0,38.331,31.072,69.406,69.407,69.406c8.896,0,17.392-1.695,25.216-4.744
				c-5.549,1.429-11.362,2.188-17.355,2.188C380.388,295.539,349.315,264.464,349.315,226.134z"/>
			<path clip-path="url(#XMLID_3_)" fill="#F36038" d="M480.258,228.689c0-38.331-31.072-69.402-69.4-69.402
				c-5.991,0-11.807,0.76-17.354,2.185c-25.858,10.093-44.189,35.229-44.189,64.662c0,38.331,31.073,69.405,69.404,69.405
				c5.993,0,11.806-0.76,17.355-2.188C461.93,283.256,480.258,258.122,480.258,228.689z"/>
			<polyline clip-path="url(#XMLID_3_)" fill="none" points="441.252,229.011 439.662,227.887 390.085,192.928 387.9,191.388 
				387.9,265.091 391.453,262.841 442.928,230.194 441.252,229.011 			"/>
			<path clip-path="url(#XMLID_3_)" fill="none" d="M389.9,193.094c0.038-0.029,0.07-0.029,0.108-0.011"/>
			<polygon clip-path="url(#XMLID_3_)" fill="#F3F6DC" points="392.749,261.995 419.921,246.309 444.098,232.35 418.471,217.551 
				392.749,202.705 392.749,230.622 			"/>
			<path clip-path="url(#XMLID_3_)" fill="#F3F6DC" d="M448.324,412.463c13.854,0,17.635,5.36,17.635,12.005
				c0,3.178-0.865,6.064-3.301,8.21c-15.734,0.141-73.017,0.414-94.461-2.782c-13.966-2.077-13.118-9.902-11.817-13.235
				c0.232-0.237,0.489-0.468,0.756-0.688c2.677-2.171,7.086-3.51,14.013-3.51H448.324z"/>
			<path clip-path="url(#XMLID_3_)" fill="#CAAFA1" d="M462.658,432.678c-2.629,2.34-7.113,3.798-14.334,3.798h-77.176
				c-13.856,0-17.638-5.374-17.638-12.008c0-2.988,0.766-5.709,2.869-7.808c-1.301,3.333-2.148,11.158,11.817,13.235
				C389.641,433.092,446.924,432.818,462.658,432.678z"/>
			<path clip-path="url(#XMLID_3_)" fill="#F3F6DC" d="M448.348,388.624c13.854,0,17.635,5.355,17.635,12.004
				c0,3.175-0.865,6.065-3.301,8.207c-15.734,0.144-73.017,0.417-94.461-2.779c-13.966-2.076-13.118-9.905-11.817-13.235
				c0.232-0.24,0.489-0.468,0.756-0.69c2.676-2.167,7.086-3.506,14.013-3.506H448.348z"/>
			<path clip-path="url(#XMLID_3_)" fill="#CAAFA1" d="M462.682,408.835c-2.629,2.343-7.113,3.801-14.334,3.801h-77.176
				c-13.856,0-17.638-5.374-17.638-12.008c0-2.987,0.766-5.709,2.869-7.808c-1.301,3.33-2.148,11.159,11.817,13.235
				C389.665,409.252,446.947,408.979,462.682,408.835z"/>
			<path clip-path="url(#XMLID_3_)" fill="#F3F6DC" d="M449.072,364.611c13.852,0,17.633,5.356,17.633,12.005
				c0,3.175-0.865,6.064-3.301,8.206c-15.734,0.145-73.017,0.418-94.46-2.778c-13.967-2.077-13.119-9.906-11.817-13.235
				c0.232-0.241,0.489-0.468,0.756-0.691c2.676-2.167,7.086-3.506,14.013-3.506H449.072z"/>
			<path clip-path="url(#XMLID_3_)" fill="#CAAFA1" d="M463.404,384.822c-2.629,2.344-7.111,3.802-14.332,3.802h-77.177
				c-13.856,0-17.638-5.374-17.638-12.008c0-2.988,0.765-5.709,2.869-7.808c-1.302,3.329-2.149,11.158,11.817,13.235
				C390.387,385.24,447.67,384.967,463.404,384.822z"/>
		</g>
		<g>
			<path fill-rule="evenodd" clip-rule="evenodd" fill="#F36038" d="M390.604,599.556c9.929-2.008,19.874-3.972,29.778-6.063
				c2.729-0.575,2.264-2.424,1.845-4.179c-0.502-2.105-1.89-2.88-4.39-2.376c-9.602,1.944-19.209,3.875-28.817,5.792
				c-2.852,0.574-2.538,2.252-2.151,4.016C387.249,598.471,388.077,599.713,390.604,599.556z"/>
			<path fill-rule="evenodd" clip-rule="evenodd" fill="#F36038" d="M414.214,618.408c-3.348-1.091-6.491,0.002-9.964,1.764
				c-3.635,1.836-8.182,1.904-11.795-0.338c-3.8-2.365-4.12-6.319-4.266-9.832c-0.098-2.385,3.362-2.254,5.489-2.79
				c2.059-0.515,2.914,0.681,3.416,2.099c0.049,0.143,0.066,0.303,0.141,0.438c1.072,1.983,0.54,5.675,4.67,4.838
				c3.585-0.729,2.061-3.723,1.447-5.799c-0.877-2.991,1.456-3.561,3.99-4.249c2.89-0.779,4.528,0.011,5.122,2.44
				c0.035,0.146,0.066,0.302,0.133,0.434c0.931,1.792,0.796,4.96,4.313,4.119c3.205-0.765,2.17-3.655,1.324-5.449
				c-1.691-3.593-0.401-5.182,3.938-6.025c5.017-0.983,4.773,2.206,5.478,4.454C430,612.071,424.005,618.484,414.214,618.408z"/>
			<g>
				<path fill="#F36038" d="M367.295,634.701h8.872v30.194c0,5.342-0.31,9.83-0.932,13.475c-0.619,3.644-1.808,6.584-3.559,8.821
					c-1.755,2.236-4.166,3.86-7.24,4.87c-3.076,1.01-7.03,1.515-11.862,1.515v-8.982c3.533,0,6.294-0.378,8.279-1.136
					c1.984-0.757,3.464-1.984,4.438-3.68c0.974-1.696,1.55-3.861,1.731-6.494c0.179-2.633,0.272-5.825,0.272-9.578V634.701z"/>
				<path fill="#F36038" d="M429.416,670.957c-0.289,4.4-1.209,8.045-2.758,10.932c-1.553,2.886-3.665,5.194-6.332,6.926
					c-2.671,1.733-5.864,2.959-9.578,3.681c-3.719,0.72-7.848,1.081-12.394,1.081h-4.546v-8.982h3.354
					c3.391,0,6.493-0.162,9.309-0.487c2.814-0.324,5.248-0.974,7.307-1.947c2.056-0.974,3.679-2.365,4.87-4.167
					c1.189-1.805,1.821-4.149,1.894-7.035h-12.231c-2.959,0-5.68-0.323-8.171-0.974c-2.489-0.649-4.654-1.713-6.493-3.192
					c-1.84-1.478-3.285-3.41-4.328-5.79c-1.048-2.381-1.57-5.34-1.57-8.876c0-2.957,0.486-5.844,1.462-8.657
					c0.972-2.814,2.381-5.304,4.221-7.469c1.839-2.165,4.074-3.913,6.709-5.248c2.633-1.335,5.645-2.003,9.038-2.003
					c3.751,0,6.926,0.668,9.524,2.003c2.596,1.335,4.708,3.229,6.332,5.682c1.624,2.453,2.793,5.41,3.516,8.875
					c0.721,3.463,1.082,7.323,1.082,11.579v5.088h7.574c2.887,0,4.33,1.443,4.33,4.328c0,1.806-0.342,3.031-1.027,3.681
					c-0.686,0.65-1.787,0.974-3.303,0.974H429.416z M396.408,651.259c0,3.681,1.062,6.386,3.192,8.117
					c2.128,1.733,5.248,2.599,9.362,2.599h11.58v-7.143c0-5.34-0.903-9.597-2.707-12.771s-4.906-4.762-9.309-4.762
					c-2.091,0-3.895,0.415-5.41,1.243c-1.515,0.832-2.761,1.913-3.732,3.247c-0.976,1.337-1.717,2.833-2.221,4.492
					C396.66,647.942,396.408,649.602,396.408,651.259z"/>
				<path fill="#F36038" d="M436.992,670.957c-2.885,0-4.328-1.441-4.328-4.328c0-1.804,0.344-3.03,1.027-3.681
					c0.688-0.649,1.785-0.974,3.301-0.974h16.885V629.29h8.873v41.667H436.992z M452.254,611.106c0-1.585,0.559-2.938,1.678-4.059
					c1.115-1.117,2.469-1.677,4.057-1.677c1.586,0,2.939,0.56,4.061,1.677c1.115,1.12,1.676,2.474,1.676,4.059
					c0,1.588-0.561,2.941-1.676,4.059c-1.121,1.119-2.475,1.678-4.061,1.678c-1.588,0-2.941-0.559-4.057-1.678
					C452.813,614.048,452.254,612.694,452.254,611.106z"/>
			</g>
		</g>
		<g>
			<path fill="#F36038" d="M306.643,753.36h-9.796v-17.224c0-3.587-0.061-5.861-0.18-6.824c-0.362-2.936-1.236-4.958-2.626-6.065
				c-1.057-0.795-2.353-1.191-3.888-1.191c-4.222,0-6.918,2.517-8.095,7.547c-0.288,1.227-0.432,3.887-0.432,7.979v15.778h-9.868
				v-39.331h9.868v4.013c3.995-3.349,7.883-5.024,11.66-5.024c3.922,0,7.231,1.362,9.926,4.085c2.285,2.291,3.43,5.711,3.43,10.267
				V753.36z"/>
			<path fill="#F36038" d="M355.082,753.36h-9.868v-4.157c-3.633,3.446-7.666,5.169-12.096,5.169c-5.438,0-9.965-2.097-13.575-6.29
				c-3.443-4.024-5.164-8.796-5.164-14.315c0-5.664,1.638-10.471,4.912-14.423c3.489-4.217,8.003-6.326,13.539-6.326
				c4.741,0,8.869,1.783,12.384,5.351v-4.339h9.868V753.36z M345.684,733.623c0-3.292-0.985-6.024-2.956-8.198
				c-1.969-2.174-4.585-3.261-7.852-3.261c-3.195,0-5.79,1.128-7.782,3.387c-1.899,2.162-2.846,4.865-2.846,8.108
				c0,3.22,0.961,5.936,2.882,8.144c2.017,2.33,4.61,3.497,7.782,3.497c3.266,0,5.908-1.144,7.926-3.424
				C344.735,739.689,345.684,736.939,345.684,733.623z"/>
			<path fill="#F36038" d="M418.667,714.029l-14.349,39.331h-6.29l-8.333-22.414l-8.621,22.414h-6.218l-14.17-39.331h9.687
				l7.901,22.378l8.511-22.378h5.93l8.294,22.124l7.9-22.124H418.667z"/>
			<path fill="#F36038" d="M477.883,714.029l-14.355,39.331h-6.287l-8.332-22.414l-8.623,22.414h-6.217l-14.17-39.331h9.688
				l7.9,22.378l8.512-22.378h5.928l8.295,22.124l7.902-22.124H477.883z"/>
			<path fill="#F36038" d="M522.381,753.36h-9.869v-4.157c-3.637,3.446-7.668,5.169-12.098,5.169c-5.439,0-9.967-2.097-13.574-6.29
				c-3.443-4.024-5.164-8.796-5.164-14.315c0-5.664,1.639-10.471,4.91-14.423c3.492-4.217,8.006-6.326,13.541-6.326
				c4.742,0,8.869,1.783,12.385,5.351v-4.339h9.869V753.36z M512.98,733.623c0-3.292-0.984-6.024-2.955-8.198
				c-1.969-2.174-4.588-3.261-7.852-3.261c-3.195,0-5.791,1.128-7.785,3.387c-1.895,2.162-2.844,4.865-2.844,8.108
				c0,3.22,0.961,5.936,2.883,8.144c2.018,2.33,4.611,3.497,7.779,3.497c3.268,0,5.91-1.144,7.926-3.424
				C512.033,739.689,512.98,736.939,512.98,733.623z"/>
			<path fill="#F36038" d="M551.156,714.029l-3.072,8.532c-1.152-0.579-2.1-0.867-2.844-0.867c-1.512,0-2.787,0.939-3.816,2.816
				c-1.152,2.046-1.682,5.729-1.584,11.047l0.037,1.915v15.888h-9.832v-39.331h8.492v4.954c1.85-3.979,4.723-5.966,8.617-5.966
				C548.428,713.018,549.76,713.355,551.156,714.029z"/>
		</g>
	</g>
	<g>
	</g>
	<g>
	</g>
	<g>
	</g>
	<g>
	</g>
	<g>
	</g>
	<g>
	</g>
</g>
</svg>
