<?xml version="1.0" encoding="utf-8"?>
<!-- Generator: Adobe Illustrator 16.0.0, SVG Export Plug-In . SVG Version: 6.00 Build 0)  -->
<!DOCTYPE svg PUBLIC "-//W3C//DTD SVG 1.1//EN" "http://www.w3.org/Graphics/SVG/1.1/DTD/svg11.dtd">
<svg version="1.1" id="Layer_1" xmlns="http://www.w3.org/2000/svg" xmlns:xlink="http://www.w3.org/1999/xlink" x="0px" y="0px"
	 width="238.5px" height="217px" viewBox="0 0 238.5 217" enable-background="new 0 0 238.5 217" xml:space="preserve">
<g id="Layer_2">
	<g>
		<g>
			<circle id="XMLID_1_" fill="#013972" cx="124.85" cy="118.787" r="92.655"/>
		</g>
		<g>
			<g>
				<defs>
					<circle id="SVGID_1_" cx="124.85" cy="118.787" r="92.655"/>
				</defs>
				<clipPath id="SVGID_2_">
					<use xlink:href="#SVGID_1_"  overflow="visible"/>
				</clipPath>
				<polygon clip-path="url(#SVGID_2_)" fill="#083159" points="73.249,163.848 139.658,219.511 266.146,136.011 172.55,76.291 				
					"/>
			</g>
		</g>
	</g>
</g>
<g id="Layer_1_1_">
	<g>
		<g id="XMLID_2_">
			<g>
				<polygon fill="#961B2A" points="139.479,121.156 176.882,78.823 172.55,76.291 170.313,78.823 135.139,118.624 173.682,163.848 
					153.287,163.848 155.35,166.371 178.021,166.371 				"/>
				<polygon fill="#961B2A" points="153.287,163.848 155.35,166.371 151.01,163.848 				"/>
				<path fill="#961B2A" d="M125.566,108.168c-0.287,0.406-0.572,0.813-0.859,1.227h-0.678c-3.631-4.879-7.031-9.403-11.108-14.286
					L99.384,78.823h2.229l15.649,18.817C120.279,101.248,122.923,104.664,125.566,108.168z"/>
				<path fill="#BB202C" d="M135.139,118.624l35.174-39.799v-0.002l2.237-2.532h-21.541l-15.417,18.633
					c-3.119,4.041-6.231,7.968-9.352,12.314l-2.211,2.158c-3.631-4.881-7.031-9.405-11.108-14.287L99.384,78.825v-0.002
					l-2.102-2.532H75.064l37.173,42.874l-38.988,44.683h6.545v0.002h15.441l15.871-19.719c4.085-5.248,7.94-9.954,11.563-15.193
					h0.454c0.979,1.33,1.936,2.629,2.906,3.918c0,0,0-0.001,0.001-0.001c2.825,3.807,5.669,7.493,8.886,11.274l16.094,19.719h2.277
					h20.395L135.139,118.624z"/>
				<polygon fill="#961B2A" points="101.614,78.823 99.384,78.823 97.282,76.291 				"/>
				<g>
					<path fill="#961B2A" d="M123.123,128.936v0.002h-0.454c-3.624,5.239-7.478,9.945-11.563,15.193l-15.87,19.719H79.795
						l-2.206,2.522h21.986l15.871-19.717c3.711-4.771,7.24-9.104,10.583-13.802C125.059,131.564,124.102,130.266,123.123,128.936z"
						/>
					<polygon fill="#961B2A" points="79.794,163.848 73.249,163.848 77.589,166.371 					"/>
				</g>
			</g>
		</g>
	</g>
</g>
</svg>
