<?xml version="1.0" encoding="utf-8"?>
<!-- Generator: Adobe Illustrator 16.0.0, SVG Export Plug-In . SVG Version: 6.00 Build 0)  -->
<!DOCTYPE svg PUBLIC "-//W3C//DTD SVG 1.1//EN" "http://www.w3.org/Graphics/SVG/1.1/DTD/svg11.dtd">
<svg version="1.1" id="Layer_1" xmlns="http://www.w3.org/2000/svg" xmlns:xlink="http://www.w3.org/1999/xlink" x="0px" y="0px"
	 width="1254px" height="610px" viewBox="6554.5 6922.5 1254 610" enable-background="new 6554.5 6922.5 1254 610"
	 xml:space="preserve">
<pattern  x="6700.5" y="7600.5" width="82.8" height="72" patternUnits="userSpaceOnUse" id="SVGID_2_" viewBox="0 -72 82.8 72" overflow="visible">
	<g>
		<polygon fill="none" points="0,0 82.8,0 82.8,-72 0,-72 		"/>
		<g>
			<polygon fill="none" points="0,-72 82.8,-72 82.8,0 0,0 			"/>
			<g>
				<polygon fill="none" points="0,-72 82.8,-72 82.8,0 0,0 				"/>
				<line fill="none" stroke="#B59C20" stroke-width="9.6" x1="41.399" y1="0" x2="41.399" y2="-72"/>
				<line fill="none" stroke="#B59C20" stroke-width="9.6" x1="13.799" y1="0" x2="13.799" y2="-72"/>
				<line fill="none" stroke="#B59C20" stroke-width="9.6" x1="68.999" y1="0" x2="68.999" y2="-72"/>
				<line fill="none" stroke="#B59C20" stroke-width="0.4" x1="49.8" y1="0" x2="49.8" y2="-72"/>
				<line fill="none" stroke="#B59C20" stroke-width="0.4" x1="22.2" y1="0" x2="22.2" y2="-72"/>
				<line fill="none" stroke="#B59C20" stroke-width="0.4" x1="77.399" y1="0" x2="77.399" y2="-72"/>
				<line fill="none" stroke="#B59C20" stroke-width="0.4" x1="5.399" y1="0" x2="5.399" y2="-72"/>
				<line fill="none" stroke="#B59C20" stroke-width="0.4" x1="32.999" y1="0" x2="32.999" y2="-72"/>
				<line fill="none" stroke="#B59C20" stroke-width="0.4" x1="60.599" y1="0" x2="60.599" y2="-72"/>
			</g>
		</g>
	</g>
</pattern>
<g id="Layer_1_1_">
	<path fill="#EDCB94" d="M6650.26,7353.736c0,0-0.35,8.238-0.872,20.6c-0.224,6.195-0.481,13.43-0.763,21.178
		c-0.1,3.877-0.203,7.881-0.313,11.949c-0.088,4.067-0.157,8.199-0.18,12.326c-0.002,4.127-0.071,8.26-0.023,12.313
		c0.023,4.06,0.102,8.05,0.245,11.899c0.146,3.854,0.271,7.571,0.496,11.088c0.213,3.517,0.496,6.824,0.819,9.86
		c0.338,3.033,0.713,5.798,1.135,8.215c0.19,1.222,0.433,2.33,0.521,3.397c0.091,1.072,0.146,2.067,0.16,2.974
		c0.018,0.912-0.044,1.763-0.116,2.521c-0.036,0.735-0.12,1.396-0.205,1.946c-0.175,1.106-0.375,1.772-0.375,1.772
		s-0.586-0.301-1.487-1.012c-0.451-0.355-0.984-0.814-1.547-1.393c-0.537-0.584-1.09-1.285-1.646-2.107
		c-0.587-0.813-1.098-1.766-1.564-2.814c-0.475-1.057-0.916-2.229-1.252-3.494c-0.765-2.524-1.516-5.389-2.256-8.514
		c-0.729-3.127-1.439-6.521-2.104-10.119c-0.65-3.6-1.327-7.398-1.848-11.336c-0.551-3.936-1.057-8.004-1.506-12.145
		c-0.455-4.14-0.896-8.34-1.217-12.545c-0.334-4.207-0.619-8.414-0.877-12.554c-0.26-4.144-0.455-8.22-0.59-12.162
		c-0.146-3.942-0.272-7.752-0.354-11.365c-0.041-3.617-0.081-7.037-0.12-10.19c-0.033-6.312,0.056-11.568,0.147-15.26
		c0.059-1.849,0.104-3.301,0.133-4.289c0.043-1.002,0.065-1.539,0.065-1.539L6650.26,7353.736z"/>
	<path fill="#EDCB94" d="M6651.874,7483.828v9.066l-6.744,0.826l-3.301-0.826c-6.25,1.856-14.417,0-21.328,0
		c-13.36,0-17.034-5.051-17.034-9.066c0-4.009,23.375-3.667,36.732-3.667C6653.573,7480.161,6651.874,7479.818,6651.874,7483.828"/>
	<path fill="#613436" d="M6630.296,7480.164c0,0-11.034,3.2-4.185,8.941c0,0,21.472-1.489,25.762-5.277v9.066
		c0.383,2.08-11.352,0.9-21.958,0.826c-7.287-0.057-14.19,1.412-16.742-2.609c0,0-4.321-9.055,4.569-10.959
		C6619.834,7479.708,6626.738,7479.408,6630.296,7480.164z"/>
	<path fill="#EDCB94" d="M6802.816,7358.544c0,0,0.078,0.517,0.233,1.487c0.14,0.961,0.347,2.367,0.604,4.158
		c0.502,3.578,1.172,8.685,1.844,14.819c0.314,3.069,0.658,6.397,1.021,9.921c0.324,3.523,0.631,7.247,0.933,11.098
		c0.308,3.854,0.574,7.838,0.791,11.891c0.211,4.059,0.414,8.178,0.563,12.302c0.166,4.126,0.215,8.261,0.248,12.338
		c0.037,4.069,0.01,8.086-0.063,11.974c-0.056,3.885-0.265,7.649-0.474,11.227c-0.227,3.573-0.51,6.953-0.834,10.075
		c-0.342,3.122-0.723,5.987-1.145,8.533c-0.164,1.265-0.449,2.463-0.771,3.54c-0.164,0.541-0.332,1.055-0.519,1.542
		c-0.211,0.49-0.414,0.955-0.642,1.385c-0.434,0.869-0.875,1.621-1.328,2.256c-0.467,0.634-0.928,1.149-1.315,1.558
		c-0.789,0.812-1.321,1.188-1.321,1.188s-0.297-0.621-0.633-1.672c-0.166-0.521-0.353-1.154-0.494-1.867
		c-0.176-0.727-0.357-1.543-0.472-2.438c-0.117-0.887-0.188-1.855-0.25-2.918c-0.063-1.058,0.037-2.158,0.062-3.371
		c0.098-2.408,0.115-5.145,0.069-8.137c-0.062-2.997-0.192-6.249-0.401-9.693c-0.209-3.442-0.529-7.076-0.84-10.84
		c-0.326-3.765-0.707-7.651-1.164-11.603c-0.422-3.949-0.972-7.96-1.449-11.976c-0.976-8.022-2.189-16.035-3.254-23.549
		c-1.146-7.508-2.22-14.517-3.138-20.52c-1.89-11.963-3.147-19.938-3.147-19.938L6802.816,7358.544z"/>
	<path fill="#EDCB94" d="M6798.285,7485.582v9.063l6.741,0.826l3.304-0.826c6.252,1.86,14.418,0,21.33,0
		c13.357,0,17.031-5.053,17.031-9.063c0-4.012-23.373-3.67-36.73-3.67C6796.584,7481.912,6798.285,7481.57,6798.285,7485.582"/>
	<path fill="#613436" d="M6819.801,7481.327c0,0,11.029,3.206,4.184,8.948c0,0-21.473-1.491-25.764-5.277v9.063
		c-0.381,2.083,11.352,0.905,21.959,0.826c7.288-0.052,14.191,1.414,16.741-2.606c0,0,4.321-9.055-4.569-10.961
		C6830.264,7480.874,6823.357,7480.578,6819.801,7481.327z"/>
	<path fill="#081C44" d="M6813.79,7340.124c0,29.854-42.581,54.05-95.097,54.05c-52.522,0-95.099-24.195-95.099-54.05
		c0-29.849,42.575-54.052,95.099-54.052C6771.209,7286.072,6813.79,7310.275,6813.79,7340.124"/>
	<path fill="#EDCB94" d="M6813.788,7084.704c0-52.457-42.522-94.979-94.979-94.979c-52.455,0-94.979,42.522-94.979,94.979v255.42
		h189.963v-255.42H6813.788z"/>
	<path fill="#613436" d="M6771.598,6989.591c0,0-62.361-55.25-105.953,3.556c0,0-8.045,19.914-32.188,10.525
		c0,0,68.398,60.354,134.12,10.061c0,0,16.509,1.994,27.151,14.031C6794.729,7027.764,6781.139,6996.721,6771.598,6989.591"/>
	<path fill="#663D1B" d="M6790.199,7019.43c0,0-4.626,51.338,22.413,84.85C6812.611,7104.277,6825.752,7049.879,6790.199,7019.43"/>
	<path fill="#613436" d="M6656.652,7009.584c0,0-5.041,61.184-32.076,94.693C6624.577,7104.277,6616.243,7038.436,6656.652,7009.584
		"/>
	<path fill="#C9A277" d="M6778.796,7104.859c0,0.551-0.449,0.998-0.998,0.998c-0.551,0-0.996-0.446-0.996-0.998
		c0-0.547,0.444-0.996,0.996-0.996C6778.348,7103.863,6778.796,7104.313,6778.796,7104.859"/>
	<path fill="#C9A277" d="M6773.984,7128.536c0,0.847-0.688,1.536-1.539,1.536c-0.85,0-1.537-0.689-1.537-1.536
		c0-0.851,0.688-1.54,1.537-1.54C6773.296,7126.996,6773.984,7127.686,6773.984,7128.536"/>
	<path fill="#C9A277" d="M6769.624,7113.955c0,0.85-0.692,1.54-1.54,1.54c-0.85,0-1.539-0.69-1.539-1.54
		c0-0.848,0.689-1.537,1.539-1.537C6768.932,7112.418,6769.624,7113.107,6769.624,7113.955"/>
	<path fill="#C9A277" d="M6782.414,7114.934c0,0.852-0.691,1.539-1.54,1.539s-1.538-0.688-1.538-1.539
		c0-0.85,0.689-1.539,1.538-1.539C6781.723,7113.396,6782.414,7114.084,6782.414,7114.934"/>
	<path fill="#C9A277" d="M6782.414,7109.128c0,0.851-0.691,1.54-1.54,1.54s-1.538-0.688-1.538-1.54c0-0.849,0.689-1.538,1.538-1.538
		S6782.414,7108.279,6782.414,7109.128"/>
	<path fill="#C9A277" d="M6776.725,7111.42c0,0.551-0.446,0.999-0.998,0.999c-0.555,0-1.002-0.446-1.002-0.999
		s0.447-0.999,1.002-0.999C6776.277,7110.421,6776.725,7110.867,6776.725,7111.42"/>
	<path fill="#C9A277" d="M6787.197,7127.535c0,0.552-0.445,1-1,1c-0.551,0-1-0.448-1-1c0-0.553,0.449-0.999,1-0.999
		C6786.751,7126.536,6787.197,7126.982,6787.197,7127.535"/>
	<path fill="#C9A277" d="M6765.052,7120.551c0,0.27-0.22,0.488-0.489,0.488c-0.268,0-0.486-0.22-0.486-0.488
		c0-0.271,0.221-0.488,0.486-0.488C6764.833,7120.063,6765.052,7120.279,6765.052,7120.551"/>
	<path fill="#C9A277" d="M6777.216,7115.982c0,0.27-0.22,0.49-0.491,0.49c-0.27,0-0.488-0.222-0.488-0.49
		c0-0.27,0.22-0.487,0.488-0.487C6776.997,7115.495,6777.216,7115.714,6777.216,7115.982"/>
	<path fill="#C9A277" d="M6771.936,7115.473c0,0.271-0.219,0.488-0.484,0.488c-0.271,0-0.488-0.219-0.488-0.488
		c0-0.269,0.217-0.487,0.488-0.487C6771.717,7114.982,6771.936,7115.204,6771.936,7115.473"/>
	<path fill="#C9A277" d="M6772.445,7118.551c0,0.551-0.446,1-0.996,1c-0.556,0-1-0.449-1-1c0-0.55,0.444-1,1-1
		C6772,7117.551,6772.445,7118.001,6772.445,7118.551"/>
	<path fill="#C9A277" d="M6770.621,7122.04c0,0.551-0.445,0.999-0.997,0.999c-0.554,0-1.001-0.448-1.001-0.999
		c0-0.554,0.448-1,1.001-1C6770.175,7121.039,6770.621,7121.486,6770.621,7122.04"/>
	<path fill="#C9A277" d="M6763.805,7116.473c0,0.554-0.449,0.998-1,0.998c-0.555,0-1-0.444-1-0.998c0-0.551,0.445-1,1-1
		C6763.354,7115.473,6763.805,7115.92,6763.805,7116.473"/>
	<path fill="#C9A277" d="M6665.344,7104.859c0,0.551,0.444,0.998,0.994,0.998c0.551,0,0.998-0.446,0.998-0.998
		c0-0.547-0.445-0.996-0.998-0.996C6665.788,7103.863,6665.344,7104.313,6665.344,7104.859"/>
	<path fill="#C9A277" d="M6670.15,7128.536c0,0.847,0.688,1.536,1.539,1.536c0.85,0,1.539-0.689,1.539-1.536
		c0-0.851-0.688-1.54-1.539-1.54C6670.84,7126.996,6670.15,7127.686,6670.15,7128.536"/>
	<path fill="#C9A277" d="M6674.516,7113.955c0,0.85,0.688,1.54,1.535,1.54c0.853,0,1.541-0.69,1.541-1.54
		c0-0.848-0.688-1.537-1.541-1.537C6675.203,7112.418,6674.516,7113.107,6674.516,7113.955"/>
	<path fill="#C9A277" d="M6661.725,7114.934c0,0.852,0.688,1.539,1.537,1.539c0.851,0,1.541-0.688,1.541-1.539
		c0-0.85-0.69-1.539-1.541-1.539C6662.411,7113.396,6661.725,7114.084,6661.725,7114.934"/>
	<path fill="#C9A277" d="M6661.725,7109.128c0,0.851,0.688,1.54,1.537,1.54c0.851,0,1.541-0.688,1.541-1.54
		c0-0.849-0.69-1.538-1.541-1.538S6661.725,7108.279,6661.725,7109.128"/>
	<path fill="#C9A277" d="M6667.412,7111.42c0,0.551,0.445,0.999,0.998,0.999c0.552,0,1-0.446,1-0.999s-0.448-0.999-1-0.999
		C6667.857,7110.421,6667.412,7110.867,6667.412,7111.42"/>
	<path fill="#C9A277" d="M6656.938,7127.535c0,0.552,0.451,1,1.002,1c0.549,0,1-0.448,1-1c0-0.553-0.451-0.999-1-0.999
		C6657.387,7126.536,6656.938,7126.982,6656.938,7127.535"/>
	<path fill="#C9A277" d="M6679.083,7120.551c0,0.27,0.217,0.488,0.489,0.488c0.271,0,0.486-0.22,0.486-0.488
		c0-0.271-0.217-0.488-0.486-0.488C6679.301,7120.063,6679.083,7120.279,6679.083,7120.551"/>
	<path fill="#C9A277" d="M6666.922,7115.982c0,0.27,0.221,0.49,0.49,0.49s0.484-0.222,0.484-0.49c0-0.27-0.215-0.487-0.484-0.487
		S6666.922,7115.714,6666.922,7115.982"/>
	<path fill="#C9A277" d="M6672.199,7115.473c0,0.271,0.221,0.488,0.49,0.488s0.486-0.219,0.486-0.488
		c0-0.269-0.217-0.487-0.486-0.487C6672.419,7114.982,6672.199,7115.204,6672.199,7115.473"/>
	<path fill="#C9A277" d="M6671.689,7118.551c0,0.551,0.444,1,1,1c0.549,0,0.998-0.449,0.998-1c0-0.55-0.449-1-0.998-1
		C6672.135,7117.551,6671.689,7118.001,6671.689,7118.551"/>
	<path fill="#C9A277" d="M6673.518,7122.04c0,0.551,0.445,0.999,0.998,0.999c0.554,0,0.998-0.448,0.998-0.999
		c0-0.554-0.444-1-0.998-1C6673.962,7121.039,6673.518,7121.486,6673.518,7122.04"/>
	<path fill="#C9A277" d="M6680.334,7116.473c0,0.554,0.448,0.998,0.998,0.998c0.557,0,0.999-0.444,0.999-0.998
		c0-0.551-0.442-1-0.999-1C6680.783,7115.473,6680.334,7115.92,6680.334,7116.473"/>
	<path fill="#FFC335" d="M6813.79,7172.206l-91.989,43.265l-97.935-43.265c-2.683,19.25-6.123,70.979-6.123,70.979v73.211
		l6.123,69.328c0.347,4.621,61.868,12.801,66.496,13.07h66.75c62.595,0,57.244-12.366,56.679-8.677l5.022-106.983v-64.076
		C6822.458,7256.277,6813.79,7172.206,6813.79,7172.206z"/>
	<pattern  id="SVGID_1_" xlink:href="#SVGID_2_" patternTransform="matrix(1.4933 0 0 1 31135.0703 2971.5146)">
	</pattern>
	<path fill="url(#SVGID_1_)" stroke="#B7A148" stroke-width="0.5858" stroke-miterlimit="10" d="M6619.982,7271.372l101.817,9.58
		l97.039-9.58c0,0,0.069,20.674,0.069,22.196c0,0.761-47.07,10.81-97.041,10.621c-50.015-0.192-102.926-10.621-102.926-10.621
		L6619.982,7271.372z"/>
	<path fill="#CCB248" d="M6623.866,7164.923c0,0,54.706,41.371,96.076,36.926c0,0,78.499-10.104,93.849-42.087l3.244,18.723
		c0,0-28.379,36.221-102.94,36.322c0,0-58.474,0.482-90.918-34.508L6623.866,7164.923z"/>
	<path fill="#FFC335" d="M6638.854,7194.477c0,0-3.098,7.642-7.744,19.104c-2.293,5.766-4.969,12.486-7.834,19.693
		c-1.396,3.617-2.844,7.352-4.312,11.146c-1.45,3.805-2.903,7.672-4.312,11.552c-1.389,3.888-2.845,7.753-4.162,11.59
		c-1.342,3.832-2.606,7.612-3.771,11.285c-1.159,3.683-2.289,7.228-3.258,10.612c-0.979,3.383-1.827,6.596-2.538,9.563
		c-0.704,2.971-1.278,5.701-1.692,8.12c-0.233,1.216-0.375,2.338-0.651,3.376c-0.28,1.041-0.562,1.995-0.853,2.854
		c-0.291,0.862-0.631,1.646-0.955,2.332c-0.279,0.682,1.176,1.274,0.914,1.765c-0.541,0.983-0.399-10.789-0.399-10.789
		s-1.298,3.351-1.062,2.224c2.787-13.369-0.842-2.076-1.183-2.808c-0.308-0.731-2.711,8.062-2.961,7.101
		c-0.28-0.967-0.442-2.031-0.524-3.179c-0.098-1.155,3.381-2.617,3.485-3.922c0.13-2.635-0.3-6.149,0.058-9.345
		c0.362-3.192,0.724-7.633,1.308-11.248c0.595-3.604-1.464-5.625-0.63-9.506c0.803-3.896,1.695-7.897,2.662-11.946
		c0.961-4.049,1.961-8.153,3.07-12.226c1.102-4.078,2.244-8.131,3.393-12.115c1.148-3.987,2.333-7.896,3.533-11.653
		c1.188-3.767,2.348-7.396,3.486-10.83c1.176-3.418,2.287-6.649,3.314-9.633c2.089-5.953,3.938-10.879,5.268-14.321
		c0.674-1.726,1.205-3.076,1.566-3.998c0.377-0.929,0.577-1.424,0.577-1.424L6638.854,7194.477z"/>
	<path fill="#EDCB94" d="M6616.117,7231.249l7.159,2.024l-26.504,82.432c0,0-8.349-44.582,11.664-87.648L6616.117,7231.249z"/>
	<path fill="#EDCB94" d="M6601.842,7299.421c0,0,10.253,14.706,6.811,16.666c-1.621,0.927-4.74-6.967-4.74-6.967
		s2.289,10.64,0.311,11.463c-2.604,1.085-4.063-11.411-4.063-11.411s0.104,11.732-2.744,11.287
		c-2.603-0.413-1.19-11.559-1.19-11.559s-1.269,5.934-4.45,5.123c-3.008-0.769,3.838-14.405,3.838-14.405L6601.842,7299.421z"/>
	<path fill="#FFC335" d="M6801.035,7195.357c0,0,3.545,7.442,8.855,18.613c2.629,5.618,5.695,12.175,8.981,19.2
		c1.608,3.528,3.271,7.167,4.961,10.872c1.671,3.708,3.354,7.482,4.983,11.275c1.615,3.799,3.295,7.571,4.836,11.321
		c1.569,3.749,3.054,7.446,4.433,11.046c1.373,3.605,2.71,7.081,3.878,10.402c1.175,3.316,2.211,6.475,3.098,9.397
		c0.877,2.922,1.613,5.612,2.17,8.007c0.306,1.199,1.686,2.311,2.021,3.327c0.337,1.024,0.675,1.958,1.019,2.798
		c0.34,0.846,0.726,1.605,1.088,2.273c0.324,0.66,0.66,0.652,0.949,1.125c0.596,0.949-0.133-0.857-0.133-0.857
		s0.422,2.425,0.979,1.419c0.271-0.502,0.585-1.134,0.878-1.885c0.263-0.748-1.257-1.608-1.065-2.585
		c0.226-0.979-0.994-3.889-0.978-5.04c0.024-1.16,3.042-0.575,2.858-1.867c-0.283-2.624-5.203-5.867-5.748-9.037
		c-0.549-3.16,2.686-6.251,1.889-9.819c-0.805-3.567-1.086-7.326-2.145-11.152c-1.033-3.837-2.162-7.781-3.363-11.766
		c-1.199-3.986-2.438-8.024-3.785-12.021c-1.342-4.007-2.721-7.984-4.102-11.898c-1.377-3.912-2.795-7.74-4.213-11.422
		c-1.405-3.688-2.78-7.246-4.123-10.606c-1.373-3.34-2.674-6.501-3.873-9.419c-2.437-5.818-4.572-10.627-6.104-13.986
		c-0.773-1.681-1.479-2.959-1.799-3.896c-2.779-8.126-2.779-8.126-2.779-8.126L6801.035,7195.357z"/>
	<path fill="#EDCB94" d="M6827.092,7232.998l-7.027,2.439l30.729,77.207c0,0,6.295-41.481-16.222-83.293L6827.092,7232.998z"/>
	<path fill="#EDCB94" d="M6844.41,7296.066c0,0-6.779,16.594-2.99,17.754c1.784,0.549,3.098-7.84,3.098-7.84
		s0.098,10.888,2.209,11.254c2.778,0.484,1.463-12.024,1.463-12.024s2.472,11.472,5.153,10.405
		c2.446-0.965-1.374-11.529-1.374-11.529s2.539,5.508,5.467,4.02c2.766-1.405-6.906-13.211-6.906-13.211L6844.41,7296.066z"/>
	<g>
		<path fill="#FFC335" d="M6771.407,7003.514c-4.121,0.433-1.31,3.397-1.839,5.137c-0.293,0.96,1.418,2.432-0.199,2.922
			c-1.285,0.393-2.637-0.689-3.52-1.826c-0.828-1.07-1.109-2.471-0.728-3.666c0.854-2.673-0.483-3.146-2.646-3.087
			c-0.922,0.024-1.842,0.003-3.049,0.003c2.441,2.309,3.566,4.959,3.522,8.084c-0.293,0.044-0.59,0.089-0.883,0.137
			c-0.324-0.056-0.646-0.108-0.97-0.162c-1.972-1.578-3.119-4.063-5.592-5.092c-0.053-0.873-0.106-1.746-0.16-2.619
			c0.996-0.592,2.352-0.78,2.555-2.269c0.518-0.927,1.029-1.854,1.546-2.778c0.567-0.604,1.142-1.209,1.706-1.813
			c0.525-0.222,1.18-0.226,1.449-0.87c0.631-0.018,1.252-0.284,1.818-0.343c1.22-0.127,2.693,0.054,3.403,1.101
			c0.923,1.356-0.979,1.535-1.429,2.371c-0.246,0.459-0.729,0.781-1.033,1.217c-0.422,0.599-1.662,1.127-0.535,1.992
			c0.732,0.566,1.768,0.916,2.535-0.153c1.035-1.438,2.57-2.207,4.043-3.063c1.897,0.147,3.893-0.135,5.951,1.317
			C6775.184,7001.316,6773.296,7002.414,6771.407,7003.514z"/>
		<path fill="#FFC335" d="M6674.202,7004.216c0.208-0.071,0.416-0.144,0.625-0.216c0.929-0.459,1.319-1.191,1.133-2.221
			c3.278-1.392,5.979-0.565,7.847,2.574c1.563,2.639,2.19,5.813,4.748,7.898c0.808,0.66,0.424,1.324-0.662,1.395
			c-2.77,0.17-5.543,0.498-8.313,0.479c-2.434-0.02-4.605-0.991-6.177-2.953c-1.442-1.805-1.899-3.62,0.325-5.229
			C6674.273,7005.473,6674.178,7004.829,6674.202,7004.216z"/>
		<path fill="#FFC335" d="M6714.718,6990.313c-2.123,0.764-3.72,2.246-5.24,3.828c-1.151,1.078-3.302,0.806-3.772,2.799l0.051-0.043
			c-0.713,0.16-1.434,0.291-2.137,0.485c-3.839,1.063-4.948,0.459-6.366-3.505c0.088-0.759,0.213-1.525-0.49-2.104
			c-0.679-2.978,1.78-3.726,3.53-4.979c3.131-0.573,6.213-0.047,9.299,0.42c0.649,0.176,1.305,0.353,1.959,0.524l0.293,0.088
			l0.303-0.047c1.174,0.543,2.68-0.549,3.701,0.746C6714.791,6988.691,6714.702,6989.471,6714.718,6990.313z"/>
		<path fill="#FFC335" d="M6674.975,6985.613c1.097-0.506,1.857-0.41,1.859,1.041c0.008,1.487,0.023,2.977,0.035,4.463
			c-0.88,2.412-0.832,5.381-3.889,6.484c-0.785-0.014-1.271,0.338-1.396,1.141c-1.651-0.894-3.222,0.244-4.838,0.207
			c0.34-0.53,1.497-1.105,0.444-1.699c-3.563-2.006-2.158-4.326-0.625-6.725C6669.223,6988.634,6672.637,6988.042,6674.975,6985.613
			z"/>
		<path fill="#FFC335" d="M6700.622,7003.461c0,0.167,0.011,0.335,0.038,0.502c-0.691,0.467-1.021,1.271-0.548,1.839
			c0.696,0.837,1.117-0.479,1.765-0.521c0.771,0.642,1.537,1.278,3.056,2.541c-4.188-0.297-7.401-0.223-10.487-0.813
			c-5.518-1.06-6.582-3.196-4.416-7.842c0.131-0.164,0.256-0.329,0.385-0.492c5.295-2.339,6.151-2.047,8.955,3.071
			c0.269,0.301,0.537,0.601,0.807,0.901c0.122-0.095,0.262-0.142,0.415-0.142C6700.6,7002.825,6700.607,7003.143,6700.622,7003.461z
			"/>
		<path fill="#FFC335" d="M6687.055,6990.012c-2.354-0.733-3.018-2.289-2.199-4.555c0.949-0.893,1.9-1.788,2.854-2.682
			c0.669-0.313,1.337-0.625,2.01-0.938c1.182-0.618,2.374-1.215,3.539-1.867c0.646-0.363,1.256-0.898,1.665,0.236
			c-0.009,0.848-0.021,1.693-0.028,2.541c-0.19,1.287-0.379,2.574-0.57,3.862c-0.123,0.407-0.247,0.813-0.368,1.22
			c-1.075,1.049-1.854,2.603-3.845,1.949c-1.063-0.351-1.355,0.67-1.826,1.311c-0.205,0.002-0.402,0.048-0.584,0.141
			c-0.194-0.07-0.396-0.112-0.603-0.123c-0.036-0.205-0.047-0.41-0.036-0.619c0.146-0.099,0.293-0.195,0.438-0.291
			C6687.354,6990.135,6687.203,6990.073,6687.055,6990.012z"/>
		<path fill="#FFC335" d="M6757.9,7001.075c-0.203,1.485-1.558,1.674-2.555,2.269c-2.368-0.269-4.729-0.539-7.096-0.807
			c1.5-2.318-0.578-3.141-1.807-4.316c0.271-0.61,0.542-1.223,0.813-1.836c1.263-1.125,2.486-2.306,4.16-2.826
			c4.174-0.107,4.192-0.104,7.164,1.941c-2.18,2.221-4.31,4.385-6.389,6.506c1.736,0.482,3.529,0.391,5.048-1.133
			C6757.462,7000.939,6757.684,7001.008,6757.9,7001.075z"/>
		<path fill="#FFC335" d="M6746.445,6998.221c1.229,1.179,3.307,1.998,1.808,4.316c-0.074,2.363,1.845,3.875,2.608,5.911
			c1.068,2.832-0.222,2.871-2.215,2.633c-3.181-0.379-5.912-3.356-6.205-6.793c-0.102-1.162,0.008-2.342,0.021-3.513
			c0.462-0.021,0.921-0.039,1.381-0.06C6745.952,7001.18,6745.525,6998.997,6746.445,6998.221z"/>
		<path fill="#FFC335" d="M6739.286,6990.488c0.159-2.021,1.851-1.795,3.146-2.148c1.414,0.521,2.824,1.042,4.236,1.564
			c0.311,0.201,0.616,0.4,0.925,0.602l0.253,0.073c0.619,1.166,2.083,1.002,2.904,1.847c-0.065,0.172-0.11,0.353-0.123,0.537
			c-1.666,0.5-3.336,1.002-5.002,1.504c-0.387-0.021-0.767-0.047-1.146-0.068c-1.417-1.059-2.814,0.115-4.221,0.042
			c-1.439-0.399-1.01-1.64-1.168-2.612l0.223-0.041c1.068-0.248,1.605,1.394,2.907,0.771c-0.351-1.546-1.642-1.701-2.787-2.046
			L6739.286,6990.488z"/>
		<path fill="#FFC335" d="M6743.846,7000.717c-0.461,0.02-0.92,0.038-1.381,0.059c-3.269-0.277-6.422-0.974-8.838-3.373
			c-1.049-1.043-2.558-2.369-0.154-3.691c1.422-0.313,2.005-2.214,3.725-1.956
			C6738.141,6995.684,6739.473,6999.328,6743.846,7000.717z"/>
		<path fill="#FFC335" d="M6725.691,6982.637c0.806-0.094,1.619-0.129,2.412-0.291c1.674-0.344,1.365,0.617,1.092,1.582
			c-0.854,2.412-2.453,4.135-4.77,5.207c-0.021,0.197-0.032,0.396-0.042,0.592c-0.631-0.008-1.269-0.013-1.901-0.019
			c-0.063-0.565-0.299-1.009-0.847-1.247c0.048-0.4,0.091-0.802,0.14-1.201c0.514-0.432,0.205-0.504-0.229-0.523
			c-0.146-0.035-0.295-0.068-0.439-0.106c-0.004-0.224-0.07-0.421-0.201-0.599"/>
		<path fill="#FFC335" d="M6779.782,7003.514c1.06,0.476,2.119,0.949,3.179,1.426l0.047-0.004c-1.385,1.016-3.627,0.34-4.537,2.299
			l0.021-0.015c-2.497,0.517-0.659,2.452-1.176,3.623c-0.311,0.698,0.402,1.931-0.827,2.095c-0.899,0.119-1.396-0.772-1.933-1.465
			c-1.508-1.959,0.297-4.182-0.566-6.172C6776.005,7004.975,6777.51,7003.004,6779.782,7003.514z"/>
		<path fill="#FFC335" d="M6676.093,6998.918c0.173-1.547,1.485-1.262,2.44-1.496c2.301-0.563,4.722-0.781,6.604-2.457
			c1.098,1.369,2.146,0.357,3.206-0.066c1.274,0.027,2.396-0.482,3.51-1.017c0.321-0.101,0.644-0.201,0.97-0.3
			c1.096-0.236,2.187-0.473,3.279-0.708c0.3-0.001,0.579-0.03,0.516-0.448c0.049-0.218,0.098-0.438,0.148-0.654
			c0.703,0.578,0.578,1.346,0.49,2.104c-3.145,0.282-6.021,1.588-9.042,2.339c-0.917,0.229-0.94,0.596-0.496,1.255
			c-0.003,0.233-0.007,0.47-0.013,0.703C6683.716,6996.592,6679.947,6998.439,6676.093,6998.918z"/>
		<path fill="#FFC335" d="M6672.98,6997.604c0.041,0.461,0.084,0.92,0.125,1.379c-0.641,2.164-3.24,1.112-4.345,2.783
			c1.817,0.778,3.897,1.064,5.438,2.451c-0.023,0.613,0.07,1.256-0.475,1.729c-2.176-2.96-6.169-3.766-10.865-2.189
			c-0.134-0.188-0.266-0.371-0.398-0.557c1.642-0.869,2.856-2.212,4.022-3.616c2.108,2.211,3.494,0.017,5.101-0.839
			C6671.709,6997.941,6672.195,6997.592,6672.98,6997.604z"/>
		<path fill="#FFC335" d="M6737.195,6991.754c-1.721-0.258-2.304,1.645-3.726,1.956c-0.349-2.138-2.03-2.722-3.774-3.187
			c-1.11-0.295-2.246-0.5-3.369-0.744c0.006-0.162,0.004-0.326-0.006-0.492c4.356,0.016,8.576,1.533,12.967,1.201
			c0,0,0.146,0.022,0.143,0.022c-0.039,0.424-0.077,0.849-0.116,1.272l-0.222,0.041
			C6738.459,6991.801,6737.827,6991.777,6737.195,6991.754z"/>
		<path fill="#FFC335" d="M6783.164,7006.749c-0.874,2.688,2.65,2.618,2.84,4.649c-2.788-0.143-5.48-0.535-6.918-3.48
			c0.113-0.133,0.225-0.27,0.333-0.407c1.579,0.918,2.308-0.462,3.271-1.211C6782.848,7006.45,6783.007,7006.6,6783.164,7006.749z"
			/>
		<path fill="#FFC335" d="M6783.007,7004.934l-0.047,0.004c2.692-0.371,4.165-2.779,6.438-3.908c1.101-0.545,2.08-0.949,3.271-0.901
			c0.16,0.353,0.316,0.703,0.477,1.056c-3.981,0.336-6.383,3.5-9.535,5.321c-0.23-0.202-0.461-0.401-0.695-0.604
			C6782.948,7005.579,6782.979,7005.255,6783.007,7004.934z"/>
		<path fill="#FFC335" d="M6755.578,6987.225c-0.167,0.008-0.25,0.1-0.248,0.271c-0.48,0.017-0.964,0.026-1.445,0.04
			c-1.254-0.611-2.219-1.379-1.405-2.953c0.429-0.831,1.126-1.29,2.089-1.045c1.721,0.436,1.48,1.809,1.42,3.08
			C6755.85,6986.818,6755.715,6987.021,6755.578,6987.225z"/>
		<path fill="#FFC335" d="M6696.734,7012.359c0.112-1.187,0.668-2.021,1.934-2.082c1.084-0.051,1.813,0.469,1.948,1.633
			c0.147,1.287-0.511,2.133-1.676,2.271C6697.771,7014.322,6696.958,7013.607,6696.734,7012.359z"/>
		<path fill="#FFC335" d="M6747.492,6982.402c1.382,0.826,2.007,1.901,0.948,3.371c-0.554,0.77-1.413,0.98-2.25,0.483
			c-1.569-0.931-1.379-2.176-0.495-3.487C6746.294,6982.646,6746.893,6982.525,6747.492,6982.402z"/>
		<path fill="#FFC335" d="M6714.75,7012.782c-0.167,1.384-0.861,2.136-2.098,2.082c-1.271-0.058-1.867-0.935-1.805-2.159
			c0.059-1.118,0.734-1.742,1.855-1.73C6713.955,7010.986,6714.623,7011.684,6714.75,7012.782z"/>
		<path fill="#FFC335" d="M6761.73,6988.613c0.006,0.836,0.012,1.67,0.014,2.506c-0.424,0.263-0.854,0.521-1.277,0.785
			c-0.623-0.092-1.244-0.186-1.867-0.273c-0.17-0.193-0.345-0.387-0.515-0.579c-0.22-0.867-0.188-1.714,0.183-2.536l0.105-0.259
			c0.878-0.108,1.756-0.218,2.635-0.327C6761.248,6988.158,6761.488,6988.387,6761.73,6988.613z"/>
		<path fill="#FFC335" d="M6705.652,7016.29c-1.313-0.074-1.926-0.786-1.869-2.039c0.051-1.099,0.686-1.78,1.771-1.826
			c1.24-0.054,2.013,0.672,2.034,1.892C6707.607,7015.529,6706.896,7016.238,6705.652,7016.29z"/>
		<path fill="#FFC335" d="M6721.639,6988.462c0.545,0.237,0.785,0.683,0.846,1.247c-0.758,0.59-1.376,0.848-2.482,0.361
			c-1.68-0.736-3.524-0.108-5.281,0.242c-0.018-0.845,0.073-1.621,1.132-1.785c0.483,1.028,1.334,0.653,2.116,0.551
			c0.512,0.082,0.998,0.076,1.348-0.4C6720.088,6988.605,6720.861,6988.534,6721.639,6988.462z"/>
		<path fill="#FFC335" d="M6755.508,7005.96c2.473,1.028,3.62,3.515,5.591,5.093
			C6757.991,7010.721,6756.032,7009.129,6755.508,7005.96z"/>
		<path fill="#FFC335" d="M6657.371,7007.208c-0.467-0.028-0.934-0.058-1.398-0.086c1.967-1.629,4.072-3.034,6.49-3.924
			c0.135,0.185,0.269,0.368,0.4,0.556C6661.031,7004.904,6659.203,7006.057,6657.371,7007.208z"/>
		<path fill="#FFC335" d="M6701.875,7005.281c-0.646,0.041-1.066,1.356-1.764,0.521c-0.477-0.567-0.146-1.372,0.547-1.839
			C6701.27,7004.213,6701.673,7004.654,6701.875,7005.281z"/>
		<path fill="#FFC335" d="M6675.96,7001.779c0.188,1.027-0.204,1.761-1.133,2.221
			C6674.727,7003.016,6675.075,7002.259,6675.96,7001.779z"/>
		<path fill="#FFC335" d="M6726.318,6989.288c0.012,0.166,0.014,0.329,0.008,0.492c-0.647-0.017-1.293-0.035-1.94-0.054
			c0.01-0.197,0.022-0.396,0.042-0.59C6725.059,6989.188,6725.689,6989.238,6726.318,6989.288z"/>
		<path fill="#FFC335" d="M6687.702,6998.173c0.006-0.233,0.01-0.468,0.013-0.703c0.474,0.188,0.939,0.374,1.408,0.562
			c-0.137,0.162-0.269,0.326-0.396,0.492C6688.387,6998.406,6688.044,6998.289,6687.702,6998.173z"/>
		<path fill="#FFC335" d="M6690.025,6999.166c-0.433-0.215-0.863-0.432-1.297-0.645c0.125-0.166,0.258-0.328,0.393-0.488
			c0.43,0.213,0.859,0.427,1.289,0.641C6690.282,6998.837,6690.156,6999.002,6690.025,6999.166z"/>
		<path fill="#FFC335" d="M6674.438,6998.968c0.26,0.136,0.52,0.272,0.777,0.41
			C6674.955,6999.241,6674.695,6999.104,6674.438,6998.968z"/>
		<path fill="#FFC335" d="M6721.549,6986.736c0.432,0.02,0.741,0.092,0.229,0.522
			C6721.668,6987.1,6721.592,6986.926,6721.549,6986.736z"/>
		<path fill="#FFC335" d="M6700.622,7003.461c-0.013-0.318-0.022-0.637-0.035-0.952l0.272-0.138l0.289,0.104l0.09,0.263
			C6701.031,7002.98,6700.826,7003.221,6700.622,7003.461z"/>
		<path fill="#FFC335" d="M6782.917,7005.9c0.233,0.201,0.464,0.401,0.696,0.604c-0.113,0.145-0.268,0.225-0.449,0.244
			c-0.158-0.148-0.317-0.299-0.475-0.449C6782.721,7006.143,6782.797,7006.009,6782.917,7005.9z"/>
		<path fill="#FFC335" d="M6779.086,7007.918c-0.361-0.092-0.707-0.202-0.596-0.699l-0.021,0.014
			c0.316,0.092,0.632,0.187,0.949,0.278C6779.311,7007.648,6779.199,7007.785,6779.086,7007.918z"/>
		<path fill="#FFC335" d="M6762.068,7011.215c0.293-0.047,0.59-0.092,0.883-0.137
			C6762.758,7011.794,6762.418,7011.52,6762.068,7011.215z"/>
		<path fill="#FFC335" d="M6739.313,6991.786c0.041-0.425,0.078-0.849,0.117-1.272c1.149,0.346,2.439,0.5,2.791,2.045
			C6740.918,6993.18,6740.381,6991.539,6739.313,6991.786z"/>
		<path fill="#FFC335" d="M6740.502,6994.979c-0.082-0.178-0.162-0.357-0.242-0.539c1.404,0.074,2.801-1.099,4.219-0.041
			c-0.115,0.162-0.209,0.336-0.277,0.522C6742.971,6994.939,6741.734,6994.959,6740.502,6994.979z"/>
	</g>
	<path fill="#BC9567" d="M6679.168,7111.188c0,0,1.359,0.139,3.725,0.431c1.185,0.159,2.617,0.351,4.26,0.567
		c0.82,0.117,1.695,0.239,2.617,0.371c0.92,0.104,1.885,0.213,2.897,0.326c2.017,0.229,4.194,0.474,6.492,0.778
		c2.308,0.217,4.745,0.449,7.263,0.688c2.515,0.313,5.127,0.354,7.769,0.574c2.646,0.242,5.332,0.289,8.021,0.367
		c2.688,0.168,5.375,0.104,8.021,0.119c2.646,0.006,5.243-0.125,7.766-0.181c1.254-0.075,2.486-0.188,3.699-0.25
		s2.396-0.134,3.543-0.271c1.15-0.115,2.27-0.226,3.352-0.332c1.08-0.144,2.121-0.278,3.122-0.408
		c1.006-0.113,1.956-0.291,2.862-0.441c0.908-0.157,1.785-0.262,2.584-0.439c1.608-0.326,3.021-0.605,4.168-0.897
		c1.146-0.286,2.058-0.517,2.666-0.702c0.608-0.184,0.932-0.298,0.932-0.298s-0.292,0.175-0.861,0.472
		c-0.568,0.291-1.414,0.722-2.52,1.176c-0.557,0.227-1.172,0.475-1.846,0.746c-0.682,0.238-1.42,0.498-2.209,0.771
		c-1.59,0.506-3.396,1.091-5.401,1.545c-1.003,0.235-2.048,0.483-3.127,0.737c-1.095,0.196-2.226,0.399-3.385,0.606
		c-2.321,0.442-4.799,0.69-7.356,0.994c-1.283,0.093-2.588,0.19-3.91,0.285c-1.319,0.106-2.66,0.203-4.008,0.192
		c-2.701,0.022-5.449,0.133-8.188-0.006c-2.738-0.117-5.48-0.207-8.161-0.49c-2.685-0.238-5.329-0.477-7.864-0.883
		c-2.539-0.365-4.984-0.736-7.301-1.155c-2.309-0.457-4.479-0.935-6.479-1.375c-1.002-0.224-1.967-0.416-2.869-0.64
		c-0.897-0.248-1.747-0.482-2.544-0.703c-1.598-0.459-2.986-0.854-4.133-1.181
		C6680.469,7111.605,6679.168,7111.188,6679.168,7111.188"/>
	<path fill="#FFFFFF" d="M6712.781,7080.148c0,12.381-10.035,22.418-22.42,22.418c-12.381,0-22.422-10.037-22.422-22.418
		c0-12.383,10.041-22.422,22.422-22.422C6702.746,7057.727,6712.781,7067.766,6712.781,7080.148"/>
	<path fill="#FFFFFF" d="M6777.798,7080.148c0,12.381-10.039,22.418-22.421,22.418c-12.383,0-22.423-10.037-22.423-22.418
		c0-12.383,10.041-22.422,22.423-22.422C6767.76,7057.727,6777.798,7067.766,6777.798,7080.148"/>
	<path d="M6707.255,7080.146c0,9.041-7.328,16.373-16.37,16.373s-16.37-7.332-16.37-16.373c0-9.039,7.328-16.369,16.37-16.369
		S6707.255,7071.107,6707.255,7080.146"/>
	<path d="M6772.275,7080.146c0,9.041-7.332,16.373-16.371,16.373c-9.043,0-16.371-7.332-16.371-16.373
		c0-9.039,7.328-16.369,16.371-16.369C6764.943,7063.777,6772.275,7071.107,6772.275,7080.146"/>
</g>
<g id="Layer_2">
	<g id="Left_Leg_3_">
		<path fill="#E5C58C" d="M6974.998,7358.221c0,0-0.352,8.306-0.879,20.76c-0.225,6.248-0.484,13.537-0.768,21.349
			c-0.104,3.908-0.207,7.942-0.314,12.047c-0.09,4.101-0.158,8.265-0.178,12.424c-0.004,4.159-0.074,8.323-0.025,12.413
			c0.021,4.096,0.102,8.111,0.246,11.995s0.271,7.632,0.497,11.177c0.22,3.545,0.504,6.878,0.833,9.943
			c0.34,3.051,0.718,5.842,1.143,8.275c0.19,1.234,0.435,2.348,0.525,3.428c0.09,1.082,0.145,2.082,0.159,2.998
			c0.019,0.916-0.043,1.773-0.117,2.537c-0.036,0.738-0.121,1.405-0.205,1.963c-0.177,1.113-0.377,1.785-0.377,1.785
			s-0.591-0.301-1.502-1.02c-0.452-0.355-0.991-0.814-1.558-1.402c-0.539-0.588-1.1-1.293-1.66-2.123
			c-0.592-0.824-1.106-1.774-1.578-2.838c-0.479-1.063-0.922-2.248-1.262-3.521c-0.771-2.543-1.529-5.427-2.275-8.582
			c-0.732-3.148-1.451-6.574-2.121-10.199c-0.653-3.628-1.336-7.457-1.859-11.423c-0.555-3.968-1.064-8.069-1.52-12.243
			c-0.457-4.17-0.901-8.404-1.228-12.645c-0.335-4.244-0.623-8.481-0.882-12.655c-0.264-4.171-0.459-8.283-0.6-12.257
			c-0.146-3.977-0.272-7.814-0.354-11.464c-0.041-3.646-0.081-7.085-0.119-10.269c-0.033-6.357,0.059-11.66,0.148-15.383
			c0.06-1.861,0.104-3.326,0.133-4.324c0.041-1.01,0.067-1.549,0.067-1.549L6974.998,7358.221z"/>
		<path fill="#E5C58C" d="M6977.154,7488.205v9.134l-6.797,0.829l-3.33-0.829c-6.299,1.873-14.533,0-21.498,0
			c-13.467,0-17.17-5.092-17.17-9.134c0-4.047,23.561-3.705,37.023-3.705C6978.869,7484.5,6977.154,7484.158,6977.154,7488.205"/>
		<path fill="#BF8D4D" d="M6950.341,7483.652c1.776,0.43,5.242,0.024,6.671,0.852c-3.73,0.021-3.645,0.795-3.318,4.255
			c0.375,3.979,3.735,6.206,7.48,6.206c5.366,0,10.602-0.176,15.8-1.436c0.032,2.482,0.062,3.754,0.062,3.754
			c-16.685,2.299-34.377,1.391-35.938-1.146C6946.497,7492.471,6945.682,7488.055,6950.341,7483.652z"/>
		<polygon fill="#BF8D4D" points="6976.975,7493.529 6968.639,7482.463 6966.395,7475.48 6977.247,7488.971 		"/>
		<polyline fill="#BF8D4D" points="6967.605,7479.141 6967.605,7479.141 6973.779,7471.088 6974.688,7464.219 6966.395,7473.482 		
			"/>
		<polygon fill="#BF8D4D" points="6973.538,7465.836 6964.109,7465.836 6963.016,7458.473 6973.538,7458.473 		"/>
	</g>
	<g id="Right_Leg_3_">
		<path fill="#E5C58C" d="M7128.777,7363.061c0,0,0.082,0.521,0.233,1.5c0.14,0.97,0.347,2.389,0.606,4.191
			c0.508,3.607,1.184,8.754,1.857,14.943c0.32,3.096,0.666,6.451,1.032,9.998c0.324,3.551,0.632,7.303,0.938,11.184
			c0.31,3.884,0.582,7.898,0.799,11.984c0.211,4.09,0.416,8.244,0.564,12.401c0.171,4.16,0.221,8.328,0.25,12.437
			c0.038,4.104,0.008,8.147-0.066,12.065c-0.051,3.917-0.265,7.716-0.473,11.313c-0.227,3.604-0.516,7.01-0.843,10.158
			c-0.347,3.149-0.728,6.033-1.147,8.598c-0.168,1.275-0.455,2.484-0.777,3.57c-0.166,0.547-0.34,1.063-0.523,1.558
			c-0.213,0.492-0.418,0.958-0.646,1.396c-0.442,0.877-0.884,1.633-1.337,2.271c-0.477,0.643-0.938,1.163-1.331,1.57
			c-0.792,0.815-1.33,1.192-1.33,1.192s-0.3-0.619-0.642-1.681c-0.164-0.527-0.353-1.166-0.496-1.885
			c-0.181-0.728-0.362-1.561-0.476-2.453c-0.119-0.896-0.19-1.869-0.254-2.939c-0.063-1.066,0.039-2.177,0.063-3.398
			c0.097-2.432,0.117-5.188,0.074-8.203c-0.066-3.021-0.194-6.297-0.408-9.771c-0.211-3.472-0.535-7.135-0.849-10.931
			c-0.329-3.791-0.714-7.709-1.172-11.688c-0.425-3.981-0.979-8.026-1.464-12.071c-0.979-8.092-2.203-16.162-3.279-23.742
			c-1.155-7.563-2.231-14.629-3.158-20.682c-1.904-12.061-3.179-20.096-3.179-20.096L7128.777,7363.061z"/>
		<path fill="#E5C58C" d="M7125.066,7486.17v9.133l6.797,0.835l3.328-0.835c6.301,1.877,14.535,0,21.5,0
			c13.467,0,17.168-5.087,17.168-9.133c0-4.043-23.561-3.7-37.023-3.7C7123.352,7482.471,7125.066,7482.127,7125.066,7486.17"/>
		<path fill="#BF8D4D" d="M7151.9,7481.747c-1.777,0.429-5.242,0.022-6.672,0.849c3.729,0.021,3.643,0.795,3.315,4.254
			c-0.372,3.979-3.733,6.205-7.479,6.205c-5.365,0-10.604-0.174-15.801-1.433c-0.033,2.481-0.059,3.755-0.059,3.755
			c16.684,2.296,34.375,1.391,35.936-1.146C7155.746,7490.563,7156.557,7486.143,7151.9,7481.747z"/>
		<polygon fill="#BF8D4D" points="7125.266,7491.623 7132.855,7481.747 7133.68,7475.238 7124.996,7487.063 		"/>
		<polyline fill="#BF8D4D" points="7133.68,7475.238 7133.68,7475.238 7124.313,7469.182 7124.555,7462.309 7134.023,7471.678 		"/>
		<polygon fill="#BF8D4D" points="7124.078,7463.928 7134.523,7465.082 7134.598,7456.564 7124.078,7456.564 		"/>
	</g>
	<g id="Left_arm_3_">
		<path fill="#E5C58C" d="M6964.418,7191.492c0,0-3.355,7.605-8.391,19.01c-2.484,5.736-5.389,12.434-8.496,19.604
			c-1.521,3.603-3.092,7.317-4.688,11.1c-1.576,3.783-3.159,7.643-4.698,11.504c-1.518,3.871-3.104,7.727-4.546,11.549
			c-1.472,3.82-2.862,7.596-4.146,11.259c-1.28,3.67-2.527,7.209-3.609,10.593c-1.089,3.375-2.042,6.585-2.852,9.557
			c-0.801,2.971-1.463,5.705-1.957,8.133c-0.271,1.215-0.451,2.34-0.756,3.377c-0.316,1.041-0.629,1.99-0.949,2.851
			c-0.317,0.858-0.687,1.638-1.037,2.319c-0.304,0.679-0.623,1.267-0.904,1.752c-0.572,0.974-1,1.524-1,1.524
			s-0.443-0.499-1.031-1.495c-0.289-0.499-0.623-1.126-0.938-1.876c-0.286-0.747-0.549-1.606-0.771-2.582
			c-0.252-0.981-0.381-2.062-0.431-3.216c-0.062-1.166-0.04-2.434,0.108-3.742c0.209-2.648,0.556-5.611,1.008-8.82
			c0.471-3.201,1.051-6.648,1.746-10.271c0.711-3.615,1.475-7.427,2.436-11.316c0.93-3.895,1.95-7.9,3.048-11.946
			c1.095-4.056,2.226-8.158,3.47-12.226c1.233-4.069,2.508-8.125,3.789-12.106c1.277-3.978,2.596-7.877,3.914-11.627
			c1.313-3.756,2.596-7.381,3.849-10.806c1.292-3.405,2.509-6.629,3.638-9.604c2.289-5.935,4.304-10.838,5.748-14.267
			c0.731-1.715,1.309-3.063,1.703-3.979c0.408-0.924,0.623-1.418,0.623-1.418L6964.418,7191.492z"/>
		<path fill="#E5C58C" d="M6920.203,7303.057c0,0,9.877,15.131,6.346,17.004c-1.658,0.881-4.558-7.168-4.558-7.168
			s1.979,10.795-0.038,11.563c-2.658,1.009-3.746-11.624-3.746-11.624s-0.255,11.828-3.111,11.285
			c-2.607-0.487-0.847-11.679-0.847-11.679s-1.458,5.939-4.64,5.021c-3.006-0.863,4.309-14.393,4.309-14.393L6920.203,7303.057z"/>
	</g>
	<g id="Right_arm_3_">
		<path fill="#E5C58C" d="M7139.41,7175.958c0,0,0.257,0.478,0.729,1.369c0.459,0.89,1.131,2.188,1.986,3.849
			c1.688,3.313,4.053,8.06,6.764,13.813c1.34,2.889,2.789,6.014,4.321,9.316c1.496,3.321,3.038,6.847,4.62,10.494
			c1.59,3.647,3.184,7.438,4.748,11.316c1.563,3.877,3.13,7.83,4.654,11.797c1.537,3.967,2.959,7.98,4.347,11.943
			c1.39,3.959,2.698,7.877,3.907,11.695c1.238,3.809,2.275,7.555,3.244,11.107c0.959,3.563,1.788,6.963,2.482,10.125
			c0.687,3.164,1.248,6.09,1.646,8.722c0.244,1.294,0.354,2.554,0.378,3.722c0.034,1.164-0.015,2.244-0.196,3.244
			c-0.148,0.985-0.352,1.865-0.584,2.629c-0.263,0.772-0.543,1.424-0.797,1.938c-0.52,1.034-0.92,1.563-0.92,1.563
			s-0.473-0.518-1.109-1.447c-0.314-0.465-0.68-1.027-1.033-1.682c-0.395-0.656-0.816-1.402-1.195-2.238
			c-0.383-0.832-0.763-1.76-1.151-2.771c-0.38-1.016-0.642-2.123-1.001-3.317c-0.667-2.379-1.525-5.06-2.536-7.967
			c-1.026-2.905-2.207-6.035-3.539-9.321c-1.326-3.299-2.824-6.736-4.366-10.301c-1.546-3.564-3.205-7.229-4.951-10.933
			c-1.716-3.713-3.575-7.438-5.37-11.19c-1.815-3.742-3.671-7.472-5.521-11.133c-1.863-3.65-3.703-7.25-5.476-10.729
			c-3.622-6.928-7.001-13.395-9.896-18.938c-5.847-11.01-9.744-18.353-9.744-18.353L7139.41,7175.958z"/>
		<path fill="#E5C58C" d="M7176.02,7290.475c0,0-8.967,15.688-5.334,17.35c1.713,0.786,4.131-7.425,4.131-7.425
			s-1.342,10.892,0.721,11.538c2.712,0.854,3.055-11.825,3.055-11.825s0.953,11.791,3.771,11.084
			c2.575-0.646,0.155-11.709,0.155-11.709s1.806,5.843,4.926,4.744c2.953-1.043-5.149-14.112-5.149-14.112L7176.02,7290.475z"/>
	</g>
	<g id="Body_3_">
		<path fill="#313F27" d="M7139.834,7344.497c0,30.087-42.921,54.479-95.854,54.479c-52.944,0-95.859-24.395-95.859-54.479
			c0-30.089,42.915-54.487,95.859-54.487C7096.915,7290.01,7139.834,7314.408,7139.834,7344.497"/>
		<path fill="#E5C58C" d="M7139.832,7087.029c0-52.875-42.863-95.74-95.736-95.74c-52.879,0-95.744,42.865-95.744,95.74v257.47
			h191.482v-257.47H7139.832z"/>
		<path fill="#1E1A19" d="M6948.354,7114.968c0,0,20.345-122.748,58.283-93.731c21.013,16.067,63.256,8.117,76.353-5.092
			c28.702-14.394,49.097,86.449,57.138,93.908c0-26.194,35.5-156.201-124.703-140.424
			C7015.421,6969.629,6918.639,6981.339,6948.354,7114.968"/>
		<path fill="#FFC335" d="M6942.593,7192.352c7.37,14.976,6.72,45.123,5.876,56.012c-1.65,21.361-0.209,28.846-0.209,71.885
			c0,6.832,0.129,23.105-0.58,29.879c-3.361,32.13,0.813,43.604-13.372,59.145c-11.608,12.724,8.196,19.063,8.517,20.724
			c1.076,5.665,32.088-20.015,36.311-20.724c4.59-0.775,10.012-3.946,14.602-4.662c6.078-0.938,19.689,7.738,25.615,5.756
			c13.641-4.574,11.008-5.586,25.467-4.789c21.16,1.17,58.851-6.351,69.85-13.992c22.625-15.723,28.063-26.773,25.889-41.455
			c-1.355-9.17-0.58-29.879-0.58-44.11c0-11.051-1.494-29.08,0-39.886c1.723-12.396,3.174-12.633-0.138-24.592
			c-9.935-3.385-87.761,25.006-113.128,0c-16.279-16.043-48.563-51.155-62.115-57.735
			C6955.174,7179.229,6938.902,7184.854,6942.593,7192.352z"/>
		<g>
			<g>
				<path fill="#F3F6DD" d="M6966.609,7200.714c6.252,20.024,21.237,35.604,37.879,47.407
					c32.605,24.202,73.506,41.282,115.059,38.551c-41.563,3.77-83.135-12.23-116.964-36.037
					C6986.238,7237.796,6971.814,7221.046,6966.609,7200.714z"/>
			</g>
		</g>
		<g>
			<g>
				<path fill="#F3F6DD" d="M6966.626,7237.203c3.694,11.828,31.274,33.475,41.103,40.441c19.26,14.295,72.133,30.451,96.674,28.836
					c-24.547,2.228-77.815-13.291-97.797-27.354C6996.95,7271.545,6969.701,7249.211,6966.626,7237.203z"/>
			</g>
		</g>
		<path fill="#E9E0C2" d="M7141.115,7303.958c-14.54,18.575-73.141,14.11-95.505,14.996c-17.481,0.856-84.401-6.696-97.104-20.085
			l-1.274,15.629c22.794,10.91,72.5,17.334,97.117,16.441c24.121-0.879,77.894,3.588,96.88-12.75L7141.115,7303.958z"/>
		<g>
			<g>
				<path fill="#F3F6DD" d="M7007.893,7333.451c-3.117,6.031-5.905,12.309-8.028,18.814c-3.353,13.28-4.905,26.865-5.765,40.408
					c1.621-13.47,3.944-26.899,7.976-39.789C7003.434,7346.268,7005.473,7339.813,7007.893,7333.451z"/>
			</g>
		</g>
		<g>
			<g>
				<path fill="#F3F6DD" d="M7036.182,7344.497c3.117,6.034,5.903,12.308,8.03,18.813c3.349,13.279,4.905,26.865,5.763,40.408
					c-1.617-13.47-3.941-26.903-7.976-39.789C7040.637,7357.311,7038.602,7350.859,7036.182,7344.497z"/>
			</g>
		</g>
		<g>
			<g>
				<path fill="#F3F6DD" d="M6971.805,7281.539c1.724,5.77,5.97,10.296,10.705,13.738c9.273,7.063,20.949,12.107,32.883,11.47
					c-11.939,0.937-23.813-3.804-33.438-10.752C6977.307,7292.255,6973.227,7287.396,6971.805,7281.539z"/>
			</g>
		</g>
	</g>
	<g id="Mouth_3_">
		<path fill="#BC9567" d="M6999.857,7151.938c0,0,1.369,0.14,3.756,0.436c1.188,0.158,2.636,0.352,4.291,0.57
			c0.828,0.119,1.707,0.242,2.64,0.373c0.929,0.104,1.899,0.215,2.921,0.33c2.033,0.229,4.23,0.475,6.544,0.783
			c2.327,0.222,4.782,0.453,7.321,0.692c2.53,0.317,5.166,0.358,7.828,0.581c2.664,0.244,5.375,0.291,8.086,0.37
			c2.707,0.169,5.416,0.104,8.084,0.119c2.668,0.007,5.285-0.128,7.83-0.183c1.264-0.076,2.502-0.191,3.726-0.25
			c1.222-0.063,2.418-0.137,3.571-0.272c1.16-0.116,2.287-0.229,3.377-0.337c1.088-0.143,2.139-0.279,3.144-0.409
			c1.019-0.115,1.976-0.292,2.89-0.444c0.914-0.16,1.795-0.267,2.602-0.444c1.624-0.327,3.045-0.61,4.203-0.903
			c1.158-0.289,2.075-0.521,2.686-0.709c0.621-0.182,0.938-0.299,0.938-0.299s-0.292,0.176-0.865,0.473
			c-0.576,0.295-1.425,0.729-2.544,1.188c-0.561,0.229-1.18,0.479-1.854,0.752c-0.688,0.24-1.434,0.5-2.229,0.776
			c-1.604,0.51-3.42,1.099-5.442,1.558c-1.014,0.238-2.065,0.488-3.153,0.744c-1.104,0.199-2.244,0.402-3.416,0.611
			c-2.34,0.447-4.833,0.695-7.414,1.003c-1.293,0.095-2.608,0.188-3.94,0.287c-1.332,0.108-2.682,0.202-4.041,0.192
			c-2.724,0.023-5.492,0.133-8.252-0.004c-2.76-0.121-5.522-0.211-8.226-0.494c-2.711-0.242-5.374-0.48-7.926-0.892
			c-2.56-0.369-5.026-0.743-7.358-1.166c-2.332-0.46-4.52-0.94-6.541-1.385c-1.006-0.226-1.979-0.419-2.89-0.646
			c-0.901-0.25-1.759-0.484-2.563-0.709c-1.608-0.461-3.012-0.859-4.166-1.188
			C7001.172,7152.357,6999.857,7151.938,6999.857,7151.938"/>
	</g>
	<g id="Eyes_3_">
		<path fill="#FFFFFF" d="M7033.797,7087.506c0,12.576-10.195,22.77-22.771,22.77c-12.574,0-22.771-10.191-22.771-22.77
			c0-12.575,10.198-22.77,22.771-22.77C7023.602,7064.736,7033.797,7074.932,7033.797,7087.506"/>
		<path fill="#FFFFFF" d="M7098.691,7087.506c0,12.576-10.196,22.77-22.771,22.77s-22.771-10.191-22.771-22.77
			c0-12.575,10.195-22.77,22.771-22.77S7098.691,7074.932,7098.691,7087.506"/>
	</g>
	<g id="Eye_balls_3_">
		<path d="M7027.65,7087.506c0,9.182-7.443,16.626-16.625,16.626c-9.184,0-16.627-7.444-16.627-16.626
			c0-9.184,7.443-16.626,16.627-16.626C7020.207,7070.879,7027.65,7078.322,7027.65,7087.506"/>
		<path d="M7092.548,7087.506c0,9.184-7.442,16.626-16.626,16.626c-9.182,0-16.625-7.442-16.625-16.626s7.443-16.626,16.625-16.626
			C7085.105,7070.879,7092.548,7078.323,7092.548,7087.506"/>
	</g>
</g>
<g id="Layer_3">
	<g id="Left_Leg_1_">
		<path fill="#02467F" d="M7279.043,7362.85c0,0-0.344,8.105-0.857,20.27c-0.22,6.104-0.476,13.221-0.748,20.848
			c-0.102,3.813-0.205,7.75-0.309,11.758c-0.086,4.002-0.157,8.066-0.175,12.135c-0.005,4.058-0.071,8.123-0.022,12.111
			c0.021,3.996,0.103,7.924,0.236,11.717c0.143,3.79,0.27,7.449,0.49,10.904c0.209,3.461,0.488,6.721,0.807,9.707
			c0.334,2.984,0.703,5.711,1.117,8.088c0.187,1.201,0.426,2.287,0.517,3.342c0.088,1.06,0.144,2.033,0.153,2.926
			c0.018,0.896-0.041,1.734-0.11,2.479c-0.036,0.728-0.118,1.374-0.203,1.919c-0.172,1.088-0.365,1.74-0.365,1.74
			s-0.579-0.294-1.472-0.99c-0.439-0.354-0.965-0.801-1.519-1.374c-0.53-0.571-1.073-1.265-1.624-2.069
			c-0.579-0.807-1.079-1.736-1.538-2.774c-0.47-1.034-0.903-2.192-1.229-3.438c-0.754-2.481-1.494-5.297-2.223-8.375
			c-0.719-3.078-1.419-6.418-2.07-9.963c-0.646-3.537-1.307-7.275-1.817-11.149c-0.544-3.875-1.037-7.882-1.479-11.951
			c-0.446-4.076-0.879-8.207-1.199-12.349c-0.326-4.138-0.606-8.276-0.861-12.354c-0.254-4.07-0.449-8.084-0.584-11.964
			c-0.141-3.883-0.268-7.635-0.348-11.19c-0.039-3.56-0.08-6.924-0.113-10.024c-0.033-6.21,0.055-11.386,0.145-15.019
			c0.061-1.818,0.104-3.246,0.131-4.225c0.043-0.986,0.063-1.512,0.063-1.512L7279.043,7362.85z"/>
		<path fill="#613436" d="M7282.877,7490.877v8.919h-9.887v-3.151c-6.152,1.828-14.188,3.151-20.987,3.151
			c-13.149,0-16.765-4.972-16.765-8.919s22.998-3.611,36.146-3.611C7284.55,7487.266,7282.877,7486.93,7282.877,7490.877"/>
	</g>
	<g id="Right_Leg_1_">
		<path fill="#02467F" d="M7429.18,7367.577c0,0,0.08,0.509,0.229,1.463c0.14,0.942,0.34,2.328,0.599,4.095
			c0.492,3.519,1.15,8.545,1.813,14.586c0.313,3.021,0.647,6.297,1.006,9.763c0.317,3.472,0.616,7.13,0.914,10.922
			c0.304,3.789,0.571,7.711,0.78,11.701c0.207,3.993,0.403,8.046,0.557,12.104c0.162,4.063,0.211,8.131,0.241,12.143
			c0.036,4.006,0.009,7.959-0.065,11.786c-0.047,3.823-0.258,7.533-0.461,11.045c-0.222,3.513-0.502,6.843-0.819,9.915
			c-0.338,3.076-0.71,5.896-1.125,8.396c-0.163,1.248-0.44,2.422-0.759,3.486c-0.16,0.527-0.331,1.037-0.514,1.518
			c-0.205,0.481-0.404,0.938-0.631,1.361c-0.428,0.857-0.861,1.598-1.309,2.223c-0.461,0.625-0.911,1.133-1.297,1.533
			c-0.771,0.797-1.3,1.164-1.3,1.164s-0.289-0.605-0.621-1.643c-0.165-0.518-0.345-1.141-0.485-1.838
			c-0.172-0.712-0.353-1.521-0.465-2.396c-0.112-0.871-0.183-1.828-0.248-2.867c-0.059-1.043,0.039-2.131,0.063-3.326
			c0.092-2.365,0.112-5.062,0.067-8.004c-0.063-2.949-0.188-6.147-0.398-9.539c-0.206-3.393-0.518-6.97-0.826-10.668
			c-0.318-3.705-0.693-7.527-1.145-11.416c-0.416-3.892-0.953-7.836-1.429-11.785c-0.959-7.898-2.153-15.78-3.206-23.184
			c-1.126-7.389-2.182-14.277-3.084-20.191c-1.857-11.768-3.102-19.617-3.102-19.617L7429.18,7367.577z"/>
		<path fill="#613436" d="M7421.146,7494.133v8.916h9.869v-3.172c6.153,1.85,14.192,3.172,20.992,3.172
			c13.146,0,16.758-4.973,16.758-8.916c0-3.951-22.994-3.613-36.146-3.613C7419.459,7490.52,7421.146,7490.182,7421.146,7494.133"/>
	</g>
	<g id="Left_arm_1_">
		<path fill="#2FB6AE" d="M7268.063,7210.578c0,0-3.392,7.371-8.479,18.43c-2.514,5.566-5.441,12.059-8.59,19.01
			c-1.536,3.49-3.124,7.102-4.738,10.769c-1.597,3.669-3.199,7.407-4.758,11.16c-1.543,3.754-3.146,7.493-4.614,11.204
			c-1.495,3.706-2.905,7.368-4.216,10.926c-1.305,3.564-2.575,7.002-3.682,10.287c-1.115,3.283-2.092,6.398-2.931,9.287
			c-0.825,2.889-1.513,5.547-2.026,7.902c-0.289,1.188-0.478,2.28-0.791,3.291c-0.324,1.017-0.646,1.938-0.971,2.768
			c-0.326,0.835-0.695,1.589-1.044,2.253c-0.31,0.653-0.632,1.224-0.915,1.692c-0.566,0.941-1,1.479-1,1.479
			s-0.423-0.497-0.982-1.481c-0.272-0.485-0.588-1.104-0.885-1.842c-0.271-0.732-0.516-1.576-0.713-2.529
			c-0.233-0.967-0.346-2.018-0.375-3.154c-0.041-1.135-0.004-2.371,0.162-3.647c0.244-2.58,0.625-5.466,1.119-8.591
			c0.502-3.12,1.117-6.479,1.855-10.003c0.748-3.521,1.55-7.229,2.544-11.01c0.967-3.79,2.024-7.687,3.158-11.621
			c1.128-3.938,2.294-7.931,3.571-11.883c1.263-3.953,2.57-7.894,3.879-11.763c1.31-3.86,2.648-7.646,3.996-11.291
			c1.34-3.645,2.646-7.166,3.918-10.485c1.313-3.312,2.551-6.438,3.694-9.323c2.324-5.757,4.366-10.518,5.825-13.843
			c0.741-1.662,1.32-2.967,1.723-3.856c0.412-0.896,0.629-1.373,0.629-1.373L7268.063,7210.578z"/>
		<path fill="#C6A87F" d="M7224.883,7316.145c0,0,1.402,23-3.57,22.922c-2.338-0.033-0.668-10.555-0.668-10.555
			s-4.318,12.952-6.982,12.577c-3.5-0.492,2.898-14.918,2.898-14.918s-7.379,12.743-10.17,10.433
			c-2.545-2.1,6.092-13.234,6.092-13.234s-5.153,5.602-8.07,2.689c-2.762-2.75,12.689-13.058,12.689-13.058L7224.883,7316.145z"/>
	</g>
	<g id="Right_arm_1_">
		<path fill="#2FB6AE" d="M7439.109,7195.213c0,0,0.236,0.473,0.684,1.352c0.43,0.877,1.059,2.158,1.857,3.793
			c1.582,3.271,3.795,7.951,6.324,13.623c1.246,2.842,2.598,5.924,4.022,9.184c1.396,3.271,2.828,6.744,4.301,10.338
			c1.476,3.591,2.953,7.32,4.401,11.145c1.445,3.815,2.896,7.703,4.305,11.61c1.416,3.901,2.727,7.851,4,11.742
			c1.271,3.894,2.473,7.747,3.574,11.497c1.131,3.746,2.068,7.422,2.938,10.914c0.867,3.495,1.606,6.827,2.222,9.93
			c0.604,3.104,1.095,5.975,1.433,8.547c0.211,1.271,0.297,2.506,0.297,3.641c0.006,1.137-0.063,2.189-0.264,3.161
			c-0.165,0.963-0.378,1.817-0.62,2.558c-0.271,0.746-0.563,1.377-0.819,1.879c-0.525,0.996-0.931,1.506-0.931,1.506
			s-0.448-0.515-1.054-1.439c-0.301-0.456-0.645-1.016-0.978-1.658c-0.369-0.648-0.769-1.384-1.122-2.211
			c-0.355-0.816-0.708-1.732-1.068-2.729c-0.351-0.996-0.58-2.086-0.908-3.26c-0.603-2.336-1.389-4.97-2.315-7.824
			c-0.938-2.856-2.022-5.938-3.263-9.181c-1.225-3.237-2.619-6.628-4.051-10.142c-1.438-3.512-2.982-7.121-4.609-10.771
			c-1.602-3.655-3.34-7.33-5.018-11.028c-1.692-3.691-3.429-7.369-5.16-10.979c-1.746-3.607-3.465-7.154-5.129-10.59
			c-3.393-6.833-6.56-13.215-9.272-18.688c-5.479-10.86-9.14-18.108-9.14-18.108L7439.109,7195.213z"/>
		<path fill="#C6A87F" d="M7471.506,7309.572c0,0-5.576,21.783-0.668,22.571c2.311,0.377,2.505-10.272,2.505-10.272
			s1.987,13.51,4.675,13.604c3.535,0.129-0.246-15.192-0.246-15.192s5.042,13.834,8.189,12.053
			c2.875-1.625-3.686-14.102-3.686-14.102s4.1,6.418,7.479,4.061c3.194-2.221-10.845-15.232-10.845-15.232L7471.506,7309.572z"/>
	</g>
	<g id="Body_1_">
		<path fill="#39635C" d="M7439.979,7349.452c0,29.377-41.901,53.19-93.588,53.19c-51.688,0-93.588-23.813-93.588-53.19
			c0-29.376,41.899-53.192,93.588-53.192C7398.075,7296.26,7439.979,7320.076,7439.979,7349.452"/>
		<path fill="#C6A87F" d="M7439.975,7098.083c0-51.623-41.848-93.474-93.471-93.474s-93.477,41.851-93.477,93.474v251.368h186.949
			v-251.368H7439.975z"/>
		<g>
			<path fill="#181311" d="M7359.357,7020.064c0,0-12.279-116.537-83.638-0.896c0,0,8.491,47.213,19.042,46.266
				c27.54-2.471,75.189-15.244,75.189-15.244L7359.357,7020.064z"/>
			<path fill="#181311" d="M7367.357,6983.682c0,0,31.567,37.75,35.703,36.252c36.846-13.34,13.722-43.057,29.082,42.388
				c0.285,1.579,3.367,7.923,4.678,17.69c0.529,3.979,0.529,3.979,0.529,3.979c1.666,6.909,0.865-10.223,2.558-10.757
				c1.017-0.321,5.474,22.004,4.783,27.067c-1.321,9.679-5.56,50.475-5.56,50.475s-6.642-32.307-22.074-53.98
				c0,0,8.223-27.804-10.572-35.166c-18.791-7.367-59.602-8.268-59.602-8.268l11.141-82.637L7367.357,6983.682z"/>
			<path fill="#181311" d="M7268.707,7000.93c0,0-22.443,39.283-16.469,101.271c0.479,4.961,1.773,55.173,1.773,55.173
				s6.645-32.306,22.077-53.979c0,0-8.226-27.805,10.565-35.17c18.793-7.365,27.76-5.842,27.76-5.842l-38.853-47.938
				L7268.707,7000.93z"/>
		</g>
		<path fill="#2FB6AE" d="M7268.354,6981.938c0,0,61.795-56.097,147.933-4.381
			C7502.417,7029.275,7221.613,7054.186,7268.354,6981.938z"/>
		<path fill="#02467F" d="M7463.15,7031.641c-2.546,7.474-2.548,7.473-0.002,0v-0.014c-7.398-23.945-32.188-37.816-32.188-37.816
			c-90.765-25.449-84.853,49.41-84.853,49.41c0,1.004,0.129,1.989,0.389,2.963c21.53,18.458,21.53,18.458,0,0.002
			c6.641,25.547,96.93,44.498,96.93,44.498C7465.399,7067.383,7468.016,7047.344,7463.15,7031.641z"/>
		<path fill="#02467F" d="M7263.699,6991.484c0,0-24.776,13.854-32.192,37.802c2.535,7.429,2.533,7.429-0.002,0
			c-4.877,15.702-2.259,35.756,19.728,59.071c0,0,90.289-18.953,96.931-44.5c0.257-0.973,0.386-1.963,0.386-2.963
			C7348.549,7040.895,7354.463,6966.033,7263.699,6991.484z"/>
		<polygon fill="#A5CE3B" points="7331.873,7051.268 7317.791,7026.87 7331.873,7002.473 7360.049,7002.473 7374.134,7026.87 
			7360.049,7051.268 		"/>
		<path fill="#2FB6AE" d="M7439.979,7402.643c-3.119,2.881-47.582,7.498-92.401,7.402c-44.817-0.096-89.997-4.902-94.547-7.402
			c-9.099-5,0-225.978,0-225.978s42.002,30.086,93.593,30.086c51.854,0,93.355-30.086,93.355-30.086
			S7446.216,7396.881,7439.979,7402.643z"/>
		<rect x="7337.869" y="7221.148" fill="#A5CE3B" width="17.504" height="188.899"/>
		<path fill="none" stroke="#DA572B" stroke-width="7.1567" d="M7252.389,7193.285c0,0,60.608,26.925,94.232,25.805
			c38.623,0.373,92.343-25.805,92.343-25.805"/>
		<path fill="none" stroke="#DA572B" stroke-width="7.1567" d="M7250.2,7388.995c0,0,73.06,9.021,96.188,9.021
			c23.133,0,95.528-9.021,95.528-9.021"/>
		<path fill="#02467F" d="M7253.025,7165.124c-2.541,2.89-3.994,6.747-3.668,11.877l11.846,164.978l18.995,0.832
			c0,0-15.647-146.16-13.788-156.6c0,0-0.298,0.621,0.076-1.51"/>
		<path fill="#02467F" d="M7424.785,7185.826c6.132,5.333-10.027,161.764-10.027,161.764l16.02,10.22l12.384-182.949
			c0,0-0.688-1.899-3.183-4.543"/>
	</g>
	<g id="Mouth_1_">
		<g>
			<path fill="#98774E" d="M7301.566,7170.865c0,0,0.362-0.021,1.047-0.063c0.684-0.03,1.683-0.097,2.953-0.135
				c1.271-0.047,2.815-0.115,4.588-0.148c1.771-0.044,3.77-0.096,5.944-0.105c2.179-0.021,4.537-0.049,7.028-0.022
				c2.492-0.017,5.119-0.084,7.832-0.063c2.711,0.01,5.519-0.019,8.361,0.023c2.848,0.047,5.74,0.035,8.637,0.035
				c5.787,0.052,11.574,0.104,16.998,0.152c1.356,0.017,2.69,0.004,3.996,0.043c1.31,0.025,2.586,0.063,3.83,0.056
				c2.484-0.009,4.84,0.03,7.015,0.069c8.711,0.096,14.517,0.158,14.517,0.158s-1.426,0.307-3.945,0.689
				c-1.262,0.206-2.792,0.423-4.555,0.627c-1.76,0.204-3.75,0.488-5.924,0.648c-2.174,0.194-4.53,0.398-7.023,0.567
				c-2.496,0.187-5.128,0.301-7.854,0.401c-1.362,0.051-2.748,0.104-4.148,0.158c-0.701,0.025-1.407,0.055-2.115,0.082
				c-0.71,0.008-1.422,0.015-2.137,0.021c-2.861,0.032-5.771,0.024-8.674,0.024c-2.906-0.021-5.814-0.021-8.676-0.15
				c-2.861-0.086-5.676-0.246-8.398-0.357c-2.723-0.11-5.355-0.271-7.848-0.438c-2.485-0.185-4.834-0.405-7.002-0.61
				c-2.168-0.192-4.154-0.41-5.916-0.602c-1.765-0.182-3.295-0.378-4.562-0.529c-1.265-0.146-2.255-0.295-2.933-0.383
				C7301.93,7170.917,7301.566,7170.865,7301.566,7170.865z"/>
		</g>
	</g>
	<g id="Eyes_1_">
		<path fill="#FFFFFF" d="M7342.332,7102.096c0,10.47-8.482,18.953-18.954,18.953c-10.465,0-18.953-8.483-18.953-18.953
			c0-10.465,8.487-18.951,18.953-18.951C7333.85,7083.145,7342.332,7091.63,7342.332,7102.096"/>
		<path fill="#FFFFFF" d="M7397.9,7102.096c0,10.47-8.488,18.953-18.953,18.953c-10.47,0-18.955-8.483-18.955-18.953
			c0-10.465,8.485-18.951,18.955-18.951C7389.412,7083.145,7397.9,7091.63,7397.9,7102.096"/>
	</g>
	<g id="Eye_balls_1_">
		<path d="M7332.029,7102.654c0,7.642-6.192,13.836-13.838,13.836c-7.644,0-13.836-6.196-13.836-13.836
			c0-7.646,6.193-13.838,13.836-13.838C7325.837,7088.816,7332.029,7095.009,7332.029,7102.654"/>
		<path d="M7386.877,7102.654c0,7.643-6.199,13.836-13.837,13.836c-7.646,0-13.842-6.195-13.842-13.836
			c0-7.646,6.196-13.838,13.842-13.838C7380.678,7088.816,7386.877,7095.01,7386.877,7102.654"/>
	</g>
</g>
<g id="Layer_4">
	<g id="Left_Leg">
		<path fill="#917E70" d="M7586.938,7363.891c0,0-0.345,8.133-0.859,20.33c-0.221,6.121-0.477,13.258-0.749,20.908
			c-0.103,3.822-0.204,7.773-0.312,11.793c-0.088,4.018-0.154,8.09-0.176,12.168c-0.004,4.07-0.07,8.148-0.021,12.151
			c0.021,4.007,0.103,7.946,0.237,11.75c0.143,3.8,0.27,7.474,0.488,10.94c0.212,3.47,0.49,6.734,0.813,9.734
			c0.332,2.992,0.707,5.727,1.121,8.107c0.188,1.207,0.424,2.297,0.517,3.354c0.086,1.063,0.142,2.04,0.153,2.937
			c0.02,0.897-0.043,1.742-0.111,2.484c-0.037,0.729-0.119,1.377-0.201,1.923c-0.173,1.092-0.369,1.748-0.369,1.748
			s-0.58-0.3-1.477-0.995c-0.44-0.354-0.969-0.807-1.521-1.375c-0.528-0.578-1.077-1.268-1.626-2.08
			c-0.582-0.807-1.083-1.74-1.545-2.779c-0.473-1.041-0.902-2.201-1.234-3.447c-0.756-2.495-1.498-5.316-2.229-8.4
			c-0.72-3.088-1.422-6.44-2.076-9.996c-0.646-3.549-1.31-7.297-1.821-11.185c-0.543-3.885-1.043-7.901-1.485-11.983
			c-0.446-4.088-0.884-8.23-1.199-12.389c-0.33-4.148-0.612-8.301-0.868-12.389c-0.257-4.086-0.448-8.108-0.585-12
			c-0.144-3.896-0.269-7.66-0.351-11.226c-0.039-3.571-0.076-6.944-0.112-10.056c-0.033-6.229,0.054-11.42,0.147-15.063
			c0.054-1.826,0.099-3.258,0.131-4.235c0.041-0.988,0.063-1.518,0.063-1.518L7586.938,7363.891z"/>
		<path fill="#613436" d="M7590.783,7492.303v8.942h-9.917v-3.161c-6.169,1.835-14.229,3.161-21.051,3.161
			c-13.188,0-16.812-4.983-16.812-8.942s23.065-3.623,36.254-3.623C7592.462,7488.678,7590.783,7488.344,7590.783,7492.303"/>
	</g>
	<g id="Right_Leg">
		<path fill="#917E70" d="M7737.523,7368.635c0,0,0.076,0.51,0.229,1.469c0.139,0.946,0.34,2.334,0.598,4.104
			c0.496,3.528,1.155,8.569,1.816,14.63c0.313,3.029,0.65,6.316,1.01,9.792c0.318,3.479,0.621,7.149,0.92,10.951
			c0.305,3.802,0.566,7.731,0.779,11.735c0.207,4.004,0.408,8.071,0.559,12.146c0.162,4.069,0.215,8.151,0.244,12.175
			c0.037,4.018,0.008,7.98-0.063,11.82c-0.056,3.834-0.263,7.554-0.465,11.078c-0.222,3.523-0.506,6.862-0.826,9.943
			c-0.34,3.085-0.711,5.914-1.123,8.422c-0.168,1.25-0.449,2.432-0.767,3.497c-0.16,0.532-0.333,1.039-0.513,1.521
			c-0.209,0.484-0.41,0.941-0.638,1.367c-0.425,0.857-0.858,1.603-1.308,2.229c-0.463,0.626-0.916,1.134-1.301,1.536
			c-0.776,0.802-1.305,1.17-1.305,1.17s-0.293-0.607-0.628-1.646c-0.16-0.521-0.345-1.144-0.483-1.846
			c-0.17-0.713-0.353-1.523-0.465-2.4c-0.113-0.877-0.188-1.838-0.248-2.877c-0.063-1.047,0.037-2.138,0.062-3.338
			c0.097-2.375,0.114-5.078,0.069-8.026c-0.061-2.956-0.188-6.166-0.399-9.565c-0.205-3.4-0.521-6.989-0.827-10.701
			c-0.32-3.715-0.699-7.549-1.146-11.453c-0.418-3.898-0.961-7.854-1.434-11.818c-0.96-7.922-2.158-15.826-3.214-23.248
			c-1.131-7.406-2.188-14.323-3.093-20.25c-1.866-11.809-3.109-19.68-3.109-19.68L7737.523,7368.635z"/>
		<path fill="#613436" d="M7729.471,7495.564v8.943h9.896v-3.188c6.172,1.86,14.23,3.188,21.052,3.188
			c13.188,0,16.81-4.982,16.81-8.943s-23.063-3.625-36.252-3.625C7727.771,7491.939,7729.471,7491.604,7729.471,7495.564"/>
	</g>
	<g id="Left_arm">
		<path fill="#613436" d="M7576.119,7196.053c0,0-3.038,7.551-7.6,18.875c-2.244,5.696-4.869,12.342-7.686,19.463
			c-1.369,3.571-2.787,7.26-4.227,11.012c-1.42,3.754-2.85,7.58-4.229,11.412c-1.359,3.838-2.787,7.658-4.074,11.443
			c-1.32,3.789-2.561,7.525-3.697,11.158c-1.135,3.631-2.24,7.139-3.188,10.481c-0.957,3.339-1.786,6.513-2.483,9.444
			c-0.684,2.936-1.244,5.629-1.648,8.017c-0.227,1.206-0.361,2.31-0.633,3.339c-0.271,1.025-0.547,1.965-0.833,2.813
			c-0.283,0.854-0.616,1.629-0.938,2.308c-0.273,0.675-0.567,1.263-0.832,1.742c-0.522,0.978-0.929,1.524-0.929,1.524
			s-0.448-0.467-1.06-1.432c-0.297-0.475-0.645-1.077-0.979-1.803c-0.304-0.721-0.591-1.561-0.839-2.498
			c-0.277-0.957-0.438-2.004-0.523-3.144c-0.096-1.134-0.117-2.374-0.017-3.663c0.12-2.6,0.362-5.508,0.706-8.663
			c0.354-3.146,0.809-6.542,1.376-10.108c0.576-3.563,1.202-7.318,2.013-11.152c0.787-3.846,1.655-7.799,2.6-11.794
			c0.939-4.001,1.918-8.054,3.004-12.078c1.074-4.021,2.191-8.03,3.316-11.97c1.123-3.937,2.283-7.791,3.457-11.508
			c1.162-3.717,2.297-7.309,3.414-10.695c1.151-3.379,2.244-6.57,3.246-9.521c2.049-5.879,3.862-10.744,5.168-14.146
			c0.66-1.7,1.182-3.037,1.535-3.949c0.369-0.917,0.566-1.408,0.566-1.408L7576.119,7196.053z"/>
		<path fill="#E5C58C" d="M7537.988,7303.646c0,0,4.021,22.183-0.932,22.756c-2.332,0.272-2.055-10.404-2.055-10.404
			s-2.596,13.443-5.293,13.421c-3.547-0.028,0.926-15.217,0.926-15.217s-5.666,13.638-8.742,11.711
			c-2.809-1.76,4.32-13.961,4.32-13.961s-4.395,6.243-7.676,3.729c-3.104-2.371,11.577-14.899,11.577-14.899L7537.988,7303.646z"/>
	</g>
	<g id="Right_arm">
		<path fill="#613436" d="M7749.762,7187.123c0,0,0.146,0.509,0.418,1.459c0.256,0.943,0.635,2.328,1.117,4.09
			c0.941,3.518,2.238,8.546,3.666,14.607c0.69,3.039,1.441,6.326,2.238,9.807c0.757,3.488,1.514,7.173,2.282,10.991
			c0.778,3.819,1.534,7.774,2.24,11.806c0.71,4.037,1.407,8.142,2.058,12.254c0.662,4.112,1.209,8.244,1.729,12.321
			c0.523,4.071,0.979,8.092,1.361,11.998c0.405,3.899,0.639,7.7,0.842,11.308c0.189,3.605,0.293,7.025,0.313,10.194
			c0.015,3.176-0.046,6.09-0.199,8.69c-0.03,1.291-0.183,2.521-0.396,3.644c-0.201,1.12-0.472,2.144-0.851,3.063
			c-0.347,0.916-0.716,1.72-1.095,2.398c-0.404,0.688-0.813,1.25-1.162,1.691c-0.705,0.892-1.196,1.313-1.196,1.313
			s-0.349-0.592-0.769-1.617c-0.209-0.505-0.442-1.119-0.646-1.816c-0.244-0.707-0.497-1.508-0.69-2.39
			c-0.194-0.87-0.371-1.839-0.535-2.894c-0.16-1.047-0.183-2.158-0.283-3.381c-0.154-2.416-0.433-5.155-0.812-8.146
			c-0.39-2.991-0.879-6.229-1.481-9.653c-0.599-3.424-1.334-7.022-2.082-10.754c-0.758-3.728-1.601-7.58-2.516-11.479
			c-0.891-3.906-1.912-7.852-2.866-11.814c-0.974-3.951-1.992-7.899-3.019-11.785c-1.039-3.881-2.066-7.699-3.06-11.395
			c-2.056-7.374-3.976-14.257-5.616-20.152c-3.354-11.735-5.596-19.563-5.596-19.563L7749.762,7187.123z"/>
		<path fill="#E5C58C" d="M7760.076,7305.508c0,0-6.6,21.551-1.745,22.702c2.282,0.546,3.258-10.093,3.258-10.093
			s1,13.657,3.679,13.951c3.529,0.389,0.869-15.218,0.869-15.218s4.026,14.205,7.308,12.653c2.999-1.414-2.651-14.371-2.651-14.371
			s3.633,6.715,7.188,4.605c3.357-1.988-9.75-16.152-9.75-16.152L7760.076,7305.508z"/>
	</g>
	<g id="Body">
		<polygon fill="#613436" points="7553.459,7048.344 7525.92,7185.843 7772.497,7187.963 7758.844,7040.75 		"/>
		<path fill="#A55F2F" d="M7748.352,7350.453c0,29.465-42.025,53.352-93.865,53.352c-51.845,0-93.867-23.887-93.867-53.352
			c0-29.462,42.022-53.354,93.867-53.354C7706.324,7297.102,7748.352,7320.991,7748.352,7350.453"/>
		<path fill="#E5C58C" d="M7748.35,7098.337c0-51.778-41.973-93.751-93.748-93.751s-93.756,41.973-93.756,93.751v252.116h187.508
			v-252.116H7748.35z"/>
		<g>
			<path fill="#1E1A19" d="M7667.73,7002.759c0,0-10.107-68.517-84.119-0.899c0,0,8.539,47.484,19.151,46.533
				c27.7-2.481,73.017-17.381,73.017-17.381L7667.73,7002.759z"/>
			<path fill="#1E1A19" d="M7672.816,6972.038c0,0,34.449,26.397,38.873,26.46c24.744,0.346,13.799-43.307,29.246,42.632
				c0.287,1.587,3.393,7.97,4.707,17.792c0.535,4.002,0.535,4.002,0.535,4.002c1.676,6.948,0.867-10.281,2.568-10.82
				c1.021-0.324,5.506,22.131,4.813,27.228c-1.328,9.731-5.59,50.765-5.59,50.765s-6.676-32.492-22.203-54.293
				c0,0,8.271-27.965-10.631-35.373c-18.901-7.41-59.951-8.313-59.951-8.313L7672.816,6972.038L7672.816,6972.038z"/>
			<path fill="#1E1A19" d="M7575.542,6985.447c0,0-21.562,37.576-15.554,99.924c0.479,4.992,0.854,55.494,0.854,55.494
				s7.61-32.492,23.138-54.293c0,0-8.271-27.963,10.631-35.375c18.897-7.406,27.922-5.875,27.922-5.875l-39.078-48.215
				L7575.542,6985.447z"/>
		</g>
		<path fill="#A2785F" d="M7554.721,6997.771c0,0-20.41,26.709,0,54.771c0,0,99.22,34.683,206.308-10.991
			c0,0,13.056-41.889-9.948-43.779C7751.078,6997.771,7650.09,6967.491,7554.721,6997.771z"/>
		<path fill="#613436" d="M7554.721,6997.771c0,0,94.135-71.102,196.357,0H7554.721z"/>
		<path fill="#613436" d="M7748.352,7403.805c-5.938,10.049-176.885,6.578-187.506,0c-10.617-6.582,0-224.422,0-224.422
			s51.437,25.439,93.896,27.03c42.465,1.597,93.609-27.03,93.609-27.03S7754.287,7393.754,7748.352,7403.805z"/>
		<path fill="#E2AF37" d="M7559.52,7290.895c0,0,92.228,7.688,183.734,0l0.718,29.313c0,0-48.832,5.636-184.452,0V7290.895
			L7559.52,7290.895z"/>
		<path fill="#A2785F" d="M7716.191,7192.38l32.377-12.997l1.47,179.641l-49.864,2.77v-140.674
			C7700.174,7221.117,7714.389,7205.689,7716.191,7192.38z"/>
		<path fill="#A2785F" d="M7592.561,7191.252l-32.377-12.995l-3.949,180.58l52.349,1.828V7219.99
			C7608.581,7219.99,7594.367,7204.564,7592.561,7191.252z"/>
	</g>
	<g id="Eyes">
		<path fill="#FFFFFF" d="M7648.469,7100.688c0,10.5-8.512,19.008-19.01,19.008c-10.5,0-19.01-8.51-19.01-19.008
			c0-10.5,8.51-19.01,19.01-19.01C7639.957,7081.678,7648.469,7090.188,7648.469,7100.688"/>
		<path fill="#FFFFFF" d="M7704.407,7100.447c0,10.5-8.511,19.008-19.009,19.008s-19.01-8.51-19.01-19.008
			s8.512-19.008,19.01-19.008S7704.407,7089.95,7704.407,7100.447"/>
	</g>
	<g id="Eye_balls">
		<path d="M7646.402,7098.448c0,7.666-6.217,13.881-13.883,13.881c-7.664,0-13.877-6.215-13.877-13.881
			c0-7.665,6.213-13.879,13.877-13.879C7640.188,7084.568,7646.402,7090.782,7646.402,7098.448"/>
		<path d="M7702.043,7098.688c0,7.666-6.216,13.881-13.88,13.881s-13.88-6.215-13.88-13.881s6.216-13.879,13.88-13.879
			S7702.043,7091.021,7702.043,7098.688"/>
	</g>
	<path fill="#BB202C" d="M7064.714,7157.963c0,0,3.649,43.538-21.638,43.294c-24.703-0.235-20.492-43.962-20.492-43.962
		L7064.714,7157.963z"/>
	<g>
		<path fill="#BB9467" d="M7696.221,7160.99c0,0-1.287,0.688-3.595,1.729c-1.151,0.524-2.558,1.153-4.188,1.811
			c-1.623,0.682-3.471,1.413-5.502,2.161c-2.035,0.743-4.254,1.509-6.627,2.259c-2.379,0.74-4.905,1.465-7.584,2.107
			c-1.354,0.297-2.715,0.608-4.176,0.836c-0.36,0.062-0.72,0.127-1.092,0.176l-1.16,0.113l-0.584,0.055l-0.146,0.016l-0.073,0.007
			l-0.037,0.003l-0.105,0.004l-0.265,0.008l-1.056,0.029c-1.684,0.006-3.252-0.146-4.869-0.476c-1.602-0.327-3.178-0.824-4.633-1.46
			c-2.938-1.259-5.42-2.846-7.813-4.296c-2.383-1.476-4.693-2.853-6.979-4.128c-4.564-2.538-9.019-4.628-12.922-6.316
			c-1.951-0.838-3.75-1.623-5.365-2.27c-1.621-0.656-3.031-1.229-4.194-1.7c-2.34-0.929-3.679-1.502-3.679-1.502
			s0.359,0.028,1.039,0.08c0.672,0.074,1.674,0.123,2.928,0.297c1.254,0.17,2.791,0.341,4.525,0.673
			c1.74,0.307,3.705,0.678,5.826,1.202c2.121,0.519,4.412,1.147,6.797,1.957c2.388,0.798,4.883,1.749,7.395,2.892
			c2.521,1.119,5.055,2.451,7.536,3.824c2.483,1.367,4.896,2.793,7.235,3.776c1.18,0.481,2.336,0.88,3.525,1.134
			c1.176,0.259,2.443,0.38,3.579,0.438l1.058,0.008l0.263,0.002c0.026,0-0.116,0.002-0.042,0l0.027-0.002l0.059-0.004l0.116-0.006
			l0.462-0.026l0.922-0.05l0.967-0.104c1.282-0.109,2.602-0.33,3.887-0.516c1.297-0.203,2.574-0.4,3.828-0.634
			c1.258-0.201,2.489-0.431,3.689-0.647c2.412-0.433,4.693-0.842,6.798-1.219c2.112-0.378,4.058-0.705,5.788-0.982
			c1.723-0.303,3.238-0.526,4.488-0.715C7694.771,7161.152,7696.221,7160.99,7696.221,7160.99z"/>
	</g>
</g>
</svg>
